<?xml version="1.0" encoding="UTF-8"?>
<svg width="140px" height="140px" viewBox="0 0 140 100" version="1.1" xmlns="http://www.w3.org/2000/svg" xmlns:xlink="http://www.w3.org/1999/xlink">
    <title>E93C5849-9979-494F-A0AC-EE20D3D64C1F</title>
    <g id="Page-1" stroke="none" stroke-width="1" fill="none" fill-rule="evenodd">
        <g id="Alt.-Design-Web-2.0" transform="translate(-1078.000000, -1220.000000)">
            <g id="Fingerprint-rafiki" transform="translate(1078.000000, 1220.000000)">
                <g id="freepik--background-complete--inject-2" transform="translate(0.000000, 28.000000)" fill-rule="nonzero">
                    <rect id="Rectangle" fill="#EBEBEB" x="121.69976" y="61.9783573" width="9.67104" height="1"></rect>
                    <rect id="Rectangle" fill="#EBEBEB" x="94.17876" y="62.7700576" width="2.53748" height="1"></rect>
                    <rect id="Rectangle" fill="#EBEBEB" x="115.80428" y="59.2772622" width="5.60348" height="1"></rect>
                    <rect id="Rectangle" fill="#EBEBEB" x="15.31832" y="59.7662536" width="12.61148" height="1"></rect>
                    <rect id="Rectangle" fill="#EBEBEB" x="30.53152" y="59.7662536" width="1.84836" height="1"></rect>
                    <rect id="Rectangle" fill="#EBEBEB" x="38.38924" y="60.9945533" width="27.35456" height="1"></rect>
                    <rect id="Rectangle" fill="#EBEBEB" x="0" y="57.2951009" width="146" height="1"></rect>
                    <rect id="Rectangle" fill="#E0E0E0" x="78.64144" y="0.53426513" width="10.62588" height="7.79184438" rx="2.38"></rect>
                    <rect id="Rectangle" fill="#EBEBEB" x="79.42108" y="1.20662824" width="4.78004" height="2.64288184"></rect>
                    <rect id="Rectangle" fill="#EBEBEB" x="79.42108" y="4.64994236" width="1" height="1"></rect>
                    <rect id="Rectangle" fill="#EBEBEB" x="79.42108" y="5.48530259" width="1" height="1"></rect>
                    <rect id="Rectangle" fill="#EBEBEB" x="79.42108" y="6.32066282" width="1" height="1"></rect>
                    <rect id="Rectangle" fill="#EBEBEB" x="79.42108" y="7.15602305" width="1" height="1"></rect>
                    <rect id="Rectangle" fill="#EBEBEB" x="80.71464" y="4.64994236" width="1" height="1"></rect>
                    <rect id="Rectangle" fill="#EBEBEB" x="80.71464" y="5.48530259" width="1" height="1"></rect>
                    <rect id="Rectangle" fill="#EBEBEB" x="80.71464" y="6.32066282" width="1" height="1"></rect>
                    <rect id="Rectangle" fill="#EBEBEB" x="80.71464" y="7.15602305" width="1" height="1"></rect>
                    <rect id="Rectangle" fill="#EBEBEB" x="82.00528" y="4.64994236" width="1" height="1"></rect>
                    <rect id="Rectangle" fill="#EBEBEB" x="82.00528" y="5.48530259" width="1" height="1"></rect>
                    <rect id="Rectangle" fill="#EBEBEB" x="82.00528" y="6.32066282" width="1" height="1"></rect>
                    <rect id="Rectangle" fill="#EBEBEB" x="82.00528" y="7.15602305" width="1" height="1"></rect>
                    <rect id="Rectangle" fill="#EBEBEB" x="83.29592" y="4.64994236" width="1" height="1"></rect>
                    <rect id="Rectangle" fill="#EBEBEB" x="83.29592" y="5.48530259" width="1" height="1"></rect>
                    <rect id="Rectangle" fill="#EBEBEB" x="83.29592" y="6.32066282" width="1" height="1"></rect>
                    <rect id="Rectangle" fill="#EBEBEB" x="83.29592" y="7.15602305" width="1" height="1"></rect>
                    <rect id="Rectangle" fill="#F0F0F0" x="85.91516" y="0.53426513" width="2.60464" height="7.11948127"></rect>
                    <rect id="Rectangle" fill="#E6E6E6" x="85.91516" y="2.52806916" width="2.60464" height="2.96014409"></rect>
                    <polygon id="Path" fill="#E0E0E0" points="85.91516 5.48530259 86.41156 3.84951009 88.15772 3.84951009 88.5198 5.48530259"></polygon>
                    <rect id="Rectangle" fill="#FFFFFF" x="93.67652" y="5.60755043" width="3.88652" height="12.7516138"></rect>
                    <path d="M76.27332,46.0105132 C76.2511345,46.0112514 76.2295804,46.0030152 76.2136099,45.9876447 C76.1976395,45.9722743 76.1886258,45.9510912 76.18864,45.9289625 C75.93168,38.3437752 78.25016,35.4505764 78.27352,35.4214697 C78.3033544,35.3853007 78.3569549,35.3800881 78.39324,35.4098271 C78.4295251,35.4395661 78.4347544,35.4929952 78.40492,35.5291643 C78.38156,35.5553602 76.10396,38.4107205 76.36092,45.9231412 C76.362544,45.9457456 76.3546524,45.9680034 76.3391399,45.9845708 C76.3236274,46.0011382 76.3018949,46.0105132 76.27916,46.0105132 L76.27332,46.0105132 Z" id="Path" fill="#E0E0E0"></path>
                    <path d="M77.35664,46.0104611 L77.35664,46.0104611 C77.3341323,46.0082614 77.3134426,45.9971786 77.2991813,45.9796825 C77.2849201,45.9621863 77.2782725,45.9397308 77.28072,45.9173199 C77.48512,43.6993948 78.28228,42.005389 79.65468,40.8818732 C81.79212,39.1354755 84.61868,39.4003458 84.64496,39.4032565 C84.6674677,39.4054561 84.6881574,39.4165389 84.7024187,39.4340351 C84.7166799,39.4515312 84.7233275,39.4739868 84.72088,39.4963977 C84.7186733,39.5188334 84.7075549,39.539457 84.6900027,39.5536726 C84.6724504,39.5678882 84.6499228,39.5745146 84.62744,39.5720749 C84.60116,39.5720749 81.84468,39.3072046 79.7598,41.012853 C78.42536,42.1072622 77.64864,43.7634294 77.45008,45.9347839 C77.4486865,45.957549 77.437787,45.9786904 77.420029,45.9930726 C77.4022711,46.0074548 77.3792797,46.0137616 77.35664,46.0104611 Z" id="Path" fill="#E0E0E0"></path>
                    <path d="M82.8696,39.4498271 C82.45788,38.6231988 79.04148,38.0585303 80.99788,36.265562 C82.95428,34.4725937 82.94552,38.3175793 83.81568,38.3030259 C85.03332,38.2826513 84.7968,33.1395101 86.80576,34.4667723 C88.81472,35.7940346 84.82308,37.8926225 85.46256,38.8327666 C86.04656,39.7059654 89.59436,36.8826225 89.6732,38.6086455 C89.75204,40.3346686 85.89764,39.0568876 85.64944,40.0959942 C85.45964,40.9080692 89.25856,41.6444669 87.57372,42.8203746 C85.88888,43.9962824 85.34868,40.4307205 84.42012,40.6606628 C83.7164,40.8353026 84.65664,43.7634294 83.23752,43.3064553 C81.8184,42.8494813 83.30468,40.3201153 82.8696,39.4498271 Z" id="Path" fill="#F0F0F0"></path>
                    <path d="M74.97976,46.9564265 C74.9357249,46.9551811 74.8994676,46.9215322 74.89508,46.8778386 C74.21764,40.29683 71.248,36.2510086 71.21004,36.221902 C71.1785164,36.1883284 71.1785164,36.1361384 71.21004,36.1025648 C71.2281553,36.0888235 71.2510579,36.0829311 71.273582,36.0862168 C71.2961061,36.0895025 71.3163545,36.1016895 71.32976,36.1200288 C71.36188,36.1607781 74.36656,40.2269741 75.04984,46.8720173 C75.0522875,46.8944282 75.0456399,46.9168838 75.0313787,46.9343799 C75.0171174,46.951876 74.9964277,46.9629588 74.97392,46.9651585 L74.97976,46.9564265 Z" id="Path" fill="#E0E0E0"></path>
                    <path d="M72.01012,38.7134294 C70.97936,39.5691643 71.321,44.552219 68.13528,42.4070605 C64.94956,40.261902 70.372,38.9870317 70.08,37.7703746 C69.64492,36.0647262 62.4588,38.1138329 63.656,34.8597118 C64.8532,31.6055908 69.15728,36.5042363 70.28732,35.2875793 C71.32392,34.1727954 66.1526,30.1357061 68.56452,29.4487896 C70.97644,28.7618732 70.45668,34.6006628 72.01012,34.6006628 C73.219,34.6006628 72.99416,29.0209222 75.22212,30.9943516 C77.45008,32.967781 72.59412,34.9150144 73.22192,36.1404035 C73.70664,37.0718156 77.52892,34.7723919 77.35664,36.9204611 C77.18436,39.0685303 73.09344,37.8169452 72.01012,38.7134294 Z" id="Path" fill="#E6E6E6"></path>
                    <path d="M80.06056,53.4326513 L80.75844,45.2449568 L70.81,45.2449568 L71.5108,53.4384726 C71.6989461,55.6523404 73.5567554,57.3536814 75.78568,57.3533142 L75.78568,57.3533142 C78.0166667,57.3533142 79.8752772,55.6488216 80.06056,53.4326513 Z" id="Path" fill="#F5F5F5"></path>
                    <path d="M77.65156,38.026513 C78.68232,38.8822478 78.34068,43.8653026 81.5264,41.7201441 C84.71212,39.5749856 79.278,38.3001153 79.59044,37.0834582 C80.02552,35.3778098 87.21164,37.4269164 86.01444,34.1727954 C84.81724,30.9186744 80.51316,35.8173199 79.38312,34.6006628 C78.3436,33.485879 83.51784,29.4487896 81.10592,28.7618732 C78.694,28.0749568 79.21376,33.9137464 77.66032,33.9137464 C76.45144,33.9137464 76.67628,28.3340058 74.44832,30.3074352 C72.22036,32.2808646 77.07632,34.228098 76.44852,35.453487 C75.9638,36.3848991 72.14152,34.0854755 72.3138,36.2335447 C72.48608,38.3816138 76.56824,37.1300288 77.65156,38.026513 Z" id="Path" fill="#F5F5F5"></path>
                    <rect id="Rectangle" fill="#EBEBEB" x="11.3588" y="17.0115274" width="40.1938" height="40.0652738"></rect>
                    <rect id="Rectangle" fill="#FAFAFA" x="14.43356" y="20.0764553" width="34.35672" height="36.9275793"></rect>
                    <rect id="Rectangle" fill="#E6E6E6" x="16.50384" y="35.4272911" width="1.16216" height="4.19717579"></rect>
                    <rect id="Rectangle" fill="#FFFFFF" x="15.92276" y="33.477147" width="1.16216" height="8.24590778"></rect>
                    <rect id="Rectangle" fill="#FFFFFF" x="15.92276" y="33.477147" width="1.74032" height="1.25158501"></rect>
                    <rect id="Rectangle" fill="#FFFFFF" x="15.92276" y="40.4685591" width="1.74032" height="1.25158501"></rect>
                </g>
                <g id="freepik--Shadow--inject-2" transform="translate(17.000000, 92.000000)" fill="#F5F5F5" fill-rule="nonzero">
                    <ellipse id="freepik--path--inject-2" cx="56.5" cy="3.40958333" rx="56.4679639" ry="3.30166667"></ellipse>
                </g>
                <g id="freepik--Character--inject-2" transform="translate(86.000000, 14.000000)" fill-rule="nonzero">
                    <g id="freepik--group--inject-2">
                        <path d="M34.2354967,10.5977895 C33.9275859,11.5150164 33.1803188,12.2170335 32.245298,12.4674737 L32.2307285,12.4674737 C31.8287308,12.5678334 31.4210041,12.6436924 31.0098013,12.6946316 L30.8087417,12.7208421 C29.415894,12.8839298 27.9880795,12.8518947 26.5923179,13.0528421 L26.3825166,13.0848772 C25.6894659,13.2250671 24.9874371,13.3165427 24.2815894,13.3586316 C24.1240362,13.3615371 23.966443,13.3557036 23.8095364,13.3411579 C23.1854104,13.3101223 22.5877997,13.0793793 22.1049007,12.6829825 C21.4900662,12.1354737 21.2307285,11.3200351 21.0704636,10.4987719 C21.4900662,10.3706316 21.9553201,10.2240468 22.4662252,10.0590175 C26.1727152,8.84168421 22.1282119,6.80308772 23.4394702,3.54715789 C25.2723179,-1.00764912 32.7639735,-0.687298246 32.6357616,2.42010526 C34.981457,3.00547368 35.3165563,7.49329825 34.2354967,10.5977895 Z" id="Path" fill="#263238"></path>
                        <path d="M23.9144371,5.14017544 C23.7425166,5.85077193 23.6871523,6.59631579 23.4307285,7.27778947 C23.1743046,7.95926316 22.658543,8.61161404 21.9417219,8.75722807 C23.0198675,9.23484211 24.3544371,8.7077193 25.0829139,7.78161404 C25.8113907,6.85550877 26.0445033,5.62361404 26.0678146,4.44122807 C26.0678146,4.16747368 26.117351,3.83838596 25.9250331,3.64617544 C24.546755,2.27740351 24.0834437,4.42957895 23.9144371,5.14017544 Z" id="Path" fill="#263238"></path>
                        <path d="M22.8770861,17.3018596 L22.5856954,17.5639649 L22.3554967,17.7678246 C22.1864901,17.9192632 22.0203974,18.0590526 21.8484768,18.1930175 C21.5075497,18.4638596 21.1637086,18.7347018 20.8111258,18.9851579 C20.7382781,19.0346667 20.6654305,19.0870877 20.5954967,19.1307719 C20.5261531,19.182955 20.4541826,19.2315566 20.3798675,19.276386 L20.207947,19.3928772 C19.6776159,19.7423509 19.141457,20.0685263 18.5907285,20.3772281 C18.1905519,20.5966199 17.7855188,20.8004795 17.3756291,20.988807 C16.9909934,21.1693684 16.5976159,21.3353684 16.2100662,21.486807 L15.5864901,21.7110526 C15.3737748,21.7838596 15.1610596,21.8421053 14.9541722,21.912 L14.6336424,22.0081053 L14.2868874,22.0954737 C14.0596026,22.1478947 13.829404,22.2003158 13.607947,22.2352632 C11.8765426,22.485639 10.1193961,22.5032692 8.38331126,22.2876842 C7.53827815,22.1974035 6.69907285,22.0721754 5.87152318,21.9294737 C5.28874172,21.8275439 4.70596026,21.7081404 4.12317881,21.5654386 C3.8813245,21.5101053 3.63655629,21.4460351 3.39178808,21.3790526 L3.64529801,20.0743509 L4.34463576,20.1355088 C4.92741722,20.1821053 5.49562914,20.2257895 6.06675497,20.252 C6.87390728,20.2898596 7.6810596,20.3335439 8.48529801,20.3335439 C10.0426669,20.3664621 11.5990235,20.2307353 13.1271523,19.9287368 C13.3049007,19.8879649 13.4797351,19.8384561 13.6516556,19.7889474 L13.9022517,19.7074035 L14.1703311,19.6054737 C14.3451656,19.5355789 14.52,19.4831579 14.7064901,19.3987018 L15.2222517,19.1657193 C15.9197588,18.8429796 16.6005352,18.4852854 17.2619868,18.094 C17.7194702,17.8231579 18.1711258,17.5319298 18.6140397,17.2203158 L18.8792053,17.0339298 C18.9316556,16.9989825 18.9870199,16.9611228 19.0394702,16.9203509 L19.2084768,16.8009474 L19.2609272,16.7630877 C19.5523179,16.5504912 19.8437086,16.3233333 20.1350993,16.0961754 L20.5780132,15.7292281 L20.9888742,15.3739298 L22.3700662,16.7951228 L22.8770861,17.3018596 Z" id="Path" fill="#FFC3BD"></path>
                        <path d="M4.6418543,20.2257895 L2.0397351,19.4190877 L2.51470199,22.005193 C2.51470199,22.005193 3.90754967,22.005193 4.57192053,21.1926667 L4.6418543,20.2257895 Z" id="Path" fill="#FFC3BD"></path>
                        <polygon id="Path" fill="#FFC3BD" points="0.224370861 19.9491228 0.719735099 21.6324211 2.5205298 22.005193 2.04556291 19.4190877"></polygon>
                        <path d="M2.27284768,20.1471579 C1.9960742,19.6916915 1.84430971,19.1713595 1.83284768,18.6385965 C1.85907285,17.9454737 2.25245033,17.9949825 2.25245033,17.9949825 C2.25245033,17.9949825 2.17960265,18.8191579 3.25774834,20.2083158 L3.28397351,20.2461754 L2.27284768,20.1471579 Z" id="Path" fill="#FFC3BD"></path>
                        <path d="M24.7682119,16.6 C24.5438411,17.2756491 23.7017219,17.907614 22.8188079,18.405614 C22.143574,18.7811036 21.4424663,19.1081045 20.7207947,19.3841404 L20.4847682,19.4715088 L20.3798675,19.2909474 L19.0540397,16.9465614 L18.8354967,16.5592281 L19.0278146,16.3641053 C19.9191268,15.4709734 20.8949961,14.6663306 21.9417219,13.9614737 C22.4895364,13.6294737 22.9965563,13.4285263 23.3433113,13.5100702 C24.9313907,13.8566316 25.2169536,15.272 24.7682119,16.6 Z" id="Path" fill="#25AE60"></path>
                        <path d="M24.7682119,16.6 C24.5438411,17.2756491 23.7017219,17.907614 22.8188079,18.405614 C22.143574,18.7811036 21.4424663,19.1081045 20.7207947,19.3841404 L20.4847682,19.4715088 L20.3798675,19.2909474 L19.0540397,16.9465614 L18.8354967,16.5592281 L19.0278146,16.3641053 C19.9191268,15.4709734 20.8949961,14.6663306 21.9417219,13.9614737 C22.4895364,13.6294737 22.9965563,13.4285263 23.3433113,13.5100702 C24.9313907,13.8566316 25.2169536,15.272 24.7682119,16.6 Z" id="Path" fill="#000000" opacity="0.3"></path>
                        <path d="M20.7295364,19.3695789 C20.7609236,19.4753265 20.7117658,19.5883265 20.6129801,19.6375088 C20.5058896,19.6934326 20.3738345,19.6594946 20.3070199,19.5588772 L20.2166887,19.3928772 L18.9025166,17.0455789 L18.669404,16.6291228 C18.6391602,16.5750782 18.6316876,16.5112236 18.6486365,16.4516624 C18.6655854,16.3921011 18.7055613,16.3417336 18.7597351,16.3116842 L18.7597351,16.3116842 C18.7780802,16.3014506 18.7976673,16.2936202 18.8180132,16.288386 C18.8955914,16.2717233 18.9763854,16.2946385 19.0336424,16.3495439 C19.0495085,16.3651303 19.0632273,16.3827589 19.0744371,16.4019649 L19.2813245,16.7747368 L20.6013245,19.1307719 L20.712053,19.328807 C20.716536,19.3429352 20.7223917,19.3565909 20.7295364,19.3695789 Z" id="Path" fill="#25AE60"></path>
                        <path d="M34.9668874,13.2013684 C35.8964238,13.6294737 36.0100662,13.8741053 35.8643709,14.5468421 C35.5729801,15.8486316 35.3456954,17.0018947 35.1533775,18.0415789 C35.106755,18.2920351 35.0630464,18.5366667 35.0193377,18.7725614 C35.0193377,18.8162456 35.0047682,18.8599298 34.9960265,18.9065263 L34.9960265,18.9065263 C34.9960265,18.9531228 34.978543,18.9938947 34.9698013,19.0375789 C34.9610596,19.0812632 34.9464901,19.1773684 34.9319205,19.2443509 C34.0140397,21.3586667 33.6381457,23.9302105 33.8741722,27.7190877 C33.8945695,28.0103158 33.8974834,28.3015439 33.912053,28.5927719 L32.9621192,28.5927719 L29.8442384,28.5927719 L29.3692715,28.5927719 L25.7268874,28.6160702 L25.2548344,28.6160702 L24.2203974,28.6160702 C24.1941722,28.4529825 24.167947,28.2986316 24.1417219,28.1413684 L24.1417219,28.1413684 C23.8736424,26.5570877 23.6521854,25.138807 23.4656954,23.8807018 C23.3607947,23.1613684 23.2646358,22.4915439 23.1743046,21.8712281 C23.1743046,21.8712281 21.6182781,19.9520351 22.1864901,18.7754737 C22.5215894,18.0852632 22.6760265,13.8624561 22.7343046,13.6789825 C22.7925828,13.4955088 22.8421192,13.4984211 22.8421192,13.4984211 C23.1335099,13.4372632 23.4249007,13.3761053 23.7017219,13.3236842 C24.5506402,13.1508889 25.4034437,13.0072164 26.2601325,12.8926667 C26.5515232,12.8518947 26.8574834,12.8140351 27.1576159,12.782 C28.3362985,12.6892813 29.5192237,12.6620581 30.7009272,12.7004561 C30.7766887,12.7004561 30.8466225,12.7004561 30.9223841,12.7004561 C31.2137748,12.7004561 31.5051656,12.7237544 31.7965563,12.7412281 C32.1403974,12.7587018 32.4842384,12.7878246 32.8251656,12.8169474 C33.2828596,12.8409832 33.7390072,12.8886138 34.1917881,12.9596491 L34.9668874,13.2013684 Z" id="Path" fill="#25AE60"></path>
                        <path d="M30.1793377,7.61270175 C29.9345695,9.11252632 29.7364238,11.8529825 30.8145695,12.8111228 C30.8145695,12.8111228 30.2609272,16.0437544 27.5335099,16.5330175 C26.2164238,16.2010175 26.181457,12.9712982 26.181457,12.9712982 C27.8190728,12.5140702 27.2712583,10.8773684 27.3878146,9.2202807 L30.1793377,7.61270175 Z" id="Path" fill="#FFC3BD"></path>
                        <path d="M27.0672848,7.61270175 C27.3586755,8.80091228 27.6500662,10.7929123 27.2304636,12.0655789 C28.1046358,11.8821053 29.3984106,11.1918947 29.5790728,10.4201404 C29.6320099,9.89861551 29.642729,9.37367024 29.6111258,8.85042105 L27.0672848,7.61270175 Z" id="Path" fill="#000000" opacity="0.2"></path>
                        <path d="M32.1549669,5.65273684 C31.8256954,8.12526316 31.7411921,9.17950877 30.4066225,10.364807 C28.3843709,12.1500351 25.4180132,11.2064561 24.9984106,8.69024561 C24.6196026,6.41866667 25.2169536,2.75792982 27.72,1.93957895 C28.8395296,1.5704691 30.0704116,1.80559628 30.9748302,2.56132744 C31.8792488,3.3170586 32.328848,4.48613963 32.1637086,5.65273684 L32.1549669,5.65273684 Z" id="Path" fill="#FFC3BD"></path>
                        <path d="M31.5605298,2.69094737 C30.0365563,4.35968421 25.1965563,4.67129825 24.4622517,4.21115789 C25.9483444,2.14052632 28.2503311,0.969789474 29.5470199,1.24063158 C30.376058,1.4553701 31.0944712,1.97283761 31.5605298,2.69094737 L31.5605298,2.69094737 Z" id="Path" fill="#263238"></path>
                        <polygon id="Path" fill="#263238" points="32.5978808 2.41719298 32.5774834 2.41719298 32.5366887 2.47252632"></polygon>
                        <path d="M32.6357616,2.37933333 L32.592053,2.41719298 C32.6123026,2.41319923 32.6289281,2.39879853 32.6357616,2.37933333 Z" id="Path" fill="#263238"></path>
                        <path d="M32.5774834,2.41719298 L32.5774834,2.3997193 L32.5366887,2.41719298 C32.5366887,2.41719298 32.5687417,2.41719298 32.5774834,2.41719298 Z" id="Path" fill="#263238"></path>
                        <path d="M32.7435762,0.780491228 C32.9931081,1.30769716 32.9338381,1.92912607 32.5891391,2.3997193 C32.9075804,2.2726715 33.1282233,1.97834562 33.16076,1.63720724 C33.1932968,1.29606887 33.0322659,0.965380718 32.7435762,0.780491228 L32.7435762,0.780491228 Z" id="Path" fill="#263238"></path>
                        <path d="M32.8805298,8.09031579 C32.6116558,8.49537725 32.1920612,8.77634871 31.7149669,8.87080702 C31.0855629,8.99021053 30.8233113,8.41940351 31.0418543,7.85442105 C31.2370861,7.34185965 31.8023841,6.68950877 32.4084768,6.79726316 C32.8494239,6.90372641 33.1215352,7.34614838 33.0174834,7.7874386 C32.9925797,7.89654278 32.9460079,7.99953787 32.8805298,8.09031579 L32.8805298,8.09031579 Z" id="Path" fill="#FFC3BD"></path>
                        <path d="M30.6484768,2.88315789 C30.2754967,3.32291228 30.3133775,3.95196491 30.3221192,4.52859649 C30.3454305,6.2177193 30.5464901,8.33785965 29.2556291,9.07757895 C30.7825166,8.65238596 32.0034437,7.93305263 32.781457,6.55263158 C33.3962914,5.46052632 33.3642384,4.80526316 32.8980132,3.64035088 C32.5483444,2.76084211 31.4964238,1.89298246 30.6484768,2.88315789 Z" id="Path" fill="#263238"></path>
                        <path d="M32.8572185,14.8904912 C32.8572185,14.8904912 32.7523179,19.4307368 33.1486093,21.4431228 C33.5449007,23.4555088 33.8566887,22.9545965 33.8566887,22.9545965 C33.8566887,22.9545965 34.0519205,19.8297193 34.4394702,18.9589474 C34.8270199,18.0881754 32.8572185,14.8904912 32.8572185,14.8904912 Z" id="Path" fill="#000000" opacity="0.1"></path>
                        <path d="M37.2776159,18.6618947 C37.2513907,18.9705965 37.2339073,19.3462807 37.2164238,19.6928421 C37.1989404,20.0394035 37.1901987,20.4034386 37.1901987,20.7587368 C37.1901987,21.4722456 37.1901987,22.1886667 37.2455629,22.8963509 C37.3291301,24.298201 37.5467222,25.6888427 37.8953642,27.0492632 C37.9886093,27.3725263 38.0847682,27.7132632 38.186755,28.0248772 C38.2887417,28.3364912 38.4286093,28.6597544 38.5655629,28.9830175 C38.8569536,29.6295439 39.1687417,30.2877193 39.5009272,30.9400702 C40.1682119,32.2476842 40.8762914,33.5611228 41.578543,34.8716491 L40.4596026,35.6579649 C39.4512206,34.5012243 38.5150566,33.2835288 37.6564238,32.0117895 C37.2222517,31.3769123 36.8084768,30.7245614 36.4238411,30.025614 C36.2315232,29.6761404 36.0450331,29.3208421 35.8760265,28.9305965 C35.7070199,28.5403509 35.5846358,28.1675789 35.4389404,27.7831579 C34.9437414,26.263295 34.6288257,24.6905729 34.5006623,23.0972982 C34.4249381,22.3113748 34.3899244,21.5220638 34.3957616,20.7325263 C34.3957616,20.3364561 34.3957616,19.9491228 34.4249007,19.5530526 C34.4540397,19.1569825 34.4686093,18.778386 34.5181457,18.3415439 L37.2776159,18.6618947 Z" id="Path" fill="#FFC3BD"></path>
                        <path d="M41.2201325,34.5891579 L43.1141722,35.9142456 L40.794702,37.3936842 C40.794702,37.3936842 39.7660927,35.9957895 40.2264901,34.5745965 L41.2201325,34.5891579 Z" id="Path" fill="#FFC3BD"></path>
                        <polygon id="Path" fill="#FFC3BD" points="43.7581457 38.0955439 41.7708609 39.1439649 40.8034437 37.3965965 43.1141722 35.9142456"></polygon>
                        <path d="M37.7263576,15.2982105 C38.1634437,18.5803509 37.178543,19.1132982 37.178543,19.1132982 L34.1043709,19.4045263 C34.1043709,19.4045263 32.592053,14.8293333 33.4837086,13.7110175 C34.413245,12.5461053 37.5136424,13.705193 37.7263576,15.2982105 Z" id="Path" fill="#25AE60"></path>
                        <path d="M37.7263576,15.2982105 C38.1634437,18.5803509 37.178543,19.1132982 37.178543,19.1132982 L34.1043709,19.4045263 C34.1043709,19.4045263 32.592053,14.8293333 33.4837086,13.7110175 C34.413245,12.5461053 37.5136424,13.705193 37.7263576,15.2982105 Z" id="Path" fill="#000000" opacity="0.3"></path>
                        <path d="M37.4699338,19.0667018 L37.4699338,19.0667018 C37.4818046,19.1982839 37.3857721,19.315015 37.2543046,19.328807 L37.2543046,19.328807 L34.130596,19.6200351 C33.9995177,19.6318403 33.8835671,19.5354857 33.8712583,19.4045263 L33.8712583,19.4045263 C33.8576667,19.2750753 33.951554,19.159085 34.0810596,19.1453333 L34.0810596,19.1453333 L37.2047682,18.8541053 C37.3364856,18.8404683 37.4546841,18.935234 37.4699338,19.0667018 Z" id="Path" fill="#25AE60"></path>
                        <path d="M24.1329801,28.1588421 L23.7075497,29.0878596 C23.6725828,29.1606667 23.7512583,29.2334737 23.8765563,29.2247368 L33.9033113,28.7704211 C33.9965563,28.7704211 34.0723179,28.718 34.0752318,28.6626667 L34.1364238,27.7482105 C34.1364238,27.6841404 34.0577483,27.6317193 33.9557616,27.6346316 L24.2990728,28.0685614 C24.2317081,28.0675008 24.1686999,28.1017493 24.1329801,28.1588421 L24.1329801,28.1588421 Z" id="Path" fill="#263238"></path>
                        <path d="M25.5666225,29.2596842 L25.2927152,29.2596842 C25.237351,29.2596842 25.1936424,29.236386 25.1965563,29.2043509 L25.2839735,28.0132281 C25.2839735,27.981193 25.3335099,27.9491579 25.3888742,27.9462456 L25.6656954,27.9462456 C25.7181457,27.9462456 25.7647682,27.9724561 25.7589404,28.0044912 L25.6744371,29.195614 C25.6566393,29.238458 25.6127855,29.2645187 25.5666225,29.2596842 L25.5666225,29.2596842 Z" id="Path" fill="#25AE60"></path>
                        <path d="M33.189404,28.9830175 L32.9154967,28.9830175 C32.8601325,28.9830175 32.8164238,28.9597193 32.8164238,28.9247719 L32.9038411,27.7336491 C32.9038411,27.701614 32.9533775,27.6666667 33.0087417,27.6666667 L33.3001325,27.6666667 C33.3211122,27.6594464 33.3442407,27.6621763 33.3629605,27.6740822 C33.3816803,27.6859882 33.3939502,27.705772 33.3962914,27.7278246 L33.3117881,28.9189474 C33.2943046,28.9509825 33.2447682,28.9801053 33.189404,28.9830175 Z" id="Path" fill="#25AE60"></path>
                        <path d="M29.6927152,29.122807 L29.415894,29.122807 C29.3952584,29.1301541 29.3723704,29.1274129 29.354056,29.1154007 C29.3357415,29.1033886 29.324117,29.0834936 29.322649,29.0616491 L29.4071523,27.8734386 C29.4071523,27.8414035 29.4596026,27.8093684 29.5149669,27.8064561 L29.7888742,27.8064561 C29.8442384,27.8064561 29.887947,27.8326667 29.8850331,27.867614 L29.7976159,29.0587368 C29.794702,29.0936842 29.7393377,29.122807 29.6927152,29.122807 Z" id="Path" fill="#25AE60"></path>
                        <path d="M28.3377483,6.08375439 C28.3231788,6.28470175 28.2007947,6.43614035 28.0725828,6.43031579 C27.9443709,6.42449123 27.8423841,6.25266667 27.8569536,6.04880702 C27.8715232,5.84494737 27.9909934,5.69642105 28.1221192,5.70224561 C28.253245,5.70807018 28.349404,5.88280702 28.3377483,6.08375439 Z" id="Path" fill="#263238"></path>
                        <path d="M26.0503311,5.92357895 C26.0328477,6.12452632 25.9162914,6.27887719 25.7851656,6.27305263 C25.6540397,6.26722807 25.5549669,6.09249123 25.5724503,5.88863158 C25.5899338,5.68477193 25.7035762,5.53333333 25.834702,5.53915789 C25.9658278,5.54498246 26.0736424,5.71680702 26.0503311,5.92357895 Z" id="Path" fill="#263238"></path>
                        <path d="M25.8929801,5.5537193 L25.4209272,5.39354386 C25.4209272,5.39354386 25.6423841,5.76631579 25.8929801,5.5537193 Z" id="Path" fill="#263238"></path>
                        <path d="M26.6301987,6.31382456 C26.4170373,6.76178846 26.144574,7.17907117 25.8201325,7.55445614 C26.0179801,7.71611447 26.2766986,7.78315222 26.5282119,7.73792982 L26.6301987,6.31382456 Z" id="Path" fill="#ED847E"></path>
                        <path d="M27.5597351,8.56501754 C27.4356825,8.57668665 27.3108076,8.57668665 27.186755,8.56501754 C27.1736088,8.56426748 27.1613024,8.55831716 27.1525543,8.54848109 C27.1438062,8.53864501 27.1393365,8.52573265 27.1401325,8.51259649 L27.1401325,8.51259649 C27.1431138,8.4859407 27.1657465,8.46583398 27.1925828,8.466 C27.7064004,8.51502676 28.2125462,8.31463124 28.5533775,7.92722807 C28.5589781,7.91583962 28.5689838,7.90722668 28.581083,7.90337911 C28.5931821,7.89953154 28.6063279,7.90078218 28.6174834,7.90684211 C28.6290271,7.91057001 28.6383119,7.9192393 28.6428173,7.93049667 C28.6473228,7.94175403 28.6465815,7.95443149 28.6407947,7.96508772 C28.6407947,7.96508772 28.6407947,7.96508772 28.6407947,7.96508772 C28.3735553,8.29955117 27.9850781,8.51513513 27.5597351,8.56501754 Z" id="Path" fill="#263238"></path>
                        <path d="M29.2789404,4.71498246 C29.2445009,4.71755033 29.2109148,4.70347372 29.1886093,4.67712281 C29.0049902,4.42625262 28.709831,4.28147674 28.3989404,4.28978947 C28.3436412,4.29314859 28.2957725,4.25177171 28.2911258,4.19659649 C28.2887109,4.170615 28.2969703,4.14476894 28.3140063,4.12499621 C28.3310423,4.10522347 28.3553905,4.09322394 28.381457,4.09175439 L28.381457,4.09175439 C28.7588707,4.0777322 29.118822,4.25106645 29.3430464,4.55480702 C29.3595982,4.574758 29.3673859,4.60054463 29.3646427,4.62631636 C29.3618995,4.65208809 29.3488579,4.67566007 29.3284768,4.69168421 C29.3141762,4.70347194 29.2971435,4.71148288 29.2789404,4.71498246 L29.2789404,4.71498246 Z" id="Path" fill="#263238"></path>
                        <path d="M25.2286093,4.48782456 C25.1946747,4.49660319 25.1585954,4.48786157 25.1324503,4.46452632 C25.0939214,4.42588546 25.0939214,4.3633777 25.1324503,4.32473684 L25.1324503,4.32473684 C25.3859037,4.0451653 25.7606662,3.90797427 26.1348344,3.95778947 C26.1869709,3.96530938 26.223349,4.01335363 26.2164238,4.06554386 L26.2164238,4.06554386 C26.2122709,4.09110329 26.1976649,4.11378347 26.1761075,4.12814702 C26.1545502,4.14251057 26.1279853,4.14726235 26.1027815,4.14126316 L26.1027815,4.14126316 C25.7946857,4.1071258 25.4889493,4.22306743 25.2810596,4.45287719 C25.2673333,4.46935919 25.2491113,4.48150039 25.2286093,4.48782456 Z" id="Path" fill="#263238"></path>
                        <path d="M19.5231788,79.869011 L19.5231788,79.869011 C19.453245,79.8330393 19.2463576,79.7354017 19.0103311,79.6480419 C18.6286093,79.5144327 18.165298,79.4116563 18.0254305,79.6480419 C17.9801191,79.7206277 17.9640241,79.8341651 17.9846358,79.9358156 C18.0054398,80.1269979 18.0754227,80.2902896 18.1740397,80.3777538 C18.3644018,80.5146487 18.5742397,80.5433911 18.7743046,80.4599748 C18.9913016,80.3848038 19.203935,80.2747153 19.4095364,80.1310906 C19.4489271,80.0983345 19.4869089,80.0605494 19.5231788,80.0180366 L19.5231788,80.0180366 L19.5231788,80.0180366 C19.5426736,80.006183 19.5548188,79.9719132 19.5523179,79.9358156 C19.5503074,79.9057936 19.5391171,79.8801388 19.5231788,79.869011 L19.5231788,79.869011 Z M18.2177483,80.2081728 C18.143238,80.1473942 18.0900293,80.0267477 18.0749669,79.8844274 C18.0666944,79.8408193 18.0735146,79.7927082 18.0924503,79.7610958 C18.1239096,79.7156995 18.1626191,79.6887523 18.2031788,79.6840136 L18.2031788,79.6840136 C18.5970302,79.6576138 18.9906937,79.7443943 19.3687417,79.9409544 C19.0627815,80.1567847 18.4916556,80.4599748 18.2206623,80.2081728 L18.2177483,80.2081728 Z" id="Shape" fill="#25AE60"></path>
                        <polygon id="Path" fill="#FFC3BD" points="22.7139073 80.364386 20.304106 80.5012632 19.7941722 74.461193 22.2010596 74.3214035"></polygon>
                        <polygon id="Path" fill="#FFC3BD" points="39.2678146 76.2493333 36.9308609 77.1492281 34.9231788 71.6566667 37.2601325 70.7596842"></polygon>
                        <path d="M36.8492715,76.9366316 L39.0492715,75.1717895 C39.1251354,75.1052825 39.2385732,75.1052825 39.3144371,75.1717895 L41.1968212,76.8754737 C41.3535451,77.0323694 41.3535451,77.2864727 41.1968212,77.4433684 C41.1865548,77.4554691 41.1748071,77.4662318 41.1618543,77.4754035 C40.386755,78.0782456 39.9788079,78.3287018 39.0201325,79.109193 C38.437351,79.5984561 36.9803974,80.9992632 36.144106,81.6574386 C35.3078146,82.315614 34.3811921,81.3662105 34.6871523,81.028386 C35.9605298,79.4615789 36.4646358,78.1627018 36.6336424,77.3152281 C36.6608735,77.1683846 36.7368404,77.0350037 36.8492715,76.9366316 L36.8492715,76.9366316 Z" id="Path" fill="#263238"></path>
                        <path d="M19.9923179,79.3392632 L22.9324503,78.8529123 C23.0452953,78.834854 23.1562782,78.8944889 23.2034437,78.9985263 L24.2291391,81.2205965 C24.3146461,81.4064682 24.2356314,81.6265503 24.0513907,81.7156842 C24.0182643,81.7310917 23.9828215,81.7409314 23.9464901,81.744807 C22.912053,81.9253684 22.4196026,81.9923509 21.1258278,82.2136842 C20.3274172,82.3447368 18.04,83.1048421 16.9327152,82.979614 C15.8254305,82.854386 15.746755,81.7389825 16.2071523,81.692386 C18.2643709,81.4710526 19.0919205,80.2537193 19.610596,79.5722456 C19.7034633,79.4487858 19.8400108,79.3654446 19.9923179,79.3392632 Z" id="Path" fill="#263238"></path>
                        <polygon id="Path" fill="#000000" opacity="0.2" points="19.7912583 74.4641053 20.0564238 77.5773333 22.4866225 77.6850877 22.2010596 74.3243158"></polygon>
                        <polygon id="Path" fill="#000000" opacity="0.2" points="37.5019868 71.4091228 35.1650331 72.3061053 36.2023841 75.1368421 38.5364238 74.2398596"></polygon>
                        <path d="M24.0135099,29.0965965 C24.0135099,29.0965965 18.0982781,42.2659298 17.8447682,53.2306667 C17.6757616,60.5754386 18.9403974,75.8037544 18.9403974,75.8037544 L23.1859603,76.6978246 C23.1859603,76.6978246 23.413245,61.0938246 23.9552318,55.0683158 C24.8847682,44.7559298 31.4964238,28.8315789 31.4964238,28.8315789 L24.0135099,29.0965965 Z" id="Path" fill="#25AE60"></path>
                        <path d="M24.0135099,29.0965965 C24.0135099,29.0965965 18.0982781,42.2659298 17.8447682,53.2306667 C17.6757616,60.5754386 18.9403974,75.8037544 18.9403974,75.8037544 L23.1859603,76.6978246 C23.1859603,76.6978246 23.413245,61.0938246 23.9552318,55.0683158 C24.8847682,44.7559298 31.4964238,28.8315789 31.4964238,28.8315789 L24.0135099,29.0965965 Z" id="Path" fill="#FFFFFF" opacity="0.4"></path>
                        <path d="M27.6384106,33.9688421 L28.4309934,36.9859649 C27.1230293,40.7369402 26.0036609,44.5509712 25.0770861,48.4137544 C24.1562914,42.6765614 26.5369536,36.5432982 27.6384106,33.9688421 Z" id="Path" fill="#000000" opacity="0.2"></path>
                        <polygon id="Path" fill="#25AE60" points="18.1478146 76.4881404 23.538543 76.9016842 23.6143046 74.8514386 17.946755 74.6184561"></polygon>
                        <path d="M26.2455629,29.0412632 C26.2455629,29.0412632 25.0392053,44.0162105 27.2537748,53.6005263 C29.0429139,61.3413684 35.450596,73.9602807 35.450596,73.9602807 L38.3645033,72.0993333 C38.3645033,72.0993333 36.08,62.2470877 34.6201325,57.0399298 C31.0389404,44.2666667 37.4903311,36.9917895 34.2121854,28.7209123 L26.2455629,29.0412632 Z" id="Path" fill="#25AE60"></path>
                        <path d="M26.2455629,29.0412632 C26.2455629,29.0412632 25.0392053,44.0162105 27.2537748,53.6005263 C29.0429139,61.3413684 35.450596,73.9602807 35.450596,73.9602807 L38.3645033,72.0993333 C38.3645033,72.0993333 36.08,62.2470877 34.6201325,57.0399298 C31.0389404,44.2666667 37.4903311,36.9917895 34.2121854,28.7209123 L26.2455629,29.0412632 Z" id="Path" fill="#FFFFFF" opacity="0.4"></path>
                        <polygon id="Path" fill="#25AE60" points="34.8882119 74.4670175 38.9764238 72.9963158 38.6180132 71.2897193 34.0781457 73.0778596"></polygon>
                        <path d="M36.8492715,77.2744561 L36.8492715,77.2744561 L36.834702,77.2744561 L36.802649,77.2744561 L36.6307285,77.335159 C36.5549669,77.3671079 36.4617219,77.4022517 36.3655629,77.4469801 L36.3655629,77.4469801 C36.0974834,77.5715807 35.8060927,77.7441047 35.7565563,77.9294082 C35.7392917,78.0039301 35.7592387,78.0829069 35.8090066,78.1370759 C35.8588322,78.2047999 35.9273299,78.2530002 36.0042384,78.2744561 L36.0945695,78.2744561 C36.2467339,78.2334522 36.3814698,78.1364703 36.4762914,77.9996958 L36.4762914,77.9996958 C36.6247159,77.8111241 36.7509982,77.6028983 36.8521854,77.3798875 C36.852848,77.3724504 36.852848,77.3649603 36.8521854,77.3575232 C36.8535615,77.3523053 36.8535615,77.3467667 36.8521854,77.3415488 C36.8606118,77.3326074 36.8651215,77.3201227 36.8645637,77.3072801 C36.8640059,77.2944375 36.8584347,77.2824791 36.8492715,77.2744561 Z M36.709404,77.4150312 L36.709404,77.4150312 C36.6592621,77.5184998 36.6038089,77.6187673 36.5433113,77.7153507 C36.4438162,77.9190357 36.2817388,78.0774997 36.0858278,78.1626351 C36.0039231,78.1699313 35.9244527,78.1299951 35.8760265,78.0572037 C35.8505992,78.0311094 35.8395358,77.9922928 35.8468874,77.9549673 C35.8935099,77.7760536 36.301457,77.5747756 36.6015894,77.4565648 L36.709404,77.4150312 C36.709404,77.4150312 36.709404,77.4150312 36.709404,77.4150312 L36.709404,77.4150312 Z" id="Shape" fill="#25AE60"></path>
                        <path d="M36.8434437,77.5752781 L36.8288742,77.5752781 C36.783286,77.50519 36.7345708,77.4413871 36.6831788,77.3844593 C36.4657895,77.0682799 36.1949462,76.8815818 35.9109934,76.8521754 C35.8233562,76.8729694 35.7449702,76.9569397 35.6953642,77.0831666 C35.6369421,77.2095139 35.6369421,77.3886722 35.6953642,77.5150195 C35.7873628,77.66859 35.9061564,77.7656543 36.0333775,77.7912046 C36.1418995,77.8272171 36.252134,77.8457095 36.362649,77.8464416 L36.362649,77.8464416 C36.4441781,77.8540867 36.5258881,77.8540867 36.6074172,77.8464416 C36.6831788,77.8464416 36.7589404,77.7962261 36.8317881,77.7660968 L36.8492715,77.7660968 C36.8499341,77.7544077 36.8499341,77.7426351 36.8492715,77.730946 C36.8506476,77.7227448 36.8506476,77.7140395 36.8492715,77.7058383 C36.8597659,77.6881796 36.8651797,77.6634142 36.8640548,77.6382122 C36.8629298,77.6130102 36.8553819,77.5899631 36.8434437,77.5752781 Z M35.7711258,77.3945024 C35.7565563,77.3593516 35.733245,77.2940715 35.7711258,77.1685328 C35.8040822,77.0791181 35.8586794,77.0200827 35.9197351,77.0078434 C35.9652046,76.9979176 36.0112192,76.9979176 36.0566887,77.0078434 C36.2668629,77.1135974 36.4642721,77.2836953 36.6394702,77.509998 L36.7006623,77.5903427 C36.6754286,77.5928045 36.6501343,77.5928045 36.6249007,77.5903427 C36.3335099,77.7008167 35.8847682,77.6355366 35.7711258,77.4095671 L35.7711258,77.3945024 Z" id="Shape" fill="#25AE60"></path>
                        <path d="M19.5843709,79.7648595 C19.5733715,79.7353496 19.5607238,79.7065096 19.5464901,79.6784817 C19.4270199,79.4223269 19.0540397,78.701519 18.5761589,78.8504462 C18.4362914,78.8921459 18.4013245,78.9725666 18.4042384,79.0321375 C18.4042384,79.2019146 18.6956291,79.4312625 18.9870199,79.6010396 C19.1074387,79.6696522 19.2320186,79.7303393 19.36,79.7827308 L19.4386755,79.8095377 L19.5086093,79.8303875 L19.5319205,79.8303875 L19.5668874,79.8125163 C19.5793951,79.8001032 19.5858096,79.7826185 19.5843709,79.7648595 L19.5843709,79.7648595 Z M18.5062252,79.0291589 C18.5062252,79.0291589 18.5062252,78.9785237 18.5994702,78.9517168 L18.6431788,78.9517168 C19.013245,78.8951244 19.327947,79.4848763 19.4415894,79.7201814 C19.0627815,79.5772112 18.512053,79.2227644 18.5062252,79.0291589 L18.5062252,79.0291589 Z" id="Shape" fill="#25AE60"></path>
                        <path d="M28.1803974,5.71389474 L27.7054305,5.55080702 C27.7054305,5.55080702 27.9268874,5.93814035 28.1803974,5.71389474 Z" id="Path" fill="#263238"></path>
                    </g>
                </g>
                <g id="freepik--Graphics--inject-2" transform="translate(14.000000, 0.000000)" fill="#25AE60" fill-rule="nonzero">
                    <polygon id="Path" points="7.4460793 0.055505618 7.63797357 2.2611236 2.52660793 2.2611236 2.97436123 7.39685393 0.779207048 7.39685393 0.139559471 0.055505618"></polygon>
                    <polygon id="Path" points="14.0780617 77.9561798 13.8861674 75.7505618 8.77480176 75.7505618 8.32704846 70.6119101 6.13189427 70.6119101 6.77154185 77.9561798"></polygon>
                    <polygon id="Path" points="58.5306608 77.9561798 58.3387665 75.7505618 63.4501322 75.7505618 63.0023789 70.6148315 65.197533 70.6148315 65.8371806 77.9561798"></polygon>
                    <polygon id="Path" points="51.605022 0.233707865 51.7969163 2.43932584 56.9111894 2.43932584 57.3589427 7.57797753 59.5511894 7.57797753 58.9144493 0.233707865"></polygon>
                </g>
                <g id="freepik--Fingerprint--inject-2" transform="translate(24.000000, 3.000000)" fill="#25AE60" fill-rule="nonzero">
                    <path d="M31.1268293,4.66396761 L31.8526829,4.7951417 L31.2526829,4.3345749 C31.0946341,4.21214575 30.9307317,4.0897166 30.7697561,3.97311741 L30.7317073,3.94396761 L30.684878,3.94396761 C26.9765854,3.20647773 22.4634146,1.9151417 17.2682927,0.0582995951 L17.2243902,0.0408097166 L17.177561,0.0408097166 C17.004878,0.0641295547 16.8321951,0.0932793522 16.662439,0.12534413 L16.0126829,0.250688259 L16.662439,0.486801619 C22.3229268,2.53894737 27.1902439,3.93813765 31.1268293,4.66396761 Z" id="Path"></path>
                    <path d="M33.7990244,7.01635628 L34.3843902,7.15336032 L33.9512195,6.70445344 C33.84,6.58785425 33.7258537,6.47708502 33.6087805,6.36340081 L33.5678049,6.32550607 L33.5121951,6.32550607 C28.337561,5.10121457 21.7873171,3.30558704 14.0517073,0.994008097 L13.9814634,0.973603239 L13.92,0.999838057 L13.5834146,1.16016194 L13.164878,1.36712551 L13.6390244,1.50995951 C21.7229268,3.92064777 28.5043902,5.77748988 33.7990244,7.01635628 Z" id="Path"></path>
                    <path d="M36.257561,9.81765182 L36.8429268,10.0217004 L36.4653659,9.53489879 C36.4097561,9.46202429 36.3512195,9.39206478 36.2956098,9.32210526 L36.2195122,9.22882591 L36.2195122,9.15595142 L36.0907317,9.10931174 C31.6156098,7.53522267 23.7395122,5.10121457 11.6195122,2.4340081 L11.537561,2.41651822 L11.4731707,2.46315789 C11.3853659,2.52728745 11.297561,2.58850202 11.2097561,2.65846154 L10.8965854,2.90331984 L11.3092683,2.99368421 C23.7073171,5.71919028 31.7268293,8.208583 36.257561,9.81765182 Z" id="Path"></path>
                    <path d="M38.5229268,13.0649393 L39.1082927,13.3564372 L38.7541463,12.8025911 L38.4995122,12.4032389 L38.4673171,12.3536842 L38.4146341,12.3303644 C33.0263415,9.62526316 23.64,6.02234818 9.51804878,4.20340081 L9.4302439,4.20340081 L9.37170732,4.2617004 L9.14341463,4.48906883 L8.88585366,4.76016194 L9.28097561,4.8097166 C23.6663415,6.63157895 33.1229268,10.3044534 38.5229268,13.0649393 Z" id="Path"></path>
                    <path d="M34.7180488,13.2340081 L34.7180488,13.2340081 C36.72168,14.2160607 38.6567726,15.3311242 40.5102439,16.5716599 L41.0956098,16.9564372 L40.7882927,16.3472065 C40.7268293,16.2247773 40.662439,16.1081781 40.6009756,15.988664 L40.5717073,15.9361943 L40.5717073,15.8749798 L40.4868293,15.8195951 C38.7205865,14.6617654 36.8838841,13.6142451 34.9873171,12.6830769 C29.4263415,9.93716599 20.1717073,6.59076923 7.69170732,6.22639676 L7.60097561,6.22639676 L7.54829268,6.2934413 L7.35512195,6.53538462 L7.10341463,6.82688259 L7.51609756,6.82688259 C19.955122,7.16793522 29.1746341,10.4939271 34.7180488,13.2340081 Z" id="Path"></path>
                    <path d="M8.75121951,11.9893117 L8.93853659,12.0068016 L8.93853659,11.382996 L8.74829268,11.3655061 C7.22750827,11.2455271 5.69731537,11.3845205 4.22341463,11.7765182 L4.14731707,11.7969231 L4.11512195,11.8697976 C4.06829268,11.9689069 4.02439024,12.0680162 3.9804878,12.1612955 L3.8195122,12.5431579 L4.22341463,12.4265587 C5.69444176,12.0131427 7.22784747,11.8650628 8.75121951,11.9893117 L8.75121951,11.9893117 Z" id="Path"></path>
                    <path d="M34.9258537,15.2803239 C37.4865065,16.696462 39.9190331,18.3310872 42.1960976,20.16583 L42.7317073,20.6089069 L42.4712195,19.9705263 C42.4068293,19.8102024 42.3365854,19.6527935 42.2663415,19.4982996 L42.2458537,19.4516599 L42.204878,19.4166802 C31.9773812,11.3197436 19.0438275,7.39380913 6.0204878,8.43303644 L5.93268293,8.43303644 L5.88878049,8.50299595 C5.83317073,8.58753036 5.7804878,8.67497976 5.72780488,8.76242915 L5.88585366,8.87902834 L5.88585366,8.87902834 L5.72195122,8.77408907 L5.52292683,9.1005668 L5.91804878,9.06850202 C15.9925175,8.2183928 26.092563,10.3812481 34.9258537,15.2803239 L34.9258537,15.2803239 Z" id="Path"></path>
                    <path d="M15.4185366,10.7854251 C22.1297561,11.522915 32.3941463,14.1493117 43.1385366,22.4715789 L43.6390244,22.8592713 L43.422439,22.2762753 C43.3843902,22.171336 43.3434146,22.0663968 43.302439,21.9585425 L43.2673171,21.8681781 L43.2673171,21.8040486 L43.1941463,21.748664 C32.4117073,13.5080162 22.1443902,10.8991093 15.4273171,10.1616194 C11.9673254,9.7734844 8.47386886,9.78522231 5.01658537,10.1965992 L4.92878049,10.1965992 L4.57170732,10.8816194 L4.95512195,10.8320648 C8.42890535,10.4060744 11.9410639,10.3904193 15.4185366,10.7854251 Z" id="Path"></path>
                    <path d="M3.20195122,34.9593522 L2.61658537,34.7144939 L2.55512195,34.8835628 C1.67127392,37.7318622 1.07802977,40.661659 0.784390244,43.628502 L0.784390244,43.6576518 L0.784390244,43.6868016 C0.84,43.9491498 0.901463415,44.211498 0.965853659,44.4738462 L1.24097561,45.6106883 L1.33756098,44.4767611 C1.59663618,41.3040723 2.20416779,38.1692326 3.14926829,35.1284211 L3.20195122,34.9593522 Z" id="Path"></path>
                    <path d="M2.21853659,24.3838057 L2.21853659,24.194332 L1.58634146,24.1564372 L1.58634146,24.3459109 C1.69463415,28.2782186 1.24390244,33.0529555 0.122926829,39.8302834 L0.122926829,39.885668 C0.15804878,40.177166 0.19902439,40.468664 0.242926829,40.7426721 L0.421463415,41.9290688 L0.614634146,40.7630769 C1.83512195,33.551417 2.34146341,28.4968421 2.21853659,24.3838057 Z" id="Path"></path>
                    <polygon id="Path" points="3.93658537 32.974251 4.74731707 30.4440486 4.14146341 30.2108502 3.33658537 32.7410526"></polygon>
                    <path d="M2.31804878,22.7368421 C2.48769639,21.5327586 3.03109493,20.4116317 3.87219512,19.5303644 L4.0097561,19.4050202 L3.55317073,18.9473684 L3.42439024,19.0668826 C2.48052332,20.0342458 1.87319675,21.2776986 1.69170732,22.614413 L1.67121951,22.7951417 L2.29756098,22.9263158 L2.31804878,22.7368421 Z" id="Path"></path>
                    <path d="M2.56682927,27.8846964 L3.19902439,27.9604858 L3.19902439,27.7739271 C3.25756098,26.0744939 4.95512195,23.6929555 5.04,23.5996761 L5.14536585,23.4539271 L4.62731707,23.0633198 L4.51902439,23.2061538 C4.44878049,23.3198381 2.63414634,25.7567611 2.57268293,27.6923077 L2.56682927,27.8846964 Z" id="Path"></path>
                    <path d="M6.25170732,24.8880972 L6.38634146,24.7598381 L5.90634146,24.2992713 L5.7804878,24.4333603 C5.55512195,24.6753036 3.54731707,26.9140081 2.48195122,31.4992713 L2.44097561,31.677085 L3.05853659,31.8665587 L3.0995122,31.6887449 C4.17658537,27.0510121 6.23414634,24.908502 6.25170732,24.8880972 Z" id="Path"></path>
                    <polygon id="Path" points="6.61463415 27.2638057 6.0702439 26.9023482 4.69463415 29.1323077 5.24195122 29.4937652"></polygon>
                    <path d="M6.96585366,19.585749 L7.13853659,19.5332794 L6.90439024,18.9327935 L6.72878049,18.9881781 C6.59414634,19.0319028 3.44487805,20.0579757 2.57268293,23.2994332 L2.52585366,23.477247 L3.13463415,23.6842105 L3.18146341,23.5093117 C3.97756098,20.5593522 6.84292683,19.6265587 6.96585366,19.585749 Z" id="Path"></path>
                    <path d="M7.90243902,15.4872874 L8.0897561,15.4610526 L7.9404878,14.8430769 L7.75902439,14.8693117 C4.77658537,15.3007287 3.07609756,16.3705263 2.1804878,17.2012955 L2.11902439,17.2625101 L2.11902439,17.3149798 L1.75609756,18.6034008 L2.31219512,18.002915 C2.98536585,17.2654251 4.62146341,15.9624291 7.90243902,15.4872874 Z" id="Path"></path>
                    <path d="M16.3053659,13.1174089 C22.9990244,13.3768421 33.2429268,15.6505263 44.0487805,25.0134413 L44.555122,25.4506883 L44.3443902,24.8297976 C44.2946341,24.6869636 44.2478049,24.5382996 44.195122,24.4042105 L44.195122,24.342996 L44.1278049,24.2876113 C33.2692683,15.0034008 22.9814634,12.7501215 16.2643902,12.4936032 C9.37756098,12.2283401 4.47512195,13.9219433 3.13756098,14.4466397 L3.0702439,14.4728745 L3.04390244,14.539919 C3.00878049,14.6273684 2.97658537,14.7177328 2.94731707,14.8051822 L2.77463415,15.2890688 L3.18731707,15.12 C4.09756098,14.7206478 9.07317073,12.8259109 16.3053659,13.1174089 Z" id="Path"></path>
                    <path d="M17.1014634,14.7906073 C9.45365854,15.0821053 4.30243902,18.1661538 4.08292683,18.288583 L3.92487805,18.3818623 L4.29658537,18.9182186 L4.45170732,18.8249393 C4.66243902,18.6966802 9.70243902,15.6796761 17.1892683,15.402753 C23.8302439,15.1520648 34.0243902,17.0555466 44.8653659,27.5436437 L45.3629268,28.0246154 L45.1726829,27.3745749 C45.1258537,27.217166 45.0760976,27.0597571 45.0263415,26.9052632 L45.0117073,26.8527935 L44.9707317,26.8148988 C34.062439,16.4259109 23.795122,14.542834 17.1014634,14.7906073 Z" id="Path"></path>
                    <path d="M31.2614634,18.9823482 C27.0535129,17.236666 22.467565,16.5904899 17.9385366,17.1051012 C10.3580488,18 5.4,22.0051822 5.35317073,22.0459919 L5.21853659,22.1596761 L5.64,22.6523077 L5.77756098,22.5386235 C9.39221652,19.9102591 13.6258564,18.2537771 18.0702439,17.7289069 C24.6380488,16.9506073 34.7531707,18.4751417 45.582439,30.1263158 L46.0829268,30.6626721 L45.8985366,29.9718219 C45.8517073,29.802753 45.8078049,29.6365992 45.7609756,29.4704453 L45.7609756,29.4208907 L45.7258537,29.3859109 C41.1014634,24.48583 36.2341463,20.9878543 31.2614634,18.9823482 Z" id="Path"></path>
                    <path d="M25.1707317,19.0639676 C14.3414634,18.0845344 6.73170732,25.7042915 6.6497561,25.7684211 L6.52097561,25.8966802 L6.99512195,26.348502 L7.12097561,26.2231579 C7.19414634,26.1473684 14.6341463,18.717085 25.1678049,19.6731984 C32.4380488,20.3319838 39.5297561,24.7102834 46.2409756,32.685668 L46.7502439,33.2890688 L46.5658537,32.542834 C46.524878,32.3737652 46.4839024,32.2105263 46.4458537,32.0414575 L46.4458537,31.9889879 L46.404878,31.9394332 C39.6409756,24.0689879 32.4878049,19.731498 25.1707317,19.0639676 Z" id="Path"></path>
                    <path d="M7.02439024,30.8084211 C12.2458537,23.3489879 22.7736585,18.4547368 34.5365854,24.337166 C40.6507317,27.3949798 43.2087805,31.0270445 46.1707317,35.2304453 C46.4517073,35.6288259 46.7385366,36.0330364 47.0312195,36.4430769 L47.5112195,37.1135223 L47.3678049,36.3264777 C47.3326829,36.137004 47.3004878,35.9504453 47.2653659,35.7813765 L47.2653659,35.7259919 L47.2331707,35.6822672 C47.0458537,35.419919 46.8614634,35.1604858 46.68,34.8981377 C43.6595122,30.6189474 41.0517073,26.922753 34.7853659,23.7833198 C22.6946341,17.7318219 11.8712195,22.757247 6.50634146,30.4207287 C1.60682927,37.4166802 1.95512195,45.4765992 2.60195122,49.6595951 L2.60195122,49.7004049 C2.75414634,50.0997571 2.89463415,50.4991093 3.06439024,50.8897166 L3.42439024,50.8139271 C1.97560976,43.4331984 3.2897561,36.145749 7.02439024,30.8084211 Z" id="Path"></path>
                    <path d="M32.675122,50.8459919 C31.5658537,48.0009717 31.0390244,47.7007287 30.6263415,47.7998381 C29.6019512,48.0446964 30.5502439,51.7554656 30.5590244,51.7933603 C31.0858537,53.8017814 39.4214634,58.4103644 42.9804878,60.2963563 L43.1414634,60.3838057 L43.4341463,59.8532794 L43.2526829,59.757085 C37.6507317,56.7808907 31.5453659,53.0963563 31.164878,51.6855061 C30.7492683,50.0997571 30.737561,48.8550607 30.8253659,48.4790283 C30.9863415,48.6568421 31.3785366,49.2310931 32.075122,51.0179757 C33.7346341,55.2767611 40.1326829,57.7544939 43.8,58.8505263 L43.9434146,58.894251 L44.0107317,58.7689069 L44.1307317,58.5327935 L44.2302439,58.3287449 L43.9990244,58.2587854 C40.4370732,57.1831579 34.2087805,54.7812146 32.675122,50.8459919 Z" id="Path"></path>
                    <path d="M33.5268293,49.8461538 C32.4029268,47.2634818 31.5190244,46.1295547 30.6643902,46.1849393 C29.8097561,46.2403239 29.2009756,47.4908502 28.7795122,50.2892308 C28.1941463,54.0437247 38.844878,59.9873684 42.1229268,61.7217814 L42.2692683,61.8004858 L42.3570732,61.6722267 C42.4068293,61.6022672 42.4507317,61.5293927 42.4946341,61.4594332 L42.6,61.2903644 L42.4097561,61.1883401 C35.8565854,57.7165992 28.9990244,53.0526316 29.4029268,50.4291498 C29.9034146,47.1876923 30.5121951,46.8116599 30.7639024,46.8 C30.9453659,46.8 31.6419512,47.0331984 32.9502439,50.0385425 C34.2585366,53.0438866 38.0839024,55.7023482 44.3092683,57.8244534 L44.4673171,57.8798381 L44.5287805,57.737004 C44.5463415,57.6991093 44.5639024,57.6641296 44.5785366,57.6291498 C44.5931707,57.59417 44.6165854,57.5533603 44.6341463,57.5125506 L44.7190244,57.3201619 L44.5053659,57.2502024 C38.537561,55.2242915 34.7414634,52.6620243 33.5268293,49.8461538 Z" id="Path"></path>
                    <path d="M34.3785366,48.8404858 C32.9590244,45.8788664 31.6507317,44.4330364 30.3629268,44.4213077 C29.075122,44.4097166 27.9863415,45.8788664 27.0058537,48.8608907 C25.2263415,54.2769231 37.3990244,61.1329555 41.1717073,63.1034818 L41.315122,63.1792713 L41.6780488,62.6837247 L41.4702439,62.5758704 C38.8653659,61.20583 25.9580488,54.1224291 27.6058537,49.099919 C28.4839024,46.4472874 29.4497561,45.0451822 30.4273171,45.0451822 C31.404878,45.0451822 32.555122,46.4502024 33.8107317,49.0707692 C35.2039024,51.985749 38.7863415,54.5013765 44.76,56.7925506 L44.915122,56.8537652 L44.9853659,56.7138462 C45.0237317,56.63603 45.0579261,56.5562418 45.0878049,56.4748178 L45.1580488,56.2940891 L44.964878,56.2212146 C39.1492683,53.9912551 35.6868293,51.5747368 34.3785366,48.8404858 Z" id="Path"></path>
                    <path d="M35.2273171,47.8406478 C33.4009756,44.3863968 31.6068293,42.5936842 29.8946341,42.5587045 C28.182439,42.5237247 26.6341463,44.1619433 25.2292683,47.4587854 C23.8243902,50.7556275 26.0692683,54.7782996 31.697561,59.1187045 C34.3597525,61.1200788 37.1818435,62.9012394 40.1356098,64.4443725 L40.2731707,64.514332 L40.3609756,64.4064777 L40.5219512,64.2140891 L40.662439,64.0362753 L40.4458537,63.9255061 C37.5043902,62.3951417 22.9785366,54.431417 25.8117073,47.7502834 C27.1112195,44.6866397 28.4956098,43.1533603 29.9297561,43.1912551 C31.3639024,43.2291498 32.9765854,44.8906883 34.6741463,48.097166 C36.6058537,51.7496356 41.5960976,54.2186235 45.1843902,55.7489879 L45.36,55.8247773 L45.4536585,55.582834 C45.4712195,55.5303644 45.4917073,55.4808097 45.5092683,55.4283401 L45.5707317,55.2592713 L45.3921951,55.1834818 C41.9034146,53.6822672 37.0565854,51.3036437 35.2273171,47.8406478 Z" id="Path"></path>
                    <path d="M36.0760976,46.8378947 C33.6878049,42.7306883 31.4692683,40.7164372 29.2917073,40.6348178 C27.1843902,40.5736032 25.2263415,42.4012955 23.4380488,46.0683401 C22.56,47.8989474 22.5043902,49.8840486 23.3092683,51.9624291 C25.9053659,58.6814575 36.8312195,64.6046964 38.9941463,65.7240486 L39.1229268,65.7881781 L39.2136585,65.6948988 L39.3863415,65.5083401 L39.5473171,65.3305263 L39.3160976,65.2110121 C37.182439,64.1120648 26.4146341,58.2995951 23.8946341,51.7817004 C23.1570732,49.8753036 23.195122,48.0563563 24.0117073,46.3773279 C25.6595122,42.9813765 27.4185366,41.2615385 29.244878,41.2615385 L29.3180488,41.2615385 C31.2409756,41.3198381 33.2721951,43.2320648 35.5287805,47.1119028 C37.5073171,50.5165992 41.9297561,52.9418623 45.5619512,54.6733603 L45.7434146,54.7578947 L45.8107317,54.582996 C45.84,54.5072065 45.8663415,54.428502 45.8926829,54.3497976 L45.9482927,54.1865587 L45.7814634,54.1078543 C42.2517073,52.417166 37.9492683,50.0647773 36.0760976,46.8378947 Z" id="Path"></path>
                    <path d="M36.924878,45.8351417 C34.8292683,42.5587045 31.9814634,38.7692308 28.6039024,38.6759514 L28.5014634,38.6759514 C26.0663415,38.6759514 23.7658537,40.6960324 21.6643902,44.6837247 C20.4409756,47.0157085 20.3063415,49.4905263 21.2634146,52.0615385 C24.0497561,59.5588664 35.4965854,65.7823482 37.7619512,66.95417 L37.8819512,67.0153846 L37.9726829,66.9337652 C38.0370732,66.8754656 38.1014634,66.817166 38.1629268,66.7559514 L38.3502439,66.5781377 L38.1014634,66.4498785 C35.8653659,65.2955466 24.5853659,59.2178138 21.8517073,51.8866397 C20.9736585,49.4905263 21.0878049,47.1760324 22.2321951,45.0072874 C24.2546341,41.1624291 26.4117073,39.2327126 28.6478049,39.2968421 C31.697561,39.3697166 34.3931707,42.9872065 36.4009756,46.1324696 C38.4497561,49.3389474 42.3629268,51.6884211 45.9307317,53.574413 L46.1239024,53.6764372 L46.1882927,53.4840486 C46.2146341,53.4024291 46.2380488,53.3208097 46.2614634,53.2421053 L46.2995122,53.0934413 L46.1560976,53.0147368 C42.6790244,51.1724696 38.8653659,48.8754656 36.924878,45.8351417 Z" id="Path"></path>
                    <path d="M37.7707317,44.8265587 L37.7209756,44.7565992 C35.622439,41.757085 32.1102439,36.7345749 27.8458537,36.6850202 L27.7873171,36.6850202 C24.9804878,36.6850202 22.32,38.9091498 19.884878,43.2961943 C18.3162696,45.9989035 18.0549792,49.2619834 19.1736585,52.1781377 C22.0360976,60.1243725 33.0790244,66.388664 36.395122,68.1201619 L36.5063415,68.1784615 L36.617561,68.0910121 C36.6819512,68.0414575 36.7463415,67.9919028 36.8078049,67.9394332 L37.0156098,67.7616194 L36.755122,67.6275304 C34.4136585,66.4178138 22.6360976,59.9873684 19.7619512,52.0148988 C18.7113867,49.2637865 18.9607928,46.1877392 20.4409756,43.6401619 C22.782439,39.4134413 25.2995122,37.2825911 27.8956098,37.3175709 C31.817561,37.3642105 35.1980488,42.2030769 37.2146341,45.0918219 L37.2643902,45.1617814 C39.3892683,48.2021053 43.1882927,50.6594332 46.2585366,52.4492308 L46.4634146,52.5716599 L46.6331707,51.9711741 L46.4956098,51.8924696 C43.5073171,50.1376518 39.804878,47.7502834 37.7707317,44.8265587 Z" id="Path"></path>
                    <path d="M38.6341463,43.8296356 C38.5287805,43.6926316 38.417561,43.5381377 38.3034146,43.3894737 L38.0253659,43.0251012 C35.6839024,39.9148178 31.7941463,34.708664 27.0907317,34.697004 C23.915122,34.697004 20.897561,37.1251822 18.1141463,41.9144939 C16.1765854,45.2550607 15.8341463,48.7559514 17.0956098,52.3209717 C20.0926829,60.8006478 31.4721951,67.3826721 34.8878049,69.1987045 L34.9902439,69.2511741 L35.5756098,68.8693117 L35.2829268,68.7177328 C31.8995122,66.9395951 20.6487805,60.4887449 17.6956098,52.1635628 C16.4985366,48.7763563 16.817561,45.4591093 18.6731707,42.2526316 C21.3453659,37.6469636 24.1990244,35.3149798 27.1609756,35.3149798 C31.5131707,35.3149798 35.2829268,40.3549798 37.5365854,43.3603239 C37.7531707,43.6518219 37.9580488,43.922915 38.1482927,44.1706883 C40.3756098,47.085668 43.8204878,49.4992713 46.5717073,51.2774089 L46.7882927,51.4173279 L46.8497561,51.1841296 L46.9112195,50.9334413 L46.937561,50.8022672 L46.817561,50.7235628 C44.1278049,49.0008097 40.7795122,46.6396761 38.6341463,43.8296356 Z" id="Path"></path>
                    <path d="M40.5863415,43.20583 C34.9931707,34.8748178 30,33.0937652 26.7921951,33.0674629 C22.9873171,33.0529555 19.6741463,35.3995142 17.4263415,39.742834 C14.7921951,44.8615385 14.435122,49.8869636 16.3960976,54.6762753 C19.7882927,62.9548178 29.2009756,68.3008907 33.0790244,70.2131174 L33.1639024,70.2539271 L33.2429268,70.2189474 C33.3395122,70.1752227 33.4331707,70.125668 33.5356098,70.0761134 L33.8487805,69.9099595 L33.5063415,69.7408907 C30.497561,68.2834008 20.4146341,62.8644534 16.9814634,54.4838866 C15.0907317,49.8753036 15.4331707,45.0218623 17.9941463,40.0634818 C20.1160976,35.9562753 23.2331707,33.694251 26.7746341,33.694251 L26.8390244,33.694251 C29.8829268,33.7175709 34.644878,35.4432389 40.0712195,43.5206478 C41.7336585,45.9983806 44.7073171,48.24 46.9082927,49.682915 L47.1365854,49.8315789 L47.1921951,49.5575709 C47.2097561,49.4788664 47.2243902,49.4001619 47.2390244,49.3243725 L47.262439,49.1990283 L47.1482927,49.1232389 C45.0321951,47.7269636 42.1726829,45.5640486 40.5863415,43.20583 Z" id="Path"></path>
                    <path d="M41.3502439,41.8707692 C39.0497561,38.4777328 36.8195122,36.0757895 34.3258537,34.3122267 C30.9717073,31.9365182 27.5326829,30.9891498 24.3746341,31.5663158 C20.9443902,32.1988664 17.9356098,34.6299595 15.8634146,38.4106883 C11.3004878,46.7708502 13.6565854,53.7697166 16.4487805,58.1655061 C20.7541463,65.0361134 28.644878,69.2774089 31.8380488,70.7815385 L31.9170732,70.8165182 L31.9902439,70.7873684 C32.0956098,70.7465587 32.195122,70.705749 32.2829268,70.6591093 L32.6487805,70.4958704 L32.262439,70.3180567 C29.0868293,68.8605668 21.2370732,64.6921457 16.9580488,57.8710931 C14.2712195,53.6210526 11.982439,46.8524696 16.4195122,38.742996 C18.4009756,35.1109312 21.2839024,32.7818623 24.5385366,32.1813765 C27.5121951,31.6333603 30.7785366,32.542834 33.9804878,34.8048583 C36.395122,36.5130364 38.5697561,38.8566802 40.8234146,42.1797571 C42.1229268,44.0978138 44.244878,46.1528745 47.1307317,48.3012146 L47.3678049,48.4761134 L47.4204878,48.2050202 C47.4409756,48.1146559 47.4556098,48.0242915 47.4673171,47.9310121 L47.484878,47.814413 L47.3853659,47.7415385 C44.6253659,45.6748178 42.5882927,43.7013765 41.3502439,41.8707692 Z" id="Path"></path>
                    <path d="M42.1141463,40.5386235 C39.5531707,36.7928745 37.2439024,34.417166 34.3990244,32.5544939 C30.72,30.1612955 26.9590244,29.2518219 23.5170732,29.9310121 C19.8029268,30.6568421 16.5336585,33.1957895 14.3092683,37.0756275 C10.5043902,43.7013765 10.5804878,51.3182186 14.4878049,57.9760324 C18.8165854,65.3480162 27.0731707,69.7292308 30.4068293,71.2712551 L30.4741463,71.3004049 L30.5385366,71.282915 C30.6497561,71.2537652 30.7580488,71.2187854 30.8663415,71.1838057 L31.3434146,71.0293117 L30.8897561,70.8252632 C27.5531707,69.3182186 19.3287805,65.0215385 15.0292683,57.7078543 C12.8019512,53.9183806 9.8195122,46.2344939 14.8653659,37.4283401 C17.0078049,33.691336 20.1336585,31.248583 23.6897561,30.5519028 C26.9678049,29.9076923 30.5619512,30.7821862 34.0858537,33.0762753 C36.8517073,34.8777328 39.0995122,37.2068016 41.6019512,40.8651012 C42.8663415,42.7161134 44.7980488,44.7157895 47.3443902,46.8145749 L47.5990244,47.0244534 L47.6429268,46.7154656 C47.657561,46.6192713 47.6692683,46.5230769 47.6780488,46.4239676 L47.6780488,46.3219433 L47.5931707,46.2519838 C45.1726829,44.2289879 43.3170732,42.3080162 42.1141463,40.5386235 Z" id="Path"></path>
                    <path d="M42.8780488,39.2035628 C40.8439024,36.2536032 38.4146341,33.1928745 34.4692683,30.7967611 C24.324878,24.6344939 16.4282927,29.6103644 12.7492683,35.7522267 C8.71609756,42.47417 8.65170732,50.7119028 12.5326829,57.7923887 C16.6478049,65.2780567 24.4360976,69.691336 28.7121951,71.6589474 L28.7678049,71.6851822 L28.8263415,71.6851822 C28.9668293,71.6618623 29.1190244,71.6385425 29.2478049,71.6093927 L29.8068293,71.5015385 L29.262439,71.2566802 C24.977561,69.3298785 17.1746341,64.9894737 13.08,57.5562753 C9.29268293,50.6769231 9.37463415,42.6665587 13.2965854,36.1311741 C16.835122,30.2283401 24.4185366,25.4331984 34.1765854,31.3535223 C38.0019512,33.6855061 40.3756098,36.6704453 42.3717073,39.5562753 C43.8591006,41.6173239 45.5753308,43.5045745 47.4878049,45.1821862 L47.7658537,45.4357895 L47.7980488,45.0830769 C47.7980488,44.9810526 47.8126829,44.8790283 47.8185366,44.7915789 L47.6312195,44.7595142 L47.6312195,44.7595142 L47.8185366,44.785749 L47.8185366,44.6924696 L47.7453659,44.6254251 C45.9269519,43.0026165 44.294565,41.1842478 42.8780488,39.2035628 L42.8780488,39.2035628 Z" id="Path"></path>
                    <path d="M43.6419512,37.868502 C41.124878,34.2568421 38.6165854,31.3739271 34.542439,29.0448583 C29.8595122,26.354332 25.0565854,25.6168421 20.6868293,26.9110931 C16.8819512,28.0450202 13.5014634,30.7005668 11.1834146,34.414251 C6.85756098,41.3198381 6.63219512,49.9860729 10.5746341,57.59417 C14.5521951,65.2693117 22.2819512,69.8021053 26.555122,71.8221862 L26.5960976,71.8396761 L26.6341463,71.8396761 C26.8214634,71.8396761 27.0058537,71.8396761 27.1931707,71.8396761 L27.924878,71.7988664 L27.2341463,71.4840486 C22.9287805,69.5076923 15.1112195,65.0506883 11.1365854,57.3609717 C7.2995122,49.9540081 7.52195122,41.5151417 11.7219512,34.7873684 C15.5678049,28.6396761 23.7804878,23.5909312 34.2585366,29.5899595 C38.2185366,31.8578138 40.6682927,34.6736842 43.1239024,38.2037247 C44.4485049,40.0758375 45.9319978,41.8312674 47.5580488,43.4506883 L47.8507317,43.7625911 L47.8507317,43.348664 C47.8507317,43.2349798 47.8507317,43.1242105 47.8507317,43.0105263 L47.8507317,42.9289069 L47.7921951,42.8706073 C46.2732421,41.3195447 44.8851353,39.6465211 43.6419512,37.868502 L43.6419512,37.868502 Z" id="Path"></path>
                    <path d="M44.4058537,36.5363563 C42.155122,33.3298785 39.5443902,29.9689069 34.6185366,27.2900405 C29.5873171,24.5528745 24.4419512,23.8591093 19.7414634,25.2874494 C15.6878049,26.5175709 12.0936585,29.2868016 9.6204878,33.0821053 C4.18536585,41.4276923 5.5404878,51.12 8.6195122,57.4076113 C12.1317073,64.5463968 18.6468293,69.0354656 23.5112195,71.5452632 L23.5580488,71.568583 L23.5873171,71.568583 C23.8360976,71.6152227 24.0936585,71.6531174 24.3541463,71.6851822 L25.4165854,71.8192713 L24.4331707,71.3324696 C19.4282927,68.8634818 12.7258537,64.4006478 9.18439024,57.174413 C6.17853659,51.0529555 4.85560976,41.5909312 10.1590244,33.4552227 C14.657561,26.5467206 23.8829268,22.1305263 34.3521951,27.8293117 C39.1521951,30.4527935 41.6985366,33.7234008 43.8965854,36.865749 C45.0234124,38.4720969 46.2430299,40.0118592 47.5492683,41.477247 L47.8887805,41.8591093 L47.8741463,41.322753 C47.8741463,41.2119838 47.8741463,41.1012146 47.8741463,40.9817004 L47.8741463,40.9146559 L47.8273171,40.8621862 C46.6086621,39.4833088 45.4664757,38.0392179 44.4058537,36.5363563 Z" id="Path"></path>
                    <path d="M47.6868293,38.6555466 L47.6868293,38.6001619 L47.6517073,38.5535223 C46.7034146,37.3467206 45.8692683,36.1807287 45.1756098,35.2012955 C42.6936585,31.7033198 40.0243902,28.3073684 34.697561,25.5381377 C23.2360976,19.5682591 13.062439,24.3575709 8.06341463,31.7528745 C2.27121951,40.322915 3.69073171,50.828502 6.6702439,57.2181377 C8.76878049,61.7480162 12.2634146,65.7386235 17.0341463,69.0617004 L17.0868293,69.0995951 C17.7827571,69.5144261 18.503079,69.8872434 19.2439024,70.2160324 L19.3960976,69.8895547 C13.6770732,66.3915789 9.58536585,62.059919 7.23804878,56.9995142 C4.32878049,50.7585425 2.93853659,40.5007287 8.59609756,32.1318219 C13.4487805,24.9493117 23.3239024,20.2940891 34.4458537,26.0832389 C39.6263415,28.7825101 42.24,32.0910121 44.6721951,35.5277733 C45.377561,36.5305263 46.3287805,37.8597571 47.4058537,39.2093927 L47.7892683,39.6961943 L47.7365854,39.1131984 C47.7170732,38.9577328 47.7004878,38.8051822 47.6868293,38.6555466 Z" id="Path"></path>
                    <path d="M22.1121951,0.0787044534 C21.7097128,0.0400453987 21.3040918,0.0478706537 20.9034146,0.102024291 C23.3256673,0.952951331 25.7904105,1.67877545 28.2878049,2.27659919 C27.084878,1.40502024 23.5931707,0.204048583 22.1121951,0.0787044534 Z" id="Path"></path>
                </g>
            </g>
        </g>
    </g>
</svg>