<?xml version="1.0" encoding="UTF-8"?>
<svg width="146px" height="145px" viewBox="0 0 146 145" version="1.1" xmlns="http://www.w3.org/2000/svg" xmlns:xlink="http://www.w3.org/1999/xlink">
    <title>293C4073-EEF4-4DD5-A6FC-2B6305E04B6D</title>
    <g id="Page-1" stroke="none" stroke-width="1" fill="none" fill-rule="evenodd">
        <g id="Alt.-Design-Web-2.0" transform="translate(-629.000000, -1217.000000)">
            <g id="Development-rafiki" transform="translate(629.000000, 1217.000000)">
                <g id="freepik--background-complete--inject-4" fill-rule="nonzero">
                    <rect id="Rectangle" fill="#EBEBEB" x="0" y="95.2951009" width="146" height="1"></rect>
                    <rect id="Rectangle" fill="#EBEBEB" x="15.31832" y="98.0660519" width="6.19332" height="1"></rect>
                    <rect id="Rectangle" fill="#EBEBEB" x="49.97288" y="97.2772622" width="24.81124" height="1"></rect>
                    <rect id="Rectangle" fill="#EBEBEB" x="19.75964" y="100.770058" width="11.12812" height="1"></rect>
                    <rect id="Rectangle" fill="#EBEBEB" x="118.75932" y="100.281066" width="12.61148" height="1"></rect>
                    <rect id="Rectangle" fill="#EBEBEB" x="114.30924" y="100.281066" width="3.49524" height="1"></rect>
                    <rect id="Rectangle" fill="#EBEBEB" x="101.58388" y="99.0527666" width="6.716" height="1"></rect>
                    <rect id="Rectangle" fill="#EBEBEB" x="84.06388" y="99.0527666" width="14.14448" height="1"></rect>
                    <path d="M69.204,82.3135447 L12.82172,82.3135447 C11.9020251,82.3119391 11.15732,81.5683116 11.15732,80.6515562 L11.15732,1.64743516 C11.1653224,0.736366201 11.9076947,0.00156070897 12.82172,0 L69.204,0 C70.1248354,0 70.87132,0.744097585 70.87132,1.66198847 L70.87132,80.6515562 C70.87132,81.5694471 70.1248354,82.3135447 69.204,82.3135447 Z M12.82172,0.0582132565 C11.9423419,0.0598186916 11.23032,0.770867567 11.23032,1.64743516 L11.23032,80.6515562 C11.23032,81.5281238 11.9423419,82.2391727 12.82172,82.2407781 L69.204,82.2407781 C70.0838521,82.2391762 70.796713,81.5285948 70.79832,80.6515562 L70.79832,1.64743516 C70.796713,0.770396524 70.0838521,0.0598151575 69.204,0.0582132565 L12.82172,0.0582132565 Z" id="Shape" fill="#EBEBEB"></path>
                    <path d="M132.36652,82.3135447 L75.98132,82.3135447 C75.0611512,82.3119425 74.3156073,81.5687826 74.314,80.6515562 L74.314,1.64743516 C74.3235915,0.735897165 75.0668089,0.00154354693 75.98132,0 L132.36652,0 C133.279406,0.00315245504 134.020012,0.737497244 134.028,1.64743516 L134.028,80.6515562 C134.028,81.5671785 133.285074,82.3103376 132.36652,82.3135447 Z M75.98132,0.0582132565 C75.1014679,0.0598151575 74.388607,0.770396524 74.387,1.64743516 L74.387,80.6515562 C74.388607,81.5285948 75.1014679,82.2391762 75.98132,82.2407781 L132.36652,82.2407781 C133.246372,82.2391762 133.959233,81.5285948 133.96084,80.6515562 L133.96084,1.64743516 C133.959233,0.770396524 133.246372,0.0598151575 132.36652,0.0582132565 L75.98132,0.0582132565 Z" id="Shape" fill="#EBEBEB"></path>
                    <g id="Group" opacity="0.6" transform="translate(84.972000, 5.239193)">
                        <path d="M17.90252,41.4856772 L20.06624,39.3288761 C23.8116307,43.0659462 24.5746891,48.8435407 21.9272215,53.4195372 C19.2797539,57.9955337 13.8807974,60.2308245 8.76,58.8710663 L9.55132,55.9254755 C13.3374948,56.9396085 17.3348039,55.2910915 19.2954387,51.9069357 C21.2560735,48.5227799 20.6906487,44.2476891 17.91712,41.4856772 L17.90252,41.4856772 Z" id="Path" fill="#EBEBEB"></path>
                        <path d="M3.504,39.3288761 C8.08306935,34.7723063 15.4988507,34.7723063 20.07792,39.3288761 L17.9142,41.4856772 C14.5321647,38.1153524 9.04975528,38.1153524 5.66772,41.4856772 L3.504,39.3288761 Z" id="Path" fill="#F5F5F5"></path>
                        <path d="M3.504,39.3288761 L5.66772,41.4856772 C4.04330218,43.1042391 3.13065792,45.2998772 3.13065792,47.5893372 C3.13065792,49.8787972 4.04330218,52.0744353 5.66772,53.6929971 C6.73944355,54.7674635 8.07890701,55.5380303 9.5484,55.9254755 L8.76,58.8710663 C4.71679478,57.7902966 1.5587454,54.6421512 0.474758229,50.6118081 C-0.609228939,46.581465 0.545413903,42.2807991 3.504,39.3288761 Z" id="Path" fill="#E0E0E0"></path>
                        <path d="M27.52392,30.6929395 L27.52392,35.2685014 C19.5592363,35.2692567 12.5872142,29.9370275 10.5258589,22.2683192 C8.4645037,14.599611 11.8279041,6.50695036 18.72596,2.53809798 L21.024,6.50242075 C15.922677,9.43341194 13.4339287,15.4156454 14.9572832,21.0850591 C16.4806377,26.7544727 21.6358472,30.695912 27.52392,30.6929395 L27.52392,30.6929395 Z" id="Path" fill="#EBEBEB"></path>
                        <path d="M45.11984,17.7288473 C45.1166167,27.4143996 37.2405428,35.2652885 27.52392,35.2685014 L27.52392,30.6929395 C34.7060909,30.6913327 40.527988,24.888052 40.5296,17.7288473 L45.11984,17.7288473 Z" id="Path" fill="#F5F5F5"></path>
                        <path d="M45.11984,17.7288473 L40.5296,17.7288473 C40.5305157,13.0975066 38.0522468,8.81760424 34.0285998,6.50179867 C30.0049528,4.18599311 25.047424,4.18623026 21.024,6.50242075 L18.72888,2.53809798 C24.1730459,-0.593655514 30.8797016,-0.59276312 36.3230285,2.54043908 C41.7663554,5.67364127 45.11984,11.4632608 45.11984,17.7288473 L45.11984,17.7288473 Z" id="Path" fill="#E0E0E0"></path>
                    </g>
                    <g id="Group" opacity="0.5" transform="translate(33.872000, 75.968300)">
                        <rect id="Rectangle" fill="#F5F5F5" transform="translate(52.060680, 11.108545) rotate(180.000000) translate(-52.060680, -11.108545) " x="48.15956" y="2.89319885" width="7.80224" height="16.4306916"></rect>
                        <rect id="Rectangle" fill="#E6E6E6" transform="translate(42.667040, 13.589885) rotate(180.000000) translate(-42.667040, -13.589885) " x="38.76592" y="7.8529683" width="7.80224" height="11.4738329"></rect>
                        <rect id="Rectangle" fill="#F0F0F0" transform="translate(33.273400, 15.698660) rotate(180.000000) translate(-33.273400, -15.698660) " x="29.37228" y="12.0734294" width="7.80224" height="7.2504611"></rect>
                        <rect id="Rectangle" fill="#F5F5F5" transform="translate(81.330760, 13.589885) rotate(180.000000) translate(-81.330760, -13.589885) " x="77.42964" y="7.8529683" width="7.80224" height="11.4738329"></rect>
                        <rect id="Rectangle" fill="#E6E6E6" transform="translate(71.940040, 14.858934) rotate(180.000000) translate(-71.940040, -14.858934) " x="68.03892" y="10.3910663" width="7.80224" height="8.93573487"></rect>
                        <rect id="Rectangle" fill="#F0F0F0" transform="translate(62.543480, 9.702695) rotate(180.000000) translate(-62.543480, -9.702695) " x="58.64236" y="0.0785878963" width="7.80224" height="19.2482133"></rect>
                        <rect id="Rectangle" fill="#F5F5F5" transform="translate(22.790600, 10.347406) rotate(180.000000) translate(-22.790600, -10.347406) " x="18.88948" y="1.36801153" width="7.80224" height="17.9587896"></rect>
                        <rect id="Rectangle" fill="#E6E6E6" transform="translate(13.396960, 13.589885) rotate(180.000000) translate(-13.396960, -13.589885) " x="9.49584" y="7.8529683" width="7.80224" height="11.4738329"></rect>
                        <rect id="Rectangle" fill="#F0F0F0" transform="translate(4.003320, 11.776542) rotate(180.000000) translate(-4.003320, -11.776542) " x="0.1022" y="4.22628242" width="7.80224" height="15.1005187"></rect>
                    </g>
                    <g id="Group" opacity="0.6" transform="translate(16.352000, 4.948127)">
                        <path d="M0.03212,2.17135447 C0.0369176001,1.07862397 0.92440411,0.193975343 2.02064,0.189193084 L64.00056,0.189193084 C65.097936,0.192381038 65.9871916,1.07749331 65.992,2.17135447 L65.992,8.5573487 L0.03212,8.5573487 L0.03212,2.17135447 Z" id="Path" fill="#F0F0F0"></path>
                        <path d="M16.1184,6.01925072 C15.2063894,6.01925072 14.4667619,5.2828428 14.4656903,4.37374915 C14.464621,3.4646555 15.2025124,2.72652464 16.1145204,2.7243803 C17.0265285,2.72224529 17.7678973,3.45690563 17.7711226,4.36599424 C17.7718951,4.80369337 17.598205,5.22377234 17.2882598,5.53381822 C16.9783145,5.8438641 16.5575032,6.01847945 16.1184,6.01925072 Z M16.1184,3.01835735 C15.5672454,3.01835735 15.0705323,3.34979017 14.8604423,3.85770333 C14.6503523,4.36561648 14.7683844,4.94969363 15.159366,5.33691603 C15.5503476,5.72413843 16.1370485,5.83801833 16.6452235,5.62532414 C17.1533985,5.41262996 17.4826682,4.91537502 17.47912,4.36599424 C17.4743039,3.62030469 16.8664972,3.01835735 16.1184,3.01835735 L16.1184,3.01835735 Z" id="Shape" fill="#FFFFFF"></path>
                        <path d="M10.804,6.01925072 C10.1345211,6.02632107 9.526902,5.63008114 9.26522919,5.01578907 C9.00355638,4.401497 9.13953218,3.69052704 9.60958243,3.21528632 C10.0796327,2.74004561 10.790883,2.59443407 11.4107952,2.84653097 C12.0307073,3.09862788 12.4367966,3.69862293 12.4392109,4.36599424 C12.4424604,5.27133837 11.7122033,6.0096592 10.804,6.01925072 L10.804,6.01925072 Z M10.804,3.01835735 C10.2513061,3.01127441 9.74922997,3.33816242 9.53360023,3.84547983 C9.31797048,4.35279723 9.43163742,4.93972906 9.82121091,5.3305894 C10.2107844,5.72144973 10.7988477,5.83856615 11.3091835,5.62692826 C11.8195193,5.41529037 12.1507127,4.91695521 12.1472,4.36599424 C12.1440516,3.62641597 11.5459146,3.02630322 10.804,3.01835735 L10.804,3.01835735 Z" id="Shape" fill="#FFFFFF"></path>
                        <path d="M5.45748,6.01925333 C4.54509113,6.02085188 3.8040009,5.28516324 3.80185023,4.37569299 C3.7997089,3.46622274 4.53731906,2.72706721 5.44970539,2.7243828 C6.36209173,2.72171298 7.10405459,3.45652715 7.10728265,4.36599424 C7.10889635,5.27632217 6.37072395,6.01604111 5.45748,6.01925333 Z M5.45748,3.01835426 C4.90606115,3.01718921 4.40845073,3.34786217 4.19743902,3.85568203 C3.98642732,4.36350189 4.10373741,4.94805804 4.49448972,5.33588558 C4.88524203,5.72371312 5.47217359,5.83812738 5.98070823,5.6256035 C6.48924288,5.41307963 6.81882867,4.9156397 6.81528,4.36599424 C6.81047293,3.6214384 6.2044381,3.01993972 5.45748,3.01835426 Z" id="Shape" fill="#FFFFFF"></path>
                        <path d="M64.00056,51.5536599 L2.02064,51.5536599 C0.92440411,51.5488777 0.0369176001,50.6642291 0.03212,49.5714986 L0.03212,8.5573487 L65.992,8.5573487 L65.992,49.5714986 C65.9871916,50.6653597 65.097936,51.550472 64.00056,51.5536599 L64.00056,51.5536599 Z" id="Path" fill="#E0E0E0"></path>
                        <path d="M10.09736,17.5512968 C10.098963,16.4567698 10.9878454,15.5694287 12.08588,15.5662248 L74.0658,15.5662248 C75.1631702,15.5710178 76.0511218,16.4574298 76.05432,17.5512968 L76.05432,23.9343804 L10.09736,23.9343804 L10.09736,17.5512968 Z" id="Path" fill="#F5F5F5"></path>
                        <path d="M26.18364,21.396285 C25.5146472,21.3974596 24.9109255,20.996507 24.6543672,20.3806391 C24.3978089,19.7647712 24.539023,19.0554747 25.0120731,18.5839373 C25.4851231,18.1123998 26.196695,17.9716373 26.8145386,18.2273752 C27.4323821,18.4831131 27.8346209,19.0849043 27.8334426,19.7517579 C27.8318328,20.6593393 27.0941328,21.3946803 26.18364,21.396285 L26.18364,21.396285 Z M26.18364,18.3953859 C25.633016,18.3942112 25.1359526,18.7239321 24.9244186,19.230678 C24.7128847,19.737424 24.8285803,20.3212992 25.2175127,20.7098217 C25.6064452,21.0983442 26.1919435,21.2149239 26.7007683,21.0051554 C27.2095931,20.795387 27.54144,20.3006225 27.54144,19.7517579 C27.54144,19.0037913 26.9340043,18.3969941 26.18364,18.3953859 Z" id="Shape" fill="#E6E6E6"></path>
                        <path d="M20.85172,21.396285 C20.1827272,21.3974596 19.5790055,20.996507 19.3224472,20.3806391 C19.0658889,19.7647712 19.207103,19.0554747 19.6801531,18.5839373 C20.1532031,18.1123998 20.864775,17.9716373 21.4826186,18.2273752 C22.1004621,18.4831131 22.5027009,19.0849043 22.5015226,19.7517579 C22.4999128,20.6593393 21.7622128,21.3946803 20.85172,21.396285 L20.85172,21.396285 Z M20.85172,18.3953859 C20.301096,18.3942112 19.8040326,18.7239321 19.5924986,19.230678 C19.3809647,19.737424 19.4966603,20.3212992 19.8855927,20.7098217 C20.2745252,21.0983442 20.8600235,21.2149239 21.3688483,21.0051554 C21.8776731,20.795387 22.20952,20.3006225 22.20952,19.7517579 C22.20952,19.0037913 21.6020843,18.3969941 20.85172,18.3953859 L20.85172,18.3953859 Z" id="Shape" fill="#E6E6E6"></path>
                        <path d="M15.52272,21.396285 C14.8537272,21.3974596 14.2500055,20.996507 13.9934472,20.3806391 C13.7368889,19.7647712 13.878103,19.0554747 14.3511531,18.5839373 C14.8242031,18.1123998 15.535775,17.9716373 16.1536186,18.2273752 C16.7714621,18.4831131 17.1737009,19.0849043 17.1725226,19.7517579 C17.1693163,20.6586777 16.4325491,21.393089 15.52272,21.396285 Z M15.52272,18.3953859 C14.972096,18.3942112 14.4750326,18.7239321 14.2634986,19.230678 C14.0519647,19.737424 14.1676603,20.3212992 14.5565927,20.7098217 C14.9455252,21.0983442 15.5310235,21.2149239 16.0398483,21.0051554 C16.5486731,20.795387 16.88052,20.3006225 16.88052,19.7517579 C16.88052,19.0037913 16.2730843,18.3969941 15.52272,18.3953859 Z" id="Shape" fill="#E6E6E6"></path>
                        <path d="M74.0658,66.945245 L12.08588,66.945245 C10.9883175,66.9436419 10.0989682,66.0571364 10.09736,64.9630836 L10.09736,23.9343804 L76.0543393,23.9343804 L76.0543393,64.9485303 C76.0566478,65.4762801 75.8483578,65.9832943 75.4753534,66.3578358 C75.102349,66.7323773 74.5952457,66.9437047 74.0658,66.945245 Z" id="Path" fill="#E6E6E6"></path>
                    </g>
                </g>
                <g id="freepik--Shadow--inject-4" transform="translate(17.000000, 102.000000)" fill="#F5F5F5" fill-rule="nonzero">
                    <ellipse id="freepik--path--inject-4" cx="56.5" cy="3.57" rx="56.4679639" ry="3.30166667"></ellipse>
                </g>
                <g id="freepik--Smartphone--inject-4" transform="translate(20.000000, 11.000000)" fill-rule="nonzero">
                    <path d="M58.0977778,20.8133333 C58.2952748,20.8152721 58.4847367,20.7351144 58.6210445,20.5919493 C58.7573523,20.4487842 58.8283071,20.2554242 58.8170115,20.0579167 L58.6015326,15.75 C58.577114,15.3281978 58.2312843,14.9970815 57.8095019,14.9916667 L57.2271264,14.9916667 L56.7000766,4.27291667 C56.5587806,1.90093275 54.6168937,0.0384860244 52.2449042,-9.17949946e-05 L18.7321073,-9.17949946e-05 C17.6196695,-0.00751401825 16.5537545,0.446568288 15.7875171,1.25440234 C15.0212798,2.06223639 14.623087,3.15174387 14.6875096,4.26416667 L15.2174713,15.0325 C14.9048076,15.1464929 14.7036689,15.4522526 14.7224521,15.785 L15.2320307,26.11875 C15.2557547,26.4647027 15.4858385,26.7619989 15.8144061,26.87125 L18.0536398,72.4733333 C18.1996755,74.8462863 20.1471232,76.705381 22.5204598,76.7375918 L56.0303448,76.7375918 C57.1427826,76.745014 58.2086976,76.2909317 58.974935,75.4830977 C59.7411723,74.6752636 60.1393651,73.5857561 60.0749425,72.4733333 L57.9055939,28.5191667 L58.4879693,28.5191667 C58.6854663,28.5211054 58.8749282,28.4409477 59.011236,28.2977826 C59.1475438,28.1546175 59.2184986,27.9612575 59.2072031,27.76375 L58.994636,23.4470833 C58.9673834,23.0270689 58.6227613,22.698378 58.2026054,22.6916667 L57.6202299,22.6916667 L57.5270498,20.8133333 L58.0977778,20.8133333 Z" id="Path" fill="#25AE60"></path>
                    <path d="M23.228046,76.7375906 L56.737931,76.7375906 C57.8506041,76.7449624 58.9167735,76.2909682 59.6834625,75.4832395 C60.4501515,74.6755107 60.8490253,73.5860402 60.7854406,72.4733333 L57.4193103,4.26708333 C57.276202,1.89344563 55.3292402,0.032330202 52.9554023,-9.05645983e-05 L19.4426054,-9.05645983e-05 C18.3299323,-0.00746237788 17.2637629,0.446531799 16.4970739,1.25426053 C15.7303849,2.06198927 15.3315111,3.15145977 15.3950958,4.26416667 L18.7612261,72.4704167 C18.9058012,74.8445174 20.8536563,76.705273 23.228046,76.7375906 Z" id="Path" fill="#25AE60"></path>
                    <path d="M23.228046,76.7375906 L56.737931,76.7375906 C57.8506041,76.7449624 58.9167735,76.2909682 59.6834625,75.4832395 C60.4501515,74.6755107 60.8490253,73.5860402 60.7854406,72.4733333 L57.4193103,4.26708333 C57.276202,1.89344563 55.3292402,0.032330202 52.9554023,-9.05645983e-05 L19.4426054,-9.05645983e-05 C18.3299323,-0.00746237788 17.2637629,0.446531799 16.4970739,1.25426053 C15.7303849,2.06198927 15.3315111,3.15145977 15.3950958,4.26416667 L18.7612261,72.4704167 C18.9058012,74.8445174 20.8536563,76.705273 23.228046,76.7375906 Z" id="Path" fill="#FAFAFA" opacity="0.4"></path>
                    <path d="M20.4763218,70.7904537 L58.9131034,70.7904537 C59.0863874,70.7923025 59.2527003,70.7221601 59.3724476,70.5966885 C59.4921949,70.4712169 59.5546633,70.3016414 59.5449808,70.1283333 L56.405977,6.75791667 C56.3831012,6.38862862 56.0794087,6.09970991 55.7100383,6.09579415 L17.2732567,6.09579415 C17.1002075,6.09389249 16.9341466,6.16412205 16.81485,6.28970011 C16.6955534,6.41527816 16.6337673,6.58489281 16.6442912,6.75791667 L19.7687356,70.1283333 C19.7919026,70.5020999 20.1024574,70.7926838 20.4763218,70.7904537 L20.4763218,70.7904537 Z" id="Path" fill="#FFFFFF"></path>
                    <path d="M40.3353257,1.97458333 L32.2548659,1.97458333 C32.1178693,1.97353827 31.9865665,2.02940865 31.8922074,2.12889735 C31.7978483,2.22838604 31.748872,2.3625953 31.7569349,2.49958333 L31.7569349,2.49958333 C31.7737118,2.79292027 32.013973,3.02339005 32.3072797,3.0275 L40.3877395,3.0275 C40.5252745,3.02859938 40.657066,2.97233386 40.75152,2.87219176 C40.8459741,2.77204966 40.8945745,2.63706 40.8856705,2.49958333 L40.8856705,2.49958333 C40.8674304,2.20739397 40.6275776,1.97858707 40.3353257,1.97458333 L40.3353257,1.97458333 Z" id="Path" fill="#25AE60" opacity="0.7"></path>
                    <polygon id="Path" fill="#25AE60" opacity="0.6" points="69.8908812 57.60125 36.2936398 57.60125 33.8855172 8.78791667 67.4827586 8.78791667"></polygon>
                    <path d="M65.9249042,44.2545833 C65.9094989,44.257371 65.8937195,44.257371 65.8783142,44.2545833 C65.8635796,44.2493813 65.8505074,44.2403165 65.8404598,44.2283333 C65.8291666,44.2176748 65.8202377,44.2047563 65.8142529,44.1904167 C65.81159,44.1749754 65.81159,44.1591912 65.8142529,44.14375 C65.8142529,44.0760951 65.869008,44.02125 65.9365517,44.02125 C66.0040955,44.02125 66.0588506,44.0760951 66.0588506,44.14375 C66.0615134,44.1591912 66.0615134,44.1749754 66.0588506,44.1904167 C66.0528657,44.2047563 66.0439369,44.2176748 66.0326437,44.2283333 C66.022596,44.2403165 66.0095238,44.2493813 65.9947893,44.2545833 C65.9720157,44.2615655 65.9476778,44.2615655 65.9249042,44.2545833 L65.9249042,44.2545833 Z" id="Path" fill="#FFFFFF"></path>
                    <path d="M66.4784568,53.375 C66.4760312,53.3432748 66.4930165,53.3122224 66.5256653,53.2886936 C66.5583141,53.2651648 66.6039435,53.2510932 66.6524865,53.2495833 L66.6524865,53.2495833 C66.7543957,53.246243 66.8416673,53.2968037 66.8488276,53.3633333 L66.8488276,53.3633333 C66.8512517,53.3958319 66.8337958,53.4276257 66.8003104,53.4517012 C66.766825,53.4757768 66.7200615,53.4901559 66.6703356,53.4916667 L66.6703356,53.4916667 C66.5684953,53.4933266 66.4832762,53.4415115 66.4784568,53.375 L66.4784568,53.375 Z M66.40706,52.4533333 C66.4046359,52.4208348 66.4220918,52.389041 66.4555772,52.3649655 C66.4890626,52.3408899 66.5358261,52.3265108 66.585552,52.325 L66.585552,52.325 C66.634836,52.3234181 66.683008,52.3349151 66.7191366,52.3568821 C66.7552652,52.3788491 66.7762867,52.4094233 66.7774308,52.4416667 L66.7774308,52.4416667 C66.7798564,52.4733919 66.7628711,52.5044443 66.7302223,52.527973 C66.6975735,52.5515018 66.6519441,52.5655734 66.6034012,52.5670833 L66.6034012,52.5670833 C66.5014919,52.5704237 66.4142204,52.519863 66.40706,52.4533333 Z M66.3401256,51.52875 C66.3377,51.4970248 66.3546853,51.4659724 66.3873341,51.4424436 C66.4199829,51.4189148 66.4656122,51.4048432 66.5141552,51.4033333 L66.5141552,51.4033333 C66.5630012,51.4009241 66.6112154,51.411742 66.6474995,51.433252 C66.6837835,51.454762 66.7049483,51.4850735 66.706034,51.5170833 L66.706034,51.5170833 C66.7097024,51.5492956 66.6932777,51.5811079 66.6604978,51.6052806 C66.6277178,51.6294532 66.581371,51.6439301 66.5320044,51.6454167 L66.5320044,51.6454167 C66.430164,51.6470766 66.344945,51.5952615 66.3401256,51.52875 L66.3401256,51.52875 Z M66.2687288,50.6041667 C66.2660885,50.5386679 66.3427686,50.4834074 66.4427584,50.47875 L66.4427584,50.47875 C66.5446677,50.4754097 66.6319392,50.5259704 66.6390996,50.5925 L66.6390996,50.5925 C66.64421,50.6591104 66.5668557,50.7161532 66.4650699,50.7208333 L66.4650699,50.7208333 C66.4153494,50.7224178 66.3667071,50.7110082 66.3298732,50.6891213 C66.2930393,50.6672345 66.2710402,50.6366687 66.2687288,50.6041667 L66.2687288,50.6041667 Z M66.197332,49.6825 C66.1949079,49.6500015 66.2123638,49.6182077 66.2458492,49.5941321 C66.2793346,49.5700566 66.326098,49.5556775 66.3758239,49.5541667 L66.3758239,49.5541667 C66.4251079,49.5525847 66.47328,49.5640817 66.5094086,49.5860487 C66.5455372,49.6080157 66.5665587,49.63859 66.5677028,49.6708333 L66.5677028,49.6708333 C66.5701283,49.7025585 66.5531431,49.7336109 66.5204943,49.7571397 C66.4878454,49.7806685 66.4422161,49.7947401 66.3936731,49.79625 L66.3936731,49.79625 C66.2917639,49.7995903 66.2044923,49.7490296 66.197332,49.6825 L66.197332,49.6825 Z M66.1303975,48.7579167 C66.127972,48.7261915 66.1449573,48.6951391 66.1776061,48.6716103 C66.2102549,48.6480815 66.2558842,48.6340099 66.3044272,48.6325 L66.3044272,48.6325 C66.3537098,48.6301023 66.4023803,48.6408378 66.4393628,48.6622636 C66.4763454,48.6836894 66.498494,48.7139828 66.5007683,48.74625 L66.5007683,48.74625 C66.5034046,48.8133569 66.4247312,48.869922 66.3222764,48.8745833 L66.3222764,48.8745833 C66.220436,48.8762433 66.1352169,48.8244281 66.1303975,48.7579167 L66.1303975,48.7579167 Z M66.0590008,47.8333333 C66.0564612,47.766768 66.1357347,47.7110667 66.2374927,47.7079167 L66.2374927,47.7079167 C66.28603,47.7063313 66.3335381,47.7174333 66.3695355,47.7387733 C66.4055329,47.7601134 66.4270615,47.7899378 66.4293715,47.8216667 L66.4293715,47.8216667 C66.434482,47.888277 66.3571277,47.9453198 66.2553419,47.95 L66.2553419,47.95 C66.2056214,47.9515845 66.1569791,47.9401749 66.1201451,47.918288 C66.0833112,47.8964011 66.0613122,47.8658354 66.0590008,47.8333333 L66.0590008,47.8333333 Z M65.9920663,46.9116667 C65.9883979,46.8794544 66.0048226,46.8476421 66.0376025,46.8234694 C66.0703825,46.7992968 66.1167293,46.7848199 66.1660959,46.7833333 L66.1660959,46.7833333 C66.2153799,46.7817514 66.263552,46.7932484 66.2996806,46.8152154 C66.3358091,46.8371824 66.3568307,46.8677566 66.3579748,46.9 L66.3579748,46.9 C66.3604003,46.9317252 66.343415,46.9627776 66.3107662,46.9863064 C66.2781174,47.0098352 66.2324881,47.0239068 66.1839451,47.0254167 L66.1839451,47.0254167 C66.1354078,47.0270021 66.0878997,47.0159001 66.0519023,46.99456 C66.0159049,46.97322 65.9943763,46.9433955 65.9920663,46.9116667 L65.9920663,46.9116667 Z M65.9206695,45.9870833 C65.9182439,45.9553581 65.9352292,45.9243057 65.967878,45.900777 C66.0005268,45.8772482 66.0461562,45.8631766 66.0946991,45.8616667 L66.0946991,45.8616667 C66.1966084,45.8583263 66.28388,45.908887 66.2910403,45.9754167 L66.2910403,45.9754167 C66.2936766,46.0425236 66.2150032,46.0990887 66.1125483,46.10375 L66.1125483,46.10375 C66.010708,46.1054099 65.9254889,46.0535948 65.9206695,45.9870833 L65.9206695,45.9870833 Z M65.8492727,45.0654167 C65.8468486,45.0329181 65.8643045,45.0011243 65.8977899,44.9770488 C65.9312753,44.9529732 65.9780388,44.9385941 66.0277647,44.9370833 L66.0277647,44.9370833 C66.076302,44.9354979 66.1238101,44.9465999 66.1598075,44.96794 C66.1958049,44.98928 66.2173334,45.0191045 66.2196435,45.0508333 L66.2196435,45.0508333 C66.224754,45.1174437 66.1473996,45.1744865 66.0456139,45.1791667 L66.0456139,45.1791667 C65.9437046,45.182507 65.8564331,45.1319463 65.8492727,45.0654167 L65.8492727,45.0654167 Z" id="Shape" fill="#FFFFFF"></path>
                    <path d="M66.4257471,54.41625 C66.3935012,54.4161929 66.3627999,54.4024076 66.3413027,54.3783333 C66.3180323,54.3564987 66.3052967,54.3256704 66.3063602,54.29375 C66.3035771,54.2783193 66.3035771,54.262514 66.3063602,54.2470833 C66.3115536,54.2323245 66.3206036,54.2192309 66.332567,54.2091667 C66.3432081,54.1978549 66.3561054,54.1889113 66.3704215,54.1829167 C66.4003806,54.1712026 66.4336424,54.1712026 66.4636015,54.1829167 C66.4788024,54.1888552 66.4926633,54.1977804 66.5043678,54.2091667 C66.5144339,54.2202335 66.5223359,54.2330953 66.5276628,54.2470833 C66.531608,54.2623879 66.531608,54.2784454 66.5276628,54.29375 C66.5270706,54.3253471 66.514591,54.3555556 66.4927203,54.3783333 C66.4810158,54.3897196 66.4671549,54.3986448 66.451954,54.4045833 C66.4439464,54.4099405 66.435083,54.4138862 66.4257471,54.41625 Z" id="Path" fill="#FFFFFF"></path>
                    <path d="M65.3279693,54.5842532 C65.3279598,54.4737594 65.3409369,54.3679297 65.3639601,54.2907458 C65.3869833,54.2135618 65.4181033,54.1715582 65.4502682,54.1742532 L65.4502682,54.1742532 C65.5162038,54.1742532 65.5696552,54.3578164 65.5696552,54.5842532 L65.5696552,54.5842532 C65.569674,54.812363 65.5166722,54.998822 65.4502682,55.0042532 L65.4502682,55.0042532 C65.3827244,55.0042532 65.3279693,54.8162128 65.3279693,54.5842532 L65.3279693,54.5842532 Z M64.3495785,54.5842532 C64.349569,54.4737594 64.3625461,54.3679297 64.3855693,54.2907458 C64.4085925,54.2135618 64.4397125,54.1715582 64.4718774,54.1742532 L64.4718774,54.1742532 C64.537813,54.1742532 64.5912644,54.3578164 64.5912644,54.5842532 L64.5912644,54.5842532 C64.5920491,54.6947141 64.5798182,54.8015868 64.5573431,54.8806532 C64.5348681,54.9597197 64.5040518,55.004286 64.4718774,55.0042532 L64.4718774,55.0042532 C64.4054734,54.998822 64.3524716,54.812363 64.3524904,54.5842532 L64.3495785,54.5842532 Z M63.3740996,54.5842532 C63.3740996,54.4755144 63.3866779,54.3712293 63.4090673,54.2943394 C63.4314567,54.2174495 63.4618232,54.1742532 63.4934866,54.1742532 L63.4934866,54.1742532 C63.5256514,54.1715582 63.5567715,54.2135618 63.5797947,54.2907458 C63.6028178,54.3679297 63.615795,54.4737594 63.6157854,54.5842532 L63.6157854,54.5842532 C63.6157854,54.8162128 63.5610304,55.0042532 63.4934866,55.0042532 L63.4934866,55.0042532 C63.4613122,55.004286 63.4304959,54.9597197 63.4080208,54.8806532 C63.3855458,54.8015868 63.3733149,54.6947141 63.3740996,54.5842532 Z M62.3957088,54.5842532 C62.3956992,54.4737594 62.4086764,54.3679297 62.4316996,54.2907458 C62.4547228,54.2135618 62.4858428,54.1715582 62.5180077,54.1742532 L62.5180077,54.1742532 C62.5496711,54.1742532 62.5800376,54.2174495 62.602427,54.2943394 C62.6248164,54.3712293 62.6373946,54.4755144 62.6373946,54.5842532 L62.6373946,54.5842532 C62.6381794,54.6947141 62.6259484,54.8015868 62.6034734,54.8806532 C62.5809984,54.9597197 62.5501821,55.004286 62.5180077,55.0042532 L62.5180077,55.0042532 C62.4504639,55.0042532 62.3957088,54.8162128 62.3957088,54.5842532 L62.3957088,54.5842532 Z M61.4202299,54.5842532 C61.4202299,54.4755144 61.4328081,54.3712293 61.4551975,54.2943394 C61.4775869,54.2174495 61.5079535,54.1742532 61.5396169,54.1742532 L61.5396169,54.1742532 C61.5717817,54.1715582 61.6029017,54.2135618 61.6259249,54.2907458 C61.6489481,54.3679297 61.6619253,54.4737594 61.6619157,54.5842532 L61.6619157,54.5842532 C61.6619157,54.8162128 61.6071606,55.0042532 61.5396169,55.0042532 L61.5396169,55.0042532 C61.5074424,55.004286 61.4766261,54.9597197 61.4541511,54.8806532 C61.4316761,54.8015868 61.4194451,54.6947141 61.4202299,54.5842532 L61.4202299,54.5842532 Z M60.4418391,54.5842532 C60.4418295,54.4737594 60.4548067,54.3679297 60.4778299,54.2907458 C60.5008531,54.2135618 60.5319731,54.1715582 60.5641379,54.1742532 L60.5641379,54.1742532 C60.6300735,54.1742532 60.6835249,54.3578164 60.6835249,54.5842532 L60.6835249,54.5842532 C60.6843096,54.6947141 60.6720787,54.8015868 60.6496037,54.8806532 C60.6271287,54.9597197 60.5963124,55.004286 60.5641379,55.0042532 L60.5641379,55.0042532 C60.4965941,55.0042532 60.4418391,54.8162128 60.4418391,54.5842532 L60.4418391,54.5842532 Z M59.4634483,54.5842532 C59.4634387,54.4737594 59.4764159,54.3679297 59.4994391,54.2907458 C59.5224622,54.2135618 59.5535823,54.1715582 59.5857471,54.1742532 L59.5857471,54.1742532 C59.6516827,54.1742532 59.7051341,54.3578164 59.7051341,54.5842532 L59.7051341,54.5842532 C59.7059188,54.6947141 59.6936879,54.8015868 59.6712129,54.8806532 C59.6487379,54.9597197 59.6179216,55.004286 59.5857471,55.0042532 L59.5857471,55.0042532 C59.5182033,55.0042532 59.4634483,54.8162128 59.4634483,54.5842532 L59.4634483,54.5842532 Z M58.4879693,54.5842532 C58.4879693,54.4755144 58.5005476,54.3712293 58.522937,54.2943394 C58.5453264,54.2174495 58.5756929,54.1742532 58.6073563,54.1742532 L58.6073563,54.1742532 C58.6395212,54.1715582 58.6706412,54.2135618 58.6936644,54.2907458 C58.7166876,54.3679297 58.7296647,54.4737594 58.7296552,54.5842532 L58.7296552,54.5842532 C58.7296552,54.8162128 58.6749001,55.0042532 58.6073563,55.0042532 L58.6073563,55.0042532 C58.5409524,54.998822 58.4879505,54.812363 58.4879693,54.5842532 L58.4879693,54.5842532 Z M57.5095785,54.5842532 C57.509569,54.4737594 57.5225461,54.3679297 57.5455693,54.2907458 C57.5685925,54.2135618 57.5997125,54.1715582 57.6318774,54.1742532 L57.6318774,54.1742532 C57.697813,54.1742532 57.7512644,54.3578164 57.7512644,54.5842532 L57.7512644,54.5842532 C57.7520491,54.6947141 57.7398182,54.8015868 57.7173431,54.8806532 C57.6948681,54.9597197 57.6640518,55.004286 57.6318774,55.0042532 L57.6318774,55.0042532 C57.5643336,55.0042532 57.5095785,54.8162128 57.5095785,54.5842532 L57.5095785,54.5842532 Z M56.5340996,54.5842532 C56.5340996,54.4755144 56.5466779,54.3712293 56.5690673,54.2943394 C56.5914567,54.2174495 56.6218232,54.1742532 56.6534866,54.1742532 L56.6534866,54.1742532 C56.6856514,54.1715582 56.7167715,54.2135618 56.7397947,54.2907458 C56.7628178,54.3679297 56.775795,54.4737594 56.7757854,54.5842532 L56.7757854,54.5842532 C56.7757854,54.8162128 56.7210304,55.0042532 56.6534866,55.0042532 L56.6534866,55.0042532 C56.6213122,55.004286 56.5904959,54.9597197 56.5680208,54.8806532 C56.5455458,54.8015868 56.5333149,54.6947141 56.5340996,54.5842532 L56.5340996,54.5842532 Z M55.5557088,54.5842532 C55.5556992,54.4737594 55.5686764,54.3679297 55.5916996,54.2907458 C55.6147228,54.2135618 55.6458428,54.1715582 55.6780077,54.1742532 L55.6780077,54.1742532 C55.7439433,54.1742532 55.7973946,54.3578164 55.7973946,54.5842532 L55.7973946,54.5842532 C55.7981794,54.6947141 55.7859484,54.8015868 55.7634734,54.8806532 C55.7409984,54.9597197 55.7101821,55.004286 55.6780077,55.0042532 L55.6780077,55.0042532 C55.6104639,55.0042532 55.5557088,54.8162128 55.5557088,54.5842532 L55.5557088,54.5842532 Z" id="Shape" fill="#FFFFFF"></path>
                    <path d="M54.6996169,54.41625 C54.6675242,54.4154967 54.6370866,54.4018298 54.6151724,54.3783333 C54.603209,54.3682691 54.594159,54.3551755 54.5889655,54.3404167 C54.5861825,54.324986 54.5861825,54.3091807 54.5889655,54.29375 C54.5879021,54.2618296 54.6006377,54.2310013 54.623908,54.2091667 C54.6572806,54.1728785 54.710203,54.1622766 54.7549425,54.1829167 C54.7696771,54.1881187 54.7827493,54.1971835 54.7927969,54.2091667 C54.8168317,54.2306993 54.8305943,54.2614511 54.8306513,54.29375 C54.8333142,54.3091912 54.8333142,54.3249754 54.8306513,54.3404167 C54.8178118,54.3689063 54.7950329,54.3917227 54.76659,54.4045833 C54.7458149,54.4147335 54.7225934,54.4187787 54.6996169,54.41625 L54.6996169,54.41625 Z" id="Path" fill="#FFFFFF"></path>
                    <polygon id="Path" fill="#25AE60" opacity="0.5" points="68.1233716 21.79625 34.5261303 21.79625 33.8855172 8.78791667 67.4827586 8.78791667"></polygon>
                    <path d="M66.5422222,42.6416667 L66.4636015,41.79 C68.5738174,41.7091415 70.5696769,40.8084291 72.0281992,39.27875 C72.8866472,38.3776229 73.5228416,37.2879213 73.885977,36.0966667 L74.7013027,36.3883333 C74.3030333,37.6979804 73.6050809,38.8964382 72.6629885,39.8883333 C71.0577479,41.5683465 68.8622775,42.5559454 66.5422222,42.6416667 Z" id="Path" fill="#263238"></path>
                    <path d="M71.4283525,27.125 C70.3875625,26.1266954 69.1251456,25.3899907 67.7448276,24.9754167 L67.9515709,24.15875 C69.468755,24.61544 70.856646,25.4249588 72.0019923,26.52125 C74.6949756,29.0375838 75.7396333,32.86075 74.7013027,36.4 L73.885977,36.1083333 C74.8294524,32.88932 73.8783043,29.4125967 71.4283525,27.125 L71.4283525,27.125 Z" id="Path" fill="#25AE60" opacity="0.5" style="mix-blend-mode: multiply;"></path>
                    <path d="M59.3091188,39.8825 C57.4902477,38.1623876 56.3877091,35.8172024 56.2225287,33.3170833 L57.0727969,33.3170833 C57.4176877,38.2136914 61.565472,41.9612108 66.4636015,41.8016667 L66.5422222,42.6533333 C63.8551544,42.754426 61.2430868,41.7538038 59.3091188,39.8825 Z" id="Path" fill="#25AE60"></path>
                    <path d="M56.2225287,33.3170833 C56.0455529,30.8066605 56.9262975,28.3367311 58.6510345,26.5066667 C61.0568729,24.0228186 64.6547474,23.1088952 67.9515709,24.1441667 L67.7448276,24.9608333 C64.7425789,24.0206151 61.4676431,24.8581922 59.2829119,27.125 C57.717429,28.7859428 56.9161642,31.0266184 57.0727969,33.3054167 L56.2225287,33.3170833 Z" id="Path" fill="#FFFFFF" opacity="0.7"></path>
                    <ellipse id="Oval" fill="#FFFFFF" opacity="0.6" transform="translate(65.654329, 33.188994) rotate(-45.710000) translate(-65.654329, -33.188994) " cx="65.6543294" cy="33.1889944" rx="7.02936995" ry="7.38461726"></ellipse>
                    <path d="M48.092567,47.3025 L47.9498851,47.8858333 C46.4823831,47.4513694 44.9050383,47.5899788 43.5354789,48.27375 C42.740537,48.6713037 42.0494778,49.2496318 41.5175479,49.9625 L41.0225287,49.5833333 C41.6061808,48.7991854 42.3650995,48.1628827 43.2384674,47.7254167 C44.7450731,46.9753247 46.4792907,46.8242298 48.092567,47.3025 Z" id="Path" fill="#263238"></path>
                    <path d="M41.136092,56.5191667 C41.6260608,57.4308841 42.3245439,58.2134723 43.1744061,58.8029167 L42.8424521,59.29875 C41.9076772,58.6497872 41.1385754,57.7894943 40.5973946,56.7875 C39.3267709,54.5083645 39.4914868,51.6978993 41.0196169,49.5833333 L41.514636,49.9625 C40.1226305,51.8870697 39.9748521,54.446702 41.136092,56.5191667 L41.136092,56.5191667 Z" id="Path" fill="#25AE60" opacity="0.5" style="mix-blend-mode: multiply;"></path>
                    <path d="M52.4370881,50.8141667 C53.2920676,52.3660383 53.5113388,54.1900284 53.0485824,55.9008333 L52.4662069,55.7141667 C52.8879188,54.1564848 52.6884797,52.4955935 51.9100383,51.0825 C51.0750275,49.5249837 49.650159,48.3689209 47.9557088,47.8741667 L48.0983908,47.2908333 C49.9585027,47.8336574 51.5222258,49.1035128 52.4370881,50.8141667 L52.4370881,50.8141667 Z" id="Path" fill="#FFFFFF" opacity="0.7"></path>
                    <path d="M53.0485824,55.9008333 C52.5775688,57.6295793 51.3935476,59.0754426 49.7931034,59.87625 C47.5425366,60.9721701 44.8739503,60.7483965 42.8366284,59.2929167 L43.1685824,58.7970833 C45.0223522,60.1202589 47.4502298,60.3217024 49.496092,59.3220833 C50.9522629,58.5945176 52.0302698,57.2803258 52.4603831,55.7083333 L53.0485824,55.9008333 Z" id="Path" fill="#25AE60"></path>
                    <ellipse id="Oval" fill="#FFFFFF" opacity="0.6" transform="translate(46.519697, 53.795359) rotate(-45.710000) translate(-46.519697, -53.795359) " cx="46.5196968" cy="53.7953589" rx="5.03305219" ry="5.28638347"></ellipse>
                    <polygon id="Path" fill="#FFFFFF" points="55.3256705 10.4270833 54.172567 10.4270833 51.275249 14.7554167 54.600613 19.08375 55.7537165 19.08375 52.4283525 14.7554167"></polygon>
                    <polygon id="Path" fill="#FFFFFF" points="58.7762452 10.4270833 59.9293487 10.4270833 63.2576245 14.7554167 60.3573946 19.08375 59.2013793 19.08375 62.1016092 14.7554167"></polygon>
                    <g id="Group" opacity="0.6" transform="translate(21.256705, 9.333333)">
                        <path d="M8.09501916,5.01081859 L0.730881226,5.01081859 C0.587176831,5.00974928 0.449473313,5.06847484 0.350653895,5.1729865 C0.251834478,5.27749817 0.200770237,5.41841388 0.209655172,5.56208333 L0.460076628,10.6341667 C0.477100582,10.9437394 0.732919578,11.1858859 1.04245211,11.1854314 L8.40659004,11.1854314 C8.55029443,11.1865007 8.68799795,11.1277752 8.78681737,11.0232635 C8.88563679,10.9187518 8.93670103,10.7778361 8.92781609,10.6341667 L8.67739464,5.56208333 C8.66037068,5.25251062 8.40455169,5.01036406 8.09501916,5.01081859 Z M5.31417625,9.73 L3.9805364,9.73 L4.07371648,8.11708333 C3.81318195,7.95426344 3.6480623,7.67462169 3.63111111,7.3675 C3.61739751,7.13291927 3.70138952,6.90314143 3.86308386,6.73288966 C4.02477821,6.56263788 4.24970312,6.46714984 4.48429119,6.46913535 C4.98479845,6.47445409 5.39577234,6.86698706 5.42482759,7.3675 C5.44512739,7.66509653 5.30523522,7.95090143 5.05793103,8.11708333 L5.31417625,9.73 Z" id="Shape" fill="#25AE60"></path>
                        <path d="M3.63111111,7.3675 C3.6480623,7.67462169 3.81318195,7.95426344 4.07371648,8.11708333 L3.9805364,9.73 L4.65900383,9.73 L4.72888889,11.188334 L1.03662835,11.188334 C0.727095823,11.1888026 0.471276828,10.946656 0.454252874,10.6370833 L0.203831418,5.565 C0.194946482,5.42133054 0.246010723,5.28041484 0.344830141,5.17590317 C0.443649558,5.0713915 0.581353077,5.01266595 0.725057471,5.01373525 L4.40858238,5.01373525 L4.47846743,6.47208333 C4.24542444,6.47173021 4.02252302,6.56752902 3.86220293,6.73694215 C3.70188283,6.90635528 3.61829747,7.13442656 3.63111111,7.3675 L3.63111111,7.3675 Z" id="Path" fill="#000000" opacity="0.2"></path>
                        <path d="M7.4194636,4.64625 L7.4194636,4.64625 C7.14805962,4.64361161 6.92520656,4.43059633 6.90988506,4.15916667 L6.88367816,3.66333333 C6.82276218,2.27065532 5.73229349,1.14332045 4.34452107,1.03833333 C3.65985003,0.995283232 2.98964775,1.2485616 2.50400266,1.73388975 C2.01835757,2.2192179 1.76395683,2.88993915 1.80536398,3.57583333 L1.83448276,4.15916667 C1.84177101,4.28688865 1.79572554,4.41189769 1.70736712,4.50427348 C1.6190087,4.59664927 1.49628972,4.64807783 1.36858238,4.64625 L1.36858238,4.64625 C1.0971784,4.64361161 0.87432533,4.43059633 0.859003831,4.15916667 L0.835708812,3.675 C0.771163236,2.76889723 1.07501124,1.87513366 1.678213,1.19678873 C2.28141476,0.518443798 3.1327479,0.113120847 4.03877395,0.0729166667 C6.05069685,0.0205712778 7.74186589,1.57518699 7.86206897,3.5875 L7.88827586,4.17083333 C7.89314945,4.29733537 7.84552135,4.42021401 7.75670468,4.51028189 C7.667888,4.60034978 7.54580846,4.64956953 7.4194636,4.64625 Z" id="Path" fill="#25AE60"></path>
                    </g>
                    <polygon id="Path" fill="#25AE60" opacity="0.4" points="31.8908812 68.3258333 7.84168582 68.3258333 5.76842912 26.27625 29.8176245 26.27625"></polygon>
                    <polygon id="Path" fill="#25AE60" opacity="0.3" points="29.9166284 28.2916667 5.86743295 28.2916667 5.76842912 26.27625 29.8176245 26.27625"></polygon>
                    <polygon id="Path" fill="#25AE60" opacity="0.3" points="31.8908812 68.3258333 7.84168582 68.3258333 7.74268199 66.3104167 31.7918774 66.3104167"></polygon>
                    <path d="M13.2344828,38.17625 L12.3609195,37.7270833 C12.2298089,37.3508078 12.0620531,36.9883672 11.8600766,36.645 L11.8600766,36.645 L12.0959387,35.7320833 L10.2061303,33.9295833 L9.30927203,34.22125 L9.30927203,34.22125 C8.95672082,34.036243 8.58713336,33.8858206 8.2056705,33.7720833 L8.2056705,33.7720833 L7.71938697,32.9320833 L5.18314176,32.9320833 L4.77547893,33.7720833 C4.40863589,33.8849364 4.05441749,34.035458 3.71846743,34.22125 L3.71846743,34.22125 L2.7954023,33.9295833 L1.08321839,35.7320833 L1.40643678,36.645 L1.40643678,36.645 C1.23926637,36.9914761 1.10755981,37.3540206 1.01333333,37.7270833 L0.195095785,38.17625 L0.320306513,40.7254167 L1.19386973,41.1716667 L1.19386973,41.1716667 C1.32691518,41.547154 1.49458697,41.909413 1.69471264,42.25375 L1.69471264,42.25375 L1.4559387,43.1666667 L3.34574713,44.9691667 L4.24260536,44.6775 C4.59414817,44.8624992 4.96276898,45.0129251 5.34329502,45.1266667 L5.82375479,45.98125 L8.36873563,45.98125 L8.77348659,45.1383333 L8.77348659,45.1383333 C9.14052469,45.0260168 9.49479764,44.875472 9.83049808,44.6891667 L10.7564751,44.9808333 L12.4657471,43.1783333 L12.1425287,42.2654167 L12.1425287,42.2654167 C12.3114162,41.9196693 12.4431888,41.556943 12.5356322,41.1833333 L12.5356322,41.1833333 L13.3567816,40.7370833 L13.2344828,38.17625 Z M7.00306513,44.0708333 C4.42822754,44.0445387 2.31341915,42.0256662 2.1635249,39.4508333 C2.08992814,38.2437854 2.52042255,37.0603864 3.35203007,36.1837158 C4.1836376,35.3070453 5.34156009,34.8159545 6.54881226,34.8279167 C9.1252557,34.8542147 11.2413657,36.8743896 11.3912644,39.4508333 C11.4640592,40.6579035 11.0328007,41.8409917 10.2006457,42.7171042 C9.36849068,43.5932167 8.21028305,44.083556 7.00306513,44.0708333 L7.00306513,44.0708333 Z" id="Shape" fill="#25AE60"></path>
                    <path d="M6.58084291,35.4754167 C5.54278369,35.4654044 4.54722671,35.8878031 3.83218731,36.6416268 C3.1171479,37.3954505 2.74690004,38.4129389 2.80996169,39.4508333 C2.94173722,41.6702675 4.76885878,43.4072937 6.98850575,43.4233333 C8.02827465,43.4364977 9.02668969,43.0160092 9.74465598,42.2625643 C10.4626223,41.5091193 10.8354826,40.4905702 10.7739464,39.4508333 C10.6418658,37.2253264 8.80659581,35.4853353 6.58084291,35.4754167 L6.58084291,35.4754167 Z" id="Path" fill="#FFFFFF" opacity="0.6"></path>
                    <path d="M32.1413027,42.1166565 L18.4875096,42.1166565 C18.2153283,42.1154337 17.9547172,42.2268254 17.7672796,42.4245108 C17.5798419,42.6221962 17.4822133,42.8886303 17.4974713,43.1608333 L17.8439847,50.18125 C17.8776836,50.7636971 18.356407,51.2202526 18.9388506,51.2254167 L27.1445211,51.2254167 L27.2959387,54.2675 L30.1845211,51.2254167 L32.5926437,51.2254167 C32.8650942,51.2275102 33.1262215,51.1163843 33.3138482,50.9184996 C33.5014749,50.7206148 33.5988118,50.453678 33.582682,50.18125 L33.2361686,43.1666667 C33.2040177,42.5825711 32.7252854,42.1234565 32.1413027,42.1166565 Z" id="Path" fill="#25AE60"></path>
                    <path d="M13.7062069,53.8007939 L23.0242146,53.8007939 C23.4219114,53.8061918 23.7482209,54.1177768 23.772567,54.5154167 L24.0084291,59.3104167 C24.0197574,59.4963141 23.9534204,59.6785618 23.8252979,59.8135329 C23.6971755,59.948504 23.5188008,60.0240488 23.3328736,60.0220833 L17.7333333,60.0220833 L17.835249,62.1016667 L15.6571648,60.0220833 L14.011954,60.0220833 C13.6152866,60.0181467 13.2894681,59.7070903 13.2665134,59.3104167 L13.0306513,54.5154167 C13.0184788,54.3290309 13.0844387,54.1460011 13.2126569,54.0103756 C13.340875,53.8747501 13.5197404,53.7988108 13.7062069,53.8007939 Z" id="Path" fill="#FFFFFF"></path>
                </g>
                <g id="freepik--Character--inject-4" transform="translate(95.000000, 17.000000)" fill-rule="nonzero">
                    <path d="M18.8764706,30.8377705 L17.4852941,30.7764918 L18.1147059,33.4027213 C18.6103396,33.070016 19.0627675,32.6779917 19.4617647,32.2355082 C19.5780632,32.1022098 19.636003,31.9284136 19.6227541,31.752604 C19.6095052,31.5767944 19.5261609,31.4134784 19.3911765,31.2988197 L18.8764706,30.8377705 Z" id="Path" fill="#FF8B7B"></path>
                    <polygon id="Path" fill="#FF8B7B" points="15.8705882 32.1917377 16.4941176 34.3306557 18.1147059 33.3968852 17.4852941 30.7764918"></polygon>
                    <path d="M8.31470588,17.4527541 L7.64705882,18.2172787 C7.41764706,18.4799016 7.19411765,18.7483607 6.97352941,19.0197377 C6.53235294,19.5595738 6.09117647,20.1023279 5.68529412,20.6596721 C4.8613899,21.7319058 4.13314967,22.8732761 3.50882353,24.0708525 C3.43529412,24.2167541 3.37647059,24.3626557 3.30882353,24.5056393 L3.20882353,24.7186557 C3.20882353,24.7186557 3.20882353,24.7040656 3.20882353,24.7186557 C3.17373457,24.86221 3.17881938,25.0125451 3.22352941,25.1534426 C3.38682926,25.7279514 3.62826545,26.277707 3.94117647,26.787541 C4.65954549,27.976261 5.45741202,29.1158751 6.32941176,30.1987213 L5.22058824,31.3659344 C3.96881842,30.4567506 2.83910595,29.3928023 1.85882353,28.1998689 C1.30138727,27.5358305 0.85547284,26.7869925 0.538235294,25.9821639 C0.325360874,25.4374887 0.247685234,24.8499976 0.311764706,24.2692787 C0.33531101,24.0877116 0.376684076,23.9088617 0.435294118,23.7352787 L0.541176471,23.4434754 C0.611764706,23.2508852 0.679411765,23.055377 0.752941176,22.8598689 C1.36446568,21.4199951 2.13170357,20.0502254 3.04117647,18.774623 C3.48235294,18.1472459 3.92352941,17.534459 4.42058824,16.9508525 C4.66176471,16.6590492 4.90588235,16.3672459 5.15588235,16.0754426 C5.40588235,15.7836393 5.65588235,15.5151803 5.94705882,15.2000328 L8.31470588,17.4527541 Z" id="Path" fill="#FF8B7B"></path>
                    <polygon id="Path" fill="#FF8B7B" points="8.1 31.1149836 6.84411765 33.5719672 5.61764706 32.5273115 6.62352941 30.7764918"></polygon>
                    <path d="M20.4058824,15.0949836 C21.1794118,16.4518689 21.9,17.8145902 22.5911765,19.2064918 C23.2823529,20.5983934 23.9441176,22.0048852 24.5617647,23.4493115 L24.6117647,23.5747869 L24.6676471,23.7352787 C24.705045,23.839516 24.7326141,23.9469711 24.75,24.0562623 C24.7676471,24.1554754 24.7794118,24.2576066 24.7911765,24.3480656 C24.797004,24.4394059 24.797004,24.5310204 24.7911765,24.6223607 C24.7894219,24.7898286 24.7726895,24.9568115 24.7411765,25.1213443 C24.7155839,25.2665148 24.6802105,25.4098197 24.6352941,25.5502951 C24.4865461,26.019105 24.282172,26.4687165 24.0264706,26.8896721 C23.8056649,27.2627339 23.5610485,27.6214105 23.2941176,27.9635082 C23.0382353,28.2961639 22.7794118,28.6142295 22.5088235,28.9177049 C21.4361649,30.1107104 20.2546699,31.2028082 18.9794118,32.1800656 L17.8558824,31.0128525 C18.7970588,29.8456393 19.7323529,28.6317377 20.5441176,27.4207541 C20.9399351,26.8461011 21.2890743,26.2411349 21.5882353,25.6115738 C21.7101844,25.3607618 21.801043,25.0962097 21.8588235,24.8237049 C21.8670147,24.7793769 21.8719298,24.7345143 21.8735294,24.6894754 C21.8735294,24.651541 21.8735294,24.6194426 21.8735294,24.6136066 C21.8735294,24.6077705 21.8735294,24.5931803 21.8735294,24.6136066 C21.8721012,24.6203416 21.8721012,24.6272978 21.8735294,24.6340328 C21.8735294,24.6340328 21.8735294,24.657377 21.8735294,24.6748852 C21.8709967,24.683459 21.8709967,24.6925738 21.8735294,24.7011475 C21.8735294,24.7011475 21.8882353,24.7244918 21.8735294,24.7011475 C21.1705882,23.3676066 20.4323529,22.0311475 19.7029412,20.6888525 C18.9735294,19.3465574 18.2323529,18.0013443 17.5264706,16.6590492 L20.4058824,15.0949836 Z" id="Path" fill="#FF8B7B"></path>
                    <path d="M9.28235294,6.80485246 C9.31764706,6.97409836 9.25588235,7.13167213 9.14705882,7.16085246 C9.03823529,7.19003279 8.91764706,7.07331148 8.87941176,6.90406557 C8.84117647,6.73481967 8.90588235,6.57432787 9.01470588,6.54806557 C9.12352941,6.52180328 9.24411765,6.63560656 9.28235294,6.80485246 Z" id="Path" fill="#263238"></path>
                    <path d="M9.27352941,7.1287541 C9.18181756,7.69800326 9.0136553,8.25249762 8.77352941,8.77744262 C9.0472643,8.88669931 9.35594398,8.8684956 9.61470588,8.72783607 L9.27352941,7.1287541 Z" id="Path" fill="#FF5652"></path>
                    <path d="M9.09117647,8.43603279 C8.86764706,8.43603279 8.65,8.26386885 8.47647059,7.94580328 C8.11374398,7.18689476 8.05078199,6.32069189 8.3,5.518 C8.42941176,5.162 8.63235294,4.9577377 8.86764706,4.93439344 C9.10294118,4.91104918 9.32941176,5.08904918 9.51176471,5.42170492 C9.70052149,5.79522346 9.80870598,6.20368595 9.82941176,6.62101639 C9.90294118,7.59855738 9.59117647,8.3922623 9.12058824,8.42727869 L9.09117647,8.43603279 Z M8.89705882,5.08613115 L8.87647059,5.08613115 C8.70588235,5.08613115 8.54705882,5.27580328 8.43823529,5.56760656 C8.31393635,5.9435624 8.26888578,6.34086087 8.30588235,6.73481967 C8.32304966,7.13033414 8.42322434,7.51794117 8.6,7.87285246 C8.75,8.15006557 8.93529412,8.30180328 9.10588235,8.28721311 C9.47941176,8.26095082 9.74117647,7.50518033 9.67647059,6.63560656 C9.65896118,6.24014243 9.5588043,5.85260424 9.38235294,5.49757377 C9.23823529,5.23495082 9.06176471,5.08613115 8.89705882,5.08613115 Z" id="Shape" fill="#263238"></path>
                    <path d="M8.82352941,5.77479008 C8.84445006,5.77484457 8.86491908,5.76875218 8.88235294,5.75727869 C9.10460316,5.62547179 9.37728026,5.60808824 9.61470588,5.71059016 C9.66667766,5.73075695 9.7253814,5.70616596 9.74705882,5.65514754 C9.76762405,5.60277717 9.74299781,5.54362488 9.69117647,5.52091803 C9.38942076,5.3923691 9.04334862,5.41852902 8.76470588,5.59095082 C8.74212689,5.60576425 8.72656547,5.62902641 8.72157692,5.65542265 C8.71658838,5.68181889 8.7225989,5.70909396 8.73823529,5.73101639 C8.75764578,5.75867547 8.78956027,5.77505307 8.82352941,5.77479008 Z" id="Path" fill="#263238"></path>
                    <path d="M15.1529412,7.9924918 C15.0970588,9.75790164 14.4382353,11.8909836 15.5029412,12.9356393 C15.5029412,12.9356393 15.0088235,14.5259672 12.0705882,14.5259672 C8.83529412,14.5259672 10.6,12.9356393 10.6,12.9356393 C12.3794118,12.5183607 12.3852941,11.2227541 12.1264706,10.0030164 L15.1529412,7.9924918 Z" id="Path" fill="#FF8B7B"></path>
                    <path d="M16.2588235,13.4813115 C16.5117647,12.9794098 16.7676471,12.2061311 16.2588235,12.0222951 C15.6852941,11.8238689 12.7735294,11.3219672 10.5588235,12.0222951 C10.7937033,12.5175194 10.8044034,13.0886546 10.5882353,13.5921967 L16.2588235,13.4813115 Z" id="Path" fill="#263238"></path>
                    <path d="M20.1352941,87.188233 C19.9147059,87.188233 19.7,87.1252257 19.6205882,86.9132923 C19.5661759,86.7725341 19.5661759,86.578632 19.6205882,86.4378739 C19.6574205,86.315382 19.7195952,86.2297874 19.7911765,86.2030287 C20.1058824,86.0712862 20.6735294,86.8617409 20.7088235,86.8961085 C20.7255324,86.9168819 20.7337652,86.9558198 20.7294118,86.9934833 C20.7263139,87.0329519 20.7111581,87.0647382 20.6911765,87.0736744 C20.5083268,87.1481048 20.3220931,87.1864846 20.1352941,87.188233 L20.1352941,87.188233 Z M19.8794118,86.3863225 L19.8205882,86.3863225 C19.7783425,86.4040695 19.741371,86.4534423 19.7176471,86.5237929 C19.6676471,86.6899029 19.6941176,86.7586381 19.7029412,86.7815498 C19.7911765,87.016395 20.2323529,87.022123 20.5558824,86.9132923 C20.3542527,86.6384754 20.1227386,86.4581262 19.8794118,86.3863225 L19.8794118,86.3863225 Z" id="Shape" fill="#FFFFFF"></path>
                    <path d="M21.0065083,86.6750013 L20.9707948,86.6750013 C20.640445,86.550934 20.0154589,86.069795 20.0779575,85.8186344 C20.1030738,85.7366421 20.2088864,85.6775008 20.3324161,85.676411 C20.4518571,85.6685713 20.5709249,85.6936568 20.6627659,85.7460097 C21.0332934,85.9578319 21.0734711,86.5993505 21.0734711,86.6265848 C21.0750772,86.6458749 21.0614877,86.6642982 21.0377576,86.6750013 L21.0065083,86.6750013 Z M20.3949147,85.7671919 L20.3592012,85.7671919 C20.2565249,85.7671919 20.2431324,85.8095563 20.2386682,85.8246865 C20.1984905,85.972962 20.5958031,86.3391118 20.9172246,86.5085696 C20.9089247,86.2578909 20.7873899,86.01497 20.569018,85.8125824 C20.5243304,85.7866086 20.4671665,85.7726161 20.4083073,85.773244 L20.3949147,85.7671919 Z" id="Shape" fill="#FFFFFF"></path>
                    <path d="M7.16176471,87.1823363 C6.86764706,87.1823363 6.61764706,87.1087252 6.52941176,86.8709048 C6.48220765,86.741851 6.48220765,86.5696169 6.52941176,86.4405631 C6.76176471,85.7044524 7.72058824,86.7633194 7.82941176,86.887892 C7.84772116,86.9087659 7.85716239,86.9496627 7.85294118,86.989815 C7.84867494,87.0297042 7.83248409,87.060875 7.81176471,87.0690885 C7.59709699,87.1413704 7.37968505,87.1792495 7.16176471,87.1823363 L7.16176471,87.1823363 Z M6.82941176,86.3782768 C6.75221307,86.3591757 6.67569024,86.4220045 6.62941176,86.5424862 C6.58529412,86.6783835 6.60588235,86.7350074 6.61470588,86.757657 C6.70882353,87.0181269 7.25588235,87.0294517 7.66176471,86.9218663 C7.40570192,86.636541 7.12279715,86.4517828 6.82941176,86.3782768 Z" id="Shape" fill="#FFFFFF"></path>
                    <path d="M8.01482667,86.6692395 L7.98860866,86.6692395 C7.65901078,86.5459075 7.0335239,86.0676204 7.08595993,85.8239647 C7.08595993,85.7638028 7.14963224,85.6886004 7.33315833,85.6735599 C7.46915429,85.6574103 7.60692616,85.6917118 7.70770138,85.7668109 C8.04853554,85.9984342 8.08224442,86.591029 8.08224442,86.6181018 C8.08556435,86.6360043 8.07524297,86.6537674 8.0560264,86.6632233 C8.04335525,86.6685019 8.02900038,86.670598 8.01482667,86.6692395 L8.01482667,86.6692395 Z M7.38559436,85.7668109 L7.34814006,85.7668109 C7.22454085,85.7668109 7.21704999,85.8149404 7.21330456,85.8299809 C7.18334112,85.9833937 7.60657475,86.3533894 7.93617263,86.5158266 C7.91839081,86.2665756 7.80451259,86.027939 7.61032018,85.832989 C7.54661774,85.7922362 7.46700153,85.7709219 7.38559436,85.7728271 L7.38559436,85.7668109 Z" id="Shape" fill="#FFFFFF"></path>
                    <polygon id="Path" fill="#FF8B7B" points="10.1911765 86.5897049 8.02941176 86.5897049 8.00882353 81.6232131 10.1676471 81.6232131"></polygon>
                    <polygon id="Path" fill="#FF8B7B" points="23.1647059 86.5897049 21.0029412 86.5897049 20.1088235 81.6232131 22.2705882 81.6232131"></polygon>
                    <path d="M20.8588235,86.341648 L23.2852941,86.341648 C23.3730086,86.3402475 23.4488982,86.4019626 23.4647059,86.4875738 L23.8176471,88.3930492 C23.8334039,88.4889083 23.8053704,88.5867542 23.7411474,88.6600578 C23.6769243,88.7333613 23.5831662,88.774527 23.4852941,88.7723934 C22.6382353,88.7723934 22.2294118,88.7111148 21.1617647,88.7111148 C20.5058824,88.7111148 19.15,88.7782295 18.2441176,88.7782295 C17.3382353,88.7782295 17.2529412,87.8882295 17.6264706,87.8065246 C19.3058824,87.4446885 19.9529412,86.948623 20.5029412,86.4729836 C20.6014109,86.3875397 20.7280088,86.3408283 20.8588235,86.341648 Z" id="Path" fill="#263238"></path>
                    <path d="M8.05294118,86.3416548 L10.4058824,86.3416548 C10.4929259,86.3404656 10.5678528,86.4024133 10.5823529,86.4875738 L10.9352941,88.3930492 C10.9530693,88.4882462 10.9265855,88.5863174 10.8632194,88.6599459 C10.7998533,88.7335745 10.7063756,88.7748933 10.6088235,88.7723934 C9.75882353,88.7723934 8.53235294,88.7111148 7.46176471,88.7111148 C6.21176471,88.7111148 5.12647059,88.7782295 3.66176471,88.7782295 C2.77941176,88.7782295 2.56176471,87.8882295 2.93529412,87.8065246 C4.64117647,87.4417705 6.02352941,87.400918 7.51764706,86.508 C7.67738179,86.4050168 7.86253298,86.3474862 8.05294118,86.3416548 Z" id="Path" fill="#263238"></path>
                    <path d="M19.6264706,13.4229508 C21.6323529,13.884 23.7441176,19.3611475 23.7441176,19.3611475 L19.5705882,22.1274426 C18.612258,20.685092 17.7722999,19.1686708 17.0588235,17.5928197 C15.9529412,15.0862295 17.5735294,12.9502295 19.6264706,13.4229508 Z" id="Path" fill="#25AE60"></path>
                    <path d="M19.6264706,13.4229508 C21.6323529,13.884 23.7441176,19.3611475 23.7441176,19.3611475 L19.5705882,22.1274426 C18.612258,20.685092 17.7722999,19.1686708 17.0588235,17.5928197 C15.9529412,15.0862295 17.5735294,12.9502295 19.6264706,13.4229508 Z" id="Path" fill="#FAFAFA" opacity="0.3"></path>
                    <path d="M18.0382353,16.9245902 L19.7647059,22.0048852 L19.5676471,22.1361967 C19.5676471,22.1361967 18.7794118,20.9689836 17.9411765,19.4136721 L18.0382353,16.9245902 Z" id="Path" fill="#000000" opacity="0.2"></path>
                    <path d="M6.14411765,22.9970164 C6.16176471,25.3898033 6.30588235,28.3661967 6.66470588,32.0604262 L18.2352941,32.0604262 C18.3852941,30.3096066 17.6029412,21.713082 19.6352941,13.4200328 C18.3649347,13.1756665 17.079848,13.0138579 15.7882353,12.9356393 C14.1523349,12.8421946 12.5123709,12.8421946 10.8764706,12.9356393 C9.74733688,13.0446319 8.6283414,13.2397444 7.52941176,13.5192459 C7.52941176,13.5192459 6.54117647,14.5814098 6.24117647,19.5624918 C6.17647059,20.557541 6.13823529,21.6897377 6.14411765,22.9970164 Z" id="Path" fill="#25AE60"></path>
                    <path d="M6.14411765,22.9970164 C6.16176471,25.3898033 6.30588235,28.3661967 6.66470588,32.0604262 L18.2352941,32.0604262 C18.3852941,30.3096066 17.6029412,21.713082 19.6352941,13.4200328 C18.3649347,13.1756665 17.079848,13.0138579 15.7882353,12.9356393 C14.1523349,12.8421946 12.5123709,12.8421946 10.8764706,12.9356393 C9.74733688,13.0446319 8.6283414,13.2397444 7.52941176,13.5192459 C7.52941176,13.5192459 6.54117647,14.5814098 6.24117647,19.5624918 C6.17647059,20.557541 6.13823529,21.6897377 6.14411765,22.9970164 Z" id="Path" fill="#FAFAFA" opacity="0.3"></path>
                    <path d="M6.14411765,22.9970164 C6.84411765,21.7305902 8.11470588,19.1889836 7.93529412,17.7445574 L6.22941176,19.577082 C6.17647059,20.557541 6.13823529,21.6897377 6.14411765,22.9970164 Z" id="Path" fill="#000000" opacity="0.2"></path>
                    <path d="M9.78235294,15.4655738 C9.96470588,17.5081967 5.29705882,22.4221639 5.29705882,22.4221639 L1.55588235,19.3961639 C2.53633088,17.7587116 3.71032577,16.2432541 5.05294118,14.8819672 C7.24117647,12.7809836 9.57941176,13.1807541 9.78235294,15.4655738 Z" id="Path" fill="#25AE60"></path>
                    <path d="M9.78235294,15.4655738 C9.96470588,17.5081967 5.29705882,22.4221639 5.29705882,22.4221639 L1.55588235,19.3961639 C2.53633088,17.7587116 3.71032577,16.2432541 5.05294118,14.8819672 C7.24117647,12.7809836 9.57941176,13.1807541 9.78235294,15.4655738 Z" id="Path" fill="#FAFAFA" opacity="0.3"></path>
                    <polygon id="Path" fill="#000000" opacity="0.2" points="8.00882353 81.6261311 8.02058824 84.1852459 10.1823529 84.1852459 10.1705882 81.6261311"></polygon>
                    <polygon id="Path" fill="#000000" opacity="0.2" points="22.2705882 81.6261311 20.1088235 81.6261311 20.5705882 84.1852459 22.7323529 84.1852459"></polygon>
                    <path d="M14.8411765,5.03360656 C15.1558824,7.14334426 15.45,8.36016393 14.6294118,9.68786885 C14.0996562,10.5738657 13.1179717,11.0948804 12.0810957,11.0403505 C11.0442198,10.9858205 10.1235542,10.3647599 9.69117647,9.42816393 C8.84705882,7.67734426 8.47058824,4.51419672 10.3264706,3.1777377 C11.1255904,2.56655191 12.1931166,2.4259637 13.1252758,2.80914817 C14.057435,3.19233264 14.7119175,4.04079032 14.8411765,5.03360656 Z" id="Path" fill="#FF8B7B"></path>
                    <path d="M11.2264706,4.45583607 C4.42941176,4.29242623 9.99117647,0.210098361 9.99117647,0.210098361 C8.87352941,2.15642623 12.0764706,1.97842623 12.8852941,1.10301639 C13.8676471,0.0320983607 15.6441176,1.52321311 15.5029412,2.69042623 C16.5382353,2.56203279 17.3588235,3.32363934 16.9735294,5.77478689 C16.5882353,8.22593443 15.7794118,8.9175082 15.3558824,9.51570492 C14.9323529,10.1139016 14.9676471,9.54488525 13.5558824,9.8075082 C12.5852941,9.98842623 10.9588235,7.91078689 10.7794118,6.69688525 C10.6521201,5.92084004 10.8108254,5.12527056 11.2264706,4.45583607 L11.2264706,4.45583607 Z" id="Path" fill="#263238"></path>
                    <path d="M14.7235294,3.04642623 C14.7235294,3.04642623 16.4882353,2.31691803 15.3117647,0.487311475 C16.9470588,1.33062295 16.7,2.86842623 14.7235294,3.04642623 Z" id="Path" fill="#263238"></path>
                    <path d="M12.1676603,6.33796721 C12.1594192,6.87520492 11.9780128,7.39571208 11.65,7.8232459 C11.2117647,8.3835082 10.7088235,8.11504918 10.5882353,7.4847541 C10.4823529,6.9244918 10.5882353,5.95862295 11.1352941,5.62013115 C11.6823529,5.28163934 12.1705882,5.696 12.1676603,6.33796721 Z" id="Path" fill="#FF8B7B"></path>
                    <path d="M10.7676471,32.0604262 C10.7676471,32.0604262 12.5823529,48.4393443 13.6882353,54.5672131 C14.9,61.2786885 19.5705882,83.6775082 19.5705882,83.6775082 L23.5294118,83.6775082 C23.5294118,83.6775082 20.7176471,61.8331148 20.1352941,55.177082 C19.5029412,47.9549508 18.2117647,32.0487541 18.2117647,32.0487541 L10.7676471,32.0604262 Z" id="Path" fill="#263238"></path>
                    <path d="M19.0088235,82.2418361 C18.9911765,82.2418361 19.3588235,83.750459 19.3588235,83.750459 L23.8235294,83.750459 L23.7941176,82.4052459 L19.0088235,82.2418361 Z" id="Path" fill="#25AE60"></path>
                    <path d="M12.0882353,37.8964918 C14.9029412,38.448 14.1941176,48.9383279 13.6441176,54.3337705 C12.9735294,50.5199016 12.0617647,43.1810492 11.4470588,37.9723607 C11.6460613,37.8761122 11.8719989,37.8493776 12.0882353,37.8964918 L12.0882353,37.8964918 Z" id="Path" fill="#000000" opacity="0.2"></path>
                    <path d="M6.66764706,32.0604262 C6.66764706,32.0604262 5.74411765,48.0891803 5.72647059,54.6255738 C5.70588235,61.4245902 7.23235294,83.6891803 7.23235294,83.6891803 L10.8823529,83.6891803 C10.8823529,83.6891803 11.8676471,61.8214426 12.2911765,55.1449836 C12.75,47.8499016 14.2529412,32.0604262 14.2529412,32.0604262 L6.66764706,32.0604262 Z" id="Path" fill="#263238"></path>
                    <path d="M5.78235294,30.0032131 L6.80882353,30.084918 C6.97794503,30.0981644 7.13197511,30.1865272 7.2279157,30.3253396 C7.32385628,30.464152 7.3514306,30.638545 7.30294118,30.7998361 L6.87941176,32.215082 C6.80684855,32.4484734 6.62386783,32.6319309 6.38940027,32.7063701 C6.15493271,32.7808093 5.89859427,32.7368278 5.70294118,32.5885902 C5.1715851,32.0998856 4.79112575,31.471451 4.60588235,30.7764918 L5.78235294,30.0032131 Z" id="Path" fill="#FF8B7B"></path>
                    <path d="M8.1,81.0804592 C8.07998047,81.0804592 8.06330459,81.0652459 8.06176471,81.0454426 C7.65588235,74.8854754 6.71470588,59.9743279 6.73235294,54.6255738 C6.74705882,49.1542623 7.40294118,36.9131148 7.61470588,33.2918361 C7.61024858,33.2763552 7.61612651,33.2597691 7.62936834,33.2504623 C7.64261017,33.2411555 7.660331,33.2411555 7.67357284,33.2504623 C7.68681467,33.2597691 7.6926926,33.2763552 7.68823529,33.2918361 C7.48823529,36.9131148 6.83235294,49.1542623 6.80588235,54.6226557 C6.78823529,59.9684918 7.72941176,74.8767213 8.13529412,81.0396066 C8.13611861,81.0493878 8.13276741,81.0590633 8.12605702,81.0662757 C8.11934663,81.0734881 8.10989319,81.0775751 8.1,81.077541 L8.1,81.0804592 Z" id="Path" fill="#FAFAFA" opacity="0.2"></path>
                    <path d="M6.58529412,82.2418361 C6.56764706,82.2418361 6.73235294,83.750459 6.73235294,83.750459 L11.1764706,83.750459 L11.35,82.4052459 L6.58529412,82.2418361 Z" id="Path" fill="#25AE60"></path>
                </g>
                <text id="App" font-family="Montserrat-Medium, Montserrat" font-size="21.6296296" font-weight="400" fill="#212121">
                    <tspan x="50.3321481" y="140">App</tspan>
                </text>
            </g>
        </g>
    </g>
</svg>