<?xml version="1.0" encoding="UTF-8"?>
<svg width="225px" height="183px" viewBox="0 0 225 183" version="1.1" xmlns="http://www.w3.org/2000/svg" xmlns:xlink="http://www.w3.org/1999/xlink">
    <title>F4D89B8A-C207-4B21-8FA5-66E544633E87</title>
    <g id="Page-1" stroke="none" stroke-width="1" fill="none" fill-rule="evenodd">
        <g id="assets-tambahan" transform="translate(-826.000000, -1271.000000)">
            <g id="Checking-boxes-rafiki" transform="translate(826.000000, 1271.000000)">
                <g id="freepik--background-complete--inject-2" transform="translate(0.000000, 20.000000)" fill-rule="nonzero">
                    <rect id="Rectangle" fill="#EBEBEB" x="206.220213" y="145.584332" width="18.6921" height="1"></rect>
                    <rect id="Rectangle" fill="#EBEBEB" x="153.027869" y="147.117271" width="4.90441875" height="1"></rect>
                    <rect id="Rectangle" fill="#EBEBEB" x="194.825481" y="140.354303" width="10.8303562" height="1"></rect>
                    <rect id="Rectangle" fill="#EBEBEB" x="0.6071125" y="141.301119" width="24.3753562" height="1"></rect>
                    <rect id="Rectangle" fill="#EBEBEB" x="30.01105" y="141.301119" width="3.57249375" height="1"></rect>
                    <rect id="Rectangle" fill="#EBEBEB" x="45.1983813" y="143.679429" width="52.87065" height="1"></rect>
                    <rect id="Rectangle" fill="#F5F5F5" x="0.6071125" y="90.6690292" width="51.1718813" height="45.824746"></rect>
                    <rect id="Rectangle" fill="#EBEBEB" x="0.6071125" y="90.6690292" width="17.811675" height="45.824746"></rect>
                    <rect id="Rectangle" fill="#EBEBEB" x="10.7884375" y="45.7854629" width="51.1718813" height="45.824746"></rect>
                    <rect id="Rectangle" fill="#E0E0E0" x="10.7884375" y="45.7854629" width="17.811675" height="45.824746"></rect>
                    <rect id="Rectangle" fill="#F5F5F5" x="0.6071125" y="0.0959762248" width="51.1718813" height="45.824746"></rect>
                    <rect id="Rectangle" fill="#EBEBEB" x="0.6071125" y="0.0959762248" width="17.811675" height="45.824746"></rect>
                    <rect id="Rectangle" fill="#EBEBEB" x="56.2939937" y="90.7084798" width="51.1718813" height="45.824746"></rect>
                    <rect id="Rectangle" fill="#E0E0E0" x="56.2939937" y="90.7084798" width="17.811675" height="45.824746"></rect>
                    <rect id="Rectangle" fill="#F5F5F5" x="61.9603187" y="62.9521308" width="51.1718812" height="28.7031646"></rect>
                    <rect id="Rectangle" fill="#E6E6E6" x="61.9603187" y="62.9521308" width="17.811675" height="28.7031646"></rect>
                    <rect id="Rectangle" fill="#EBEBEB" x="57.9871187" y="17.6064283" width="33.0610875" height="45.824746"></rect>
                    <rect id="Rectangle" fill="#E0E0E0" x="57.9871187" y="17.6064283" width="11.5076062" height="45.824746"></rect>
                    <rect id="Rectangle" fill="#F5F5F5" transform="translate(192.147522, 113.665939) rotate(180.000000) translate(-192.147522, -113.665939) " x="166.561581" y="90.7535663" width="51.1718813" height="45.824746"></rect>
                    <rect id="Rectangle" fill="#E6E6E6" transform="translate(208.827625, 113.665939) rotate(180.000000) translate(-208.827625, -113.665939) " x="199.921787" y="90.7535663" width="17.811675" height="45.824746"></rect>
                    <rect id="Rectangle" fill="#EBEBEB" transform="translate(181.960553, 73.043043) rotate(180.000000) translate(-181.960553, -73.043043) " x="156.374612" y="54.3913401" width="51.1718812" height="37.303406"></rect>
                    <rect id="Rectangle" fill="#E0E0E0" transform="translate(198.646300, 73.043043) rotate(180.000000) translate(-198.646300, -73.043043) " x="189.740462" y="54.3913401" width="17.811675" height="37.303406"></rect>
                    <rect id="Rectangle" fill="#F5F5F5" transform="translate(193.058988, 45.261333) rotate(180.000000) translate(-193.058988, -45.261333) " x="168.384513" y="36.1313256" width="49.34895" height="18.2600144"></rect>
                    <rect id="Rectangle" fill="#E6E6E6" transform="translate(209.152141, 45.261333) rotate(180.000000) translate(-209.152141, -45.261333) " x="200.565175" y="36.1313256" width="17.1739313" height="18.2600144"></rect>
                </g>
                <g id="freepik--Shadow--inject-2" transform="translate(2.500000, 168.875000)" fill="#F5F5F5" fill-rule="nonzero">
                    <ellipse id="freepik--path--inject-2" cx="109.59375" cy="6.69375" rx="109.531609" ry="6.190625"></ellipse>
                </g>
                <g id="freepik--bubble-speech--inject-2" transform="translate(154.750000, 2.187500)">
                    <rect id="Rectangle" fill="#25AE60" fill-rule="nonzero" x="0.276315789" y="0.534375" width="20.3865789" height="19.29375" rx="4.53"></rect>
                    <path d="M8.47736842,17.375625 C8.47736842,17.375625 9.765,23.715 18.5407895,27.230625 C18.5407895,27.230625 13.1747368,23.7375 13.5063158,17.375625 L8.47736842,17.375625 Z" id="Path" fill="#25AE60" fill-rule="nonzero"></path>
                    <polyline id="Path" stroke="#FFFFFF" stroke-width="3" stroke-linecap="round" stroke-linejoin="round" points="6.05684211 9.635625 8.96921053 13.753125 14.8823684 6.615"></polyline>
                </g>
                <g id="freepik--character-2--inject-2" transform="translate(133.750000, 21.875000)">
                    <path d="M58.235625,3.05244545 C60.98625,5.02921364 63.4725,8.40830455 61.610625,17.8697591 C59.74875,27.3312136 59.27625,29.5839409 59.27625,29.5839409 L41.27625,27.5564864 C41.27625,27.5564864 40.4325,19.1819727 41.83875,11.3030591 C43.74,1.12636364 50.180625,-2.74269545 58.235625,3.05244545 Z" id="Path" fill="#263238" fill-rule="nonzero"></path>
                    <path d="M40.21875,55.3326136 C40.21875,55.3326136 34.12125,87.8563636 32.495625,101.220668 C30.369375,118.645514 21.67875,144.135123 21.67875,144.135123 L25.155,145.036214 C25.155,145.036214 37.40625,123.370609 39.78,103.884518 C49.51125,83.9647773 50.29875,59.4325773 50.29875,59.4325773 L40.21875,55.3326136 Z" id="Path" fill="#EEC1BB" fill-rule="nonzero"></path>
                    <path d="M15.1875,152.019668 C15.749118,151.760902 16.3536221,151.608161 16.970625,151.569123 L16.970625,151.569123 C16.970625,151.569123 19.108125,150.307595 21.223125,145.419177 L23.608125,145.419177 C24.431656,145.430668 25.1610086,145.954192 25.43625,146.731391 C25.4753678,146.838105 25.4981256,146.950133 25.50375,147.063668 C25.4771919,147.63018 25.4151954,148.194468 25.318125,148.753214 C24.9692743,150.656911 24.5052956,152.537644 23.92875,154.385032 L23.52375,154.278027 L24.255,150.72435 C24.5025,149.513509 23.23125,150.679295 22.64625,151.9014 C22.06125,153.123505 21.178125,154.311818 18.5625,153.748636 C15.48,153.0165 14.248125,152.571586 15.1875,152.019668 Z" id="Path" fill="#263238" fill-rule="nonzero"></path>
                    <path d="M25.52625,146.776445 C25.97625,145.621923 26.55,143.555045 26.55,143.555045 L21.448125,142.845436 C21.448125,142.845436 21.448125,145.357227 20.503125,147.001718 C23.169375,146.990455 25.52625,146.776445 25.52625,146.776445 Z" id="Path" fill="#263238" fill-rule="nonzero"></path>
                    <path d="M46.546875,54.8144864 C46.546875,54.8144864 47.30625,87.9014182 48.470625,101.305145 C49.995,118.797573 46.755,145.537445 46.755,145.537445 L50.34375,145.695136 C50.34375,145.695136 57.853125,121.962655 56.165625,102.397718 C61.57125,80.8954364 57.290625,56.7349364 57.290625,56.7349364 L46.546875,54.8144864 Z" id="Path" fill="#EEC1BB" fill-rule="nonzero"></path>
                    <path d="M41.175,153.112241 C41.7061679,152.792325 42.2915016,152.572797 42.901875,152.464582 L42.901875,152.464582 C42.901875,152.464582 44.8875,150.983414 46.468125,145.89225 L48.830625,145.621923 C49.6570319,145.54409 50.4430195,145.995058 50.79375,146.748286 C50.8442055,146.849272 50.8783783,146.957617 50.895,147.0693 C50.9315637,147.645041 50.9315637,148.222527 50.895,148.798268 C50.7502591,150.719661 50.4891539,152.630484 50.113125,154.520195 L49.7025,154.463877 L50.045625,150.84825 C50.158125,149.620514 49.0275,150.915832 48.571875,152.194255 C48.11625,153.472677 47.35125,154.784891 44.67375,154.446982 C41.5575,154.06965 40.280625,153.748636 41.175,153.112241 Z" id="Path" fill="#263238" fill-rule="nonzero"></path>
                    <path d="M50.866875,146.776445 C51.1875,145.5825 51.53625,143.464936 51.53625,143.464936 L46.389375,143.312877 C46.389375,143.312877 46.659375,145.807773 45.9,147.548005 C48.54375,147.238255 50.866875,146.776445 50.866875,146.776445 Z" id="Path" fill="#263238" fill-rule="nonzero"></path>
                    <path d="M38.919375,49.9035409 L32.23125,96.20835 C32.23125,96.20835 54.01125,99.5874409 62.73,97.6106727 C62.73,97.6106727 64.873125,70.8764318 55.771875,51.4297636 L38.919375,49.9035409 Z" id="Path" fill="#263238" fill-rule="nonzero"></path>
                    <path d="M18.7875,33.5318455 L12.965625,27.7761273 C12.965625,27.7761273 12.76875,26.2330091 12.200625,25.8049909 C11.6325,25.3769727 7.65,23.9239636 7.138125,24.2449773 C6.62625,24.5659909 5.968125,27.7986545 6.654375,28.3899955 C7.340625,28.9813364 10.96875,29.736 11.34,29.67405 L17.656875,37.17 L18.7875,33.5318455 Z" id="Path" fill="#EEC1BB" fill-rule="nonzero"></path>
                    <path d="M39.6225,23.0397682 C37.11375,24.3745091 28.20375,36.8433545 26.893125,37.4572227 C25.5825,38.0710909 15.553125,29.9331136 15.553125,29.9331136 L13.865625,32.8222364 C13.865625,32.8222364 22.089375,44.4913636 26.74125,43.9281818 C31.393125,43.365 40.2975,33.5093182 40.2975,33.5093182 L39.6225,23.0397682 Z" id="Path" fill="#25AE60" fill-rule="nonzero"></path>
                    <path d="M39.6225,23.0397682 C37.11375,24.3745091 28.20375,36.8433545 26.893125,37.4572227 C25.5825,38.0710909 15.553125,29.9331136 15.553125,29.9331136 L13.865625,32.8222364 C13.865625,32.8222364 22.089375,44.4913636 26.74125,43.9281818 C31.393125,43.365 40.2975,33.5093182 40.2975,33.5093182 L39.6225,23.0397682 Z" id="Path" fill="#FFFFFF" fill-rule="nonzero" opacity="0.1"></path>
                    <polygon id="Path" fill="#25AE60" fill-rule="nonzero" points="16.104375 30.2428636 15.406875 29.5839409 13.57875 32.6814409 14.236875 33.9486"></polygon>
                    <path d="M36.72,37.1193136 C38.80125,35.1312818 40.2975,33.4811591 40.2975,33.4811591 L40.14,31.0031591 L39.375,28.5983727 C37.1864827,30.854068 36.2006935,34.0178536 36.72,37.1193136 L36.72,37.1193136 Z" id="Path" fill="#000000" fill-rule="nonzero" opacity="0.2"></path>
                    <path d="M38.77875,49.4304682 C38.075625,37.0404682 38.390625,30.2147045 38.71125,26.8074545 C39.065625,23.1749318 39.6225,23.0397682 39.6225,23.0397682 C39.6225,23.0397682 43.56,22.6568045 46.974375,22.6849636 C49.6158565,22.7746 52.2475613,23.053146 54.849375,23.5184727 C57.3259083,23.929894 59.7697043,24.5189981 62.161875,25.2812318 C61.7625,26.4075955 61.4025,27.5339591 61.065,28.5251591 C60.620625,29.8711636 60.22125,31.1157955 59.855625,32.2815818 C59.180625,34.4554636 58.651875,36.3364909 58.235625,38.0204045 C57.1602773,42.2606159 56.5324623,46.6021321 56.3625,50.9735864 C56.3625,50.9735864 60.688125,62.2935409 61.531875,70.6004727 L47.188125,72.1492227 L45.219375,63.8422909 L43.250625,72.4308136 L35.235,69.6149045 L38.77875,49.4304682 Z" id="Path" fill="#25AE60" fill-rule="nonzero"></path>
                    <path d="M38.77875,49.4304682 C38.075625,37.0404682 38.390625,30.2147045 38.71125,26.8074545 C39.065625,23.1749318 39.6225,23.0397682 39.6225,23.0397682 C39.6225,23.0397682 43.56,22.6568045 46.974375,22.6849636 C49.6158565,22.7746 52.2475613,23.053146 54.849375,23.5184727 C57.3259083,23.929894 59.7697043,24.5189981 62.161875,25.2812318 C61.7625,26.4075955 61.4025,27.5339591 61.065,28.5251591 C60.620625,29.8711636 60.22125,31.1157955 59.855625,32.2815818 C59.180625,34.4554636 58.651875,36.3364909 58.235625,38.0204045 C57.1602773,42.2606159 56.5324623,46.6021321 56.3625,50.9735864 C56.3625,50.9735864 60.688125,62.2935409 61.531875,70.6004727 L47.188125,72.1492227 L45.219375,63.8422909 L43.250625,72.4308136 L35.235,69.6149045 L38.77875,49.4304682 Z" id="Path" fill="#FFFFFF" fill-rule="nonzero" opacity="0.1"></path>
                    <path d="M57.538125,41.0559545 C57.729375,40.1098091 57.954375,39.1017136 58.23,38.0204045 C58.404375,37.3333227 58.595625,36.61245 58.7925,35.8465227 C58.23,33.9260727 57.6675,35.4297682 57.6675,35.4297682 C57.3186811,37.2855995 57.2749808,39.1860169 57.538125,41.0559545 L57.538125,41.0559545 Z" id="Path" fill="#000000" fill-rule="nonzero" opacity="0.2"></path>
                    <path d="M47.17125,23.4396273 C47.3445086,23.3518277 47.5229665,23.2747157 47.705625,23.2087227 C48.110625,22.8877091 48.605625,22.11615 48.583125,20.2407545 C48.564825,19.4971957 48.4952848,18.7557882 48.375,18.0218182 L53.589375,17.0475136 C53.589375,17.0475136 51.811875,20.5617682 53.29125,23.1749318 C53.803125,23.4002045 54.106875,23.7381136 54.050625,24.1492364 C53.6625,27.1622591 47.1825,30.0795409 47.1825,30.0795409 C47.1825,30.0795409 44.026875,25.1685955 47.17125,23.4396273 Z" id="Path" fill="#EEC1BB" fill-rule="nonzero"></path>
                    <path d="M48.375,18.0218182 C48.4926302,18.7503426 48.5602885,19.4860777 48.5775,20.2238591 C52.09875,20.2238591 53.589375,17.0475136 53.589375,17.0475136 L48.375,18.0218182 Z" id="Path" fill="#000000" fill-rule="nonzero" opacity="0.2"></path>
                    <path d="M51.260625,3.44104091 C46.726875,3.19324091 45.135,5.54170909 44.55,10.1992227 C43.813125,16.0225227 44.881875,20.2463864 50.619375,19.3115045 C58.41,18.0218182 58.7925,3.85216364 51.260625,3.44104091 Z" id="Path" fill="#EEC1BB" fill-rule="nonzero"></path>
                    <path d="M47.491875,10.1372727 C47.0918416,10.7949864 46.614014,11.4019767 46.06875,11.9450864 C46.3220998,12.3379818 46.7740441,12.5555261 47.23875,12.5082682 L47.491875,10.1372727 Z" id="Path" fill="#D4827D" fill-rule="nonzero"></path>
                    <path d="M50.2875,9.88947273 C50.2875,10.2611727 50.43375,10.5821864 50.68125,10.5990818 C50.92875,10.6159773 51.15375,10.3343864 51.1875,9.96268636 C51.22125,9.59098636 51.035625,9.26997273 50.788125,9.25307727 C50.540625,9.23618182 50.315625,9.51777273 50.2875,9.88947273 Z" id="Path" fill="#263238" fill-rule="nonzero"></path>
                    <path d="M50.889375,9.27560455 L50.1075,8.89827273 C50.1075,8.89827273 50.45625,9.60788182 50.889375,9.27560455 Z" id="Path" fill="#263238" fill-rule="nonzero"></path>
                    <path d="M45.669375,9.45019091 C45.64125,9.82189091 45.815625,10.1372727 46.063125,10.1598 C46.310625,10.1823273 46.54125,9.89510455 46.569375,9.51777273 C46.5975,9.14044091 46.4175,8.83069091 46.17,8.80816364 C45.9225,8.78563636 45.6975,9.07849091 45.669375,9.45019091 Z" id="Path" fill="#263238" fill-rule="nonzero"></path>
                    <path d="M46.27125,8.83632273 L45.489375,8.45335909 C45.489375,8.45335909 45.838125,9.1686 46.27125,8.83632273 Z" id="Path" fill="#263238" fill-rule="nonzero"></path>
                    <path d="M50.506875,6.75818182 C51.2365772,6.7089165 51.9476254,7.00242326 52.430625,7.55226818" id="Path" stroke="#263238" stroke-width="0.686238" stroke-linecap="round" stroke-linejoin="round"></path>
                    <path d="M47.25,6.38648182 C46.6314598,6.19118633 45.9576193,6.29082801 45.421875,6.65680909" id="Path" stroke="#263238" stroke-width="0.686238" stroke-linecap="round" stroke-linejoin="round"></path>
                    <path d="M55.8,11.3650091 C55.8,11.3650091 53.881875,7.51847727 54.36,4.65751364 C54.36,4.65751364 45.579375,0.489968182 44.634375,9.59098636 C44.634375,9.59098636 44.20125,1.43611364 52.003125,1.70644091 C59.805,1.97676818 59.146875,13.3699364 54.939375,16.5519136 C54.939375,16.5293864 56.98125,13.7697955 55.8,11.3650091 Z" id="Path" fill="#263238" fill-rule="nonzero"></path>
                    <path d="M55.006875,12.2829955 C55.1634941,11.1951316 56.1699367,10.4393847 57.256875,10.59345 C58.651875,10.8243545 59.16375,13.7529 55.63125,14.2541318 C55.125,14.31045 54.860625,13.8035864 55.006875,12.2829955 Z" id="Path" fill="#EEC1BB" fill-rule="nonzero"></path>
                    <path d="M50.776875,13.5557864 C50.0837736,14.2405393 49.1461664,14.6196864 48.1725,14.6089364" id="Path" stroke="#263238" stroke-width="0.686238" stroke-linecap="round" stroke-linejoin="round"></path>
                    <path d="M54.36,4.65751364 C54.36,4.65751364 44.56125,2.1063 43.74,11.3030591" id="Path" stroke="#263238" stroke-width="0.686238" stroke-linecap="round" stroke-linejoin="round"></path>
                    <path d="M45.61875,25.6754591 C45.61875,25.6754591 44.870625,33.1319864 46.096875,39.9183273 C46.096875,39.9183273 48.988125,29.4318818 53.049375,25.8669409 L48.380625,26.5371273 L45.61875,25.6754591 Z" id="Path" fill="#25AE60" fill-rule="nonzero"></path>
                    <path d="M45.61875,25.6754591 C45.61875,25.6754591 44.870625,33.1319864 46.096875,39.9183273 C46.096875,39.9183273 48.988125,29.4318818 53.049375,25.8669409 L48.380625,26.5371273 L45.61875,25.6754591 Z" id="Path" fill="#FFFFFF" fill-rule="nonzero" opacity="0.5"></path>
                    <path d="M53.116875,22.3583182 L48.375,25.8669409 L48.375,22.1386773 C48.375,22.1386773 44.544375,23.5297364 44.814375,27.7704955 L47.95875,26.3231182 L47.95875,27.7704955 L48.695625,26.3738045 L51.181875,29.2178727 C51.181875,29.2178727 54.225,25.6641955 54.556875,24.59415 C54.88875,23.5241045 53.116875,22.3583182 53.116875,22.3583182 Z" id="Path" fill="#25AE60" fill-rule="nonzero"></path>
                    <path d="M53.116875,22.3583182 L48.375,25.8669409 L48.375,22.1386773 C48.375,22.1386773 44.544375,23.5297364 44.814375,27.7704955 L47.95875,26.3231182 L47.95875,27.7704955 L48.695625,26.3738045 L51.181875,29.2178727 C51.181875,29.2178727 54.225,25.6641955 54.556875,24.59415 C54.88875,23.5241045 53.116875,22.3583182 53.116875,22.3583182 Z" id="Path" fill="#FFFFFF" fill-rule="nonzero" opacity="0.7"></path>
                    <path d="M58.066875,55.2594 L53.713125,34.4610955 C53.6200084,34.0125189 53.2257314,33.6906056 52.768125,33.6895364 L39.375,33.6895364 C39.1754586,33.6897831 38.9862515,33.7784117 38.8581881,33.9316221 C38.7301248,34.0848324 38.6763301,34.2869223 38.71125,34.4836227 L42.339375,54.8482773 C42.4170229,55.3010127 42.8032307,55.6358175 43.261875,55.6479955 L57.42,56.0703818 C57.6201453,56.0660894 57.8080621,55.9730701 57.932988,55.8164515 C58.0579139,55.6598329 58.1069591,55.4557749 58.066875,55.2594 Z" id="Path" fill="#263238" fill-rule="nonzero"></path>
                    <path d="M58.066875,55.2594 L53.713125,34.4610955 C53.6200084,34.0125189 53.2257314,33.6906056 52.768125,33.6895364 L39.375,33.6895364 C39.1754586,33.6897831 38.9862515,33.7784117 38.8581881,33.9316221 C38.7301248,34.0848324 38.6763301,34.2869223 38.71125,34.4836227 L42.339375,54.8482773 C42.4170229,55.3010127 42.8032307,55.6358175 43.261875,55.6479955 L57.42,56.0703818 C57.6201453,56.0660894 57.8080621,55.9730701 57.932988,55.8164515 C58.0579139,55.6598329 58.1069591,55.4557749 58.066875,55.2594 Z" id="Path" fill="#FFFFFF" fill-rule="nonzero" opacity="0.1"></path>
                    <path d="M63.855,48.5237455 L56.930625,44.1534545 C56.930625,44.1534545 56.401875,42.6948136 55.760625,42.3963273 C55.119375,42.0978409 50.911875,41.5402909 50.50125,41.9626773 C50.090625,42.3850636 50.124375,45.6796773 50.923125,46.1133273 C51.721875,46.5469773 55.423125,46.4962909 55.771875,46.3554955 L63.52875,52.3026955 L63.855,48.5237455 Z" id="Path" fill="#EEC1BB" fill-rule="nonzero"></path>
                    <path d="M62.161875,25.2812318 C62.161875,25.2812318 57.661875,31.8591955 58.2975,37.4910136 L64.299375,47.4368045 L60.26625,45.3755591 L58.438125,48.8222318 C58.438125,48.8222318 63.07875,55.9802727 68.985,54.2907273 C74.89125,52.6011818 62.161875,25.2812318 62.161875,25.2812318 Z" id="Path" fill="#25AE60" fill-rule="nonzero"></path>
                    <path d="M62.161875,25.2812318 C62.161875,25.2812318 57.661875,31.8591955 58.2975,37.4910136 L64.299375,47.4368045 L60.26625,45.3755591 L58.438125,48.8222318 C58.438125,48.8222318 63.07875,55.9802727 68.985,54.2907273 C74.89125,52.6011818 62.161875,25.2812318 62.161875,25.2812318 Z" id="Path" fill="#FFFFFF" fill-rule="nonzero" opacity="0.1"></path>
                    <polygon id="Path" fill="#25AE60" fill-rule="nonzero" points="60.688125 45.1840773 58.393125 49.4586273 57.875625 48.2365227 59.70375 44.7616909"></polygon>
                    <path d="M52.3125,33.6895364 C51.78375,33.6895364 51.78375,47.5438091 51.78375,47.5438091 L39.69,47.1946364 C39.69,47.1946364 38.32875,35.4804545 39.69,33.6782727 L52.3125,33.6895364 Z" id="Path" fill="#FFFFFF" fill-rule="nonzero"></path>
                    <path d="M52.3125,33.6895364 C51.78375,33.6895364 51.78375,47.5438091 51.78375,47.5438091 L39.69,47.1946364 C39.69,47.1946364 38.32875,35.4804545 39.69,33.6782727 L52.3125,33.6895364 Z" id="Path" fill="#000000" fill-rule="nonzero" opacity="0.1"></path>
                    <path d="M2.3625,22.7131227 L13.798125,27.5283273 C13.9228253,27.5826922 14.0207887,27.6845104 14.0703902,27.8113061 C14.1199917,27.9381018 14.1171527,28.0794488 14.0625,28.2041455 L14.0625,28.2041455 C13.9519735,28.4573888 13.6575693,28.5732778 13.404375,28.4632091 L1.895625,23.5804227 L1.78875,23.5241045 L0.45,22.5272727 L2.210625,22.6793318 C2.26271252,22.6825098 2.31397049,22.6939143 2.3625,22.7131227 L2.3625,22.7131227 Z" id="Path" fill="#263238" fill-rule="nonzero"></path>
                </g>
                <g id="freepik--character-1--inject-2" transform="translate(27.437500, 0.875000)" fill-rule="nonzero">
                    <g id="freepik--group--inject-2">
                        <path d="M70.73325,67.9091707 L59.535,68.9012861 L55.04436,66.3815385 C55.04436,66.3815385 40.64256,58.4051562 36.90036,55.8854087 C35.76636,55.113137 34.70607,53.4333053 33.7932,51.4603486 C33.0271871,49.768549 32.3681848,48.0308447 31.82004,46.2573798 C31.56489,45.4625601 31.33809,44.7015625 31.14531,44.0025721 C30.71439,42.497488 30.4479,41.3700841 30.37419,41.0656851 L30.37419,41.0656851 C30.3774638,41.0413664 30.3774638,41.0167225 30.37419,40.9924038 L30.37419,40.9924038 L30.40254,40.9924038 L33.95196,39.865 L36.91737,38.9292548 C36.91737,38.9292548 37.05345,39.6282452 37.28592,40.6936418 L37.49004,41.635024 C37.55241,41.905601 37.61478,42.198726 37.68282,42.491851 C38.43126,45.7725962 39.58227,50.2483894 40.41576,50.9812019 C41.75955,52.1593389 58.65615,63.608125 59.25717,63.906887 C59.85819,64.205649 65.23902,63.906887 65.23902,63.906887 L70.73325,67.9091707 Z" id="Path" fill="#E4897B"></path>
                        <path d="M30.28347,25.1862019 C35.44317,25.1072837 38.7261,41.0036779 38.7261,41.0036779 L31.9221,44.3858894 C29.9893019,41.0589532 28.9814915,37.2807329 29.00205,33.4387981 C29.16081,27.3395433 30.28347,25.1862019 30.28347,25.1862019 Z" id="Path" fill="#25AE60"></path>
                        <path d="M30.28347,25.1862019 C35.44317,25.1072837 38.7261,41.0036779 38.7261,41.0036779 L31.9221,44.3858894 C29.9893019,41.0589532 28.9814915,37.2807329 29.00205,33.4387981 C29.16081,27.3395433 30.28347,25.1862019 30.28347,25.1862019 Z" id="Path" fill="#FFFFFF" opacity="0.5"></path>
                        <polygon id="Path" fill="#25AE60" points="39.48021 41.3137139 37.64313 42.497488 35.24472 44.0420313 31.79736 46.2573798 31.17933 46.6576082 30.43089 44.3971635 31.12263 44.0251202 31.57623 43.7770913 34.72875 42.0690745 37.24623 40.6992788 38.50497 40.0171995 38.7261 39.8988221"></polygon>
                        <path d="M35.5509,46.6576082 C35.561479,48.4199494 34.9289245,50.1263239 33.77052,51.4603486 C33.0045071,49.768549 32.3455048,48.0308447 31.79736,46.2573798 L31.17933,46.6576082 L30.43089,44.4028005 L31.12263,44.0307572 C30.69171,42.5256731 30.42522,41.3982692 30.35151,41.0938702 L30.35151,41.0938702 L30.35151,41.0036779 L31.16799,34.8029567 C32.2393217,36.4037241 33.154455,38.1025399 33.90093,39.876274 C34.19577,40.5696274 34.46793,41.3080769 34.71741,42.0747115 C34.80435,42.3377724 34.88373,42.6083494 34.95555,42.8864423 C35.06328,43.2697596 35.154,43.6587139 35.23338,44.0476683 C35.4176475,44.9064353 35.5239149,45.7799284 35.5509,46.6576082 L35.5509,46.6576082 Z" id="Path" fill="#000000" opacity="0.2"></path>
                        <polygon id="Path" fill="#E4897B" points="29.51235 171.004615 34.25814 171.50631 35.14833 161.33149 30.40254 160.829796"></polygon>
                        <polygon id="Path" fill="#E4897B" points="5.8401 170.660757 10.4328 170.660757 10.81269 160.074435 6.21432 160.074435"></polygon>
                        <path d="M11.07351,170.130877 L5.48856,170.130877 C5.30059831,170.133998 5.13907889,170.264323 5.09733,170.44655 L4.19013,174.516478 C4.1515215,174.691483 4.18493542,174.874571 4.28292465,175.024935 C4.38091388,175.1753 4.53533446,175.280444 4.71177,175.316935 C4.76056393,175.325135 4.81039607,175.325135 4.85919,175.316935 C6.66792,175.316935 7.98336,175.181647 10.25136,175.181647 C11.65185,175.181647 15.87033,175.322572 17.79813,175.322572 C19.72593,175.322572 19.98108,173.428534 19.18728,173.253786 C15.64353,172.487151 12.95028,171.421755 11.81628,170.435276 C11.6143507,170.247094 11.3501683,170.138828 11.07351,170.130877 Z" id="Path" fill="#263238"></path>
                        <path d="M11.39103,170.906833 C11.3454482,170.893909 11.3116225,170.850475 11.30598,170.797623 C11.3006072,170.750898 11.3207947,170.705153 11.35701,170.681989 C11.52144,170.55993 13.00698,169.525644 13.51728,169.827579 C13.6359702,169.886079 13.7104277,170.021567 13.70439,170.168058 C13.7274367,170.41155 13.6424916,170.652158 13.47759,170.810471 C13.2189301,171.013033 12.9065273,171.108328 12.59307,171.080285 C12.1878834,171.074263 11.7846143,171.016072 11.39103,170.906833 Z M11.70288,170.733382 C12.2398652,170.939888 12.8262795,170.905403 13.34151,170.63702 C13.4505998,170.524641 13.5054373,170.359754 13.48893,170.193754 C13.48893,170.097392 13.44924,170.052423 13.41522,170.052423 C13.3739453,170.025843 13.3263492,170.014609 13.27914,170.020303 C12.7180547,170.140622 12.1828051,170.382761 11.70288,170.733382 L11.70288,170.733382 Z" id="Shape" fill="#25AE60"></path>
                        <path d="M11.34,170.801683 C11.3067352,170.778694 11.28751,170.740467 11.28897,170.700216 C11.28897,170.638209 11.40804,169.324784 11.94102,168.89637 C12.0655197,168.784018 12.2337551,168.732395 12.40029,168.755445 C12.5699202,168.754493 12.7168291,168.872278 12.75183,169.037296 C12.84255,169.522079 11.92401,170.525469 11.4534,170.784772 L11.40237,170.784772 C11.3836708,170.796306 11.3620001,170.802181 11.34,170.801683 Z M12.0771,169.020385 C11.7473534,169.429979 11.5497247,169.929036 11.5101,170.452188 C11.98638,170.097055 12.57039,169.324784 12.51369,169.037296 C12.51369,169.009111 12.51369,168.930192 12.35493,168.930192 L12.3039,168.930192 C12.2277922,168.935897 12.154953,168.963298 12.09411,169.009111 L12.0771,169.020385 Z" id="Shape" fill="#25AE60"></path>
                        <path d="M34.7571,169.989952 L29.17215,169.989952 C28.9851354,169.990407 28.8230637,170.118843 28.78092,170.299988 L27.87372,174.369916 C27.7966233,174.733946 28.0296669,175.091552 28.39536,175.170373 L28.54845,175.170373 C30.35151,175.13655 31.66695,175.029447 33.94062,175.029447 C35.33544,175.029447 39.55392,175.17601 41.48172,175.17601 C43.40952,175.17601 43.66467,173.276334 42.87654,173.101587 C39.33279,172.334952 36.63954,171.275192 35.50554,170.283077 C35.3004717,170.097724 35.0342272,169.99345 34.7571,169.989952 Z" id="Path" fill="#263238"></path>
                        <path d="M35.07462,170.736305 C35.0290382,170.723654 34.9952125,170.681137 34.98957,170.629402 C34.9833735,170.581824 35.0065729,170.535511 35.04627,170.516211 C35.2107,170.396731 36.69624,169.3843 37.20087,169.679854 C37.317432,169.73982 37.3908928,169.87067 37.38798,170.013139 C37.4120547,170.251642 37.3269228,170.487684 37.16118,170.641979 C36.9080558,170.845898 36.6006554,170.949947 36.288,170.937533 C35.8779543,170.921873 35.4708599,170.85436 35.07462,170.736305 Z M35.38647,170.566518 C35.9234496,170.764971 36.5079307,170.733569 37.0251,170.47848 C37.1349928,170.369083 37.1899918,170.207205 37.17252,170.044581 C37.17252,169.943967 37.13283,169.899948 37.10448,169.899948 C37.0611823,169.873816 37.0117595,169.862853 36.96273,169.868506 C36.4023911,169.989112 35.8676112,170.225928 35.38647,170.566518 L35.38647,170.566518 Z" id="Shape" fill="#25AE60"></path>
                        <path d="M35.04627,170.643846 C35.0125189,170.623263 34.9912677,170.587346 34.98957,170.548017 C34.98957,170.480373 35.10864,169.166947 35.64162,168.738534 C35.7661197,168.626181 35.9343551,168.574559 36.10089,168.597608 C36.2722648,168.597193 36.4197876,168.717837 36.45243,168.885096 C36.54882,169.364243 35.63028,170.373269 35.154,170.626935 L35.10297,170.626935 C35.0860292,170.637725 35.0663876,170.643583 35.04627,170.643846 L35.04627,170.643846 Z M35.78337,168.862548 C35.4511052,169.270688 35.253155,169.770557 35.21637,170.294351 C35.68698,169.939219 36.27099,169.166947 36.21429,168.885096 C36.21429,168.851274 36.21429,168.772356 36.05553,168.772356 L36.0045,168.772356 C35.922949,168.777983 35.8453992,168.809613 35.78337,168.862548 Z" id="Shape" fill="#25AE60"></path>
                        <polygon id="Path" fill="#000000" opacity="0.2" points="30.40254 160.829796 35.14833 161.33149 34.68339 166.579555 29.9376 166.077861"></polygon>
                        <polygon id="Path" fill="#000000" opacity="0.2" points="6.21432 160.080072 10.81269 160.080072 10.61424 165.542344 6.01587 165.542344"></polygon>
                        <path d="M8.1081,67.2045433 L32.4891,67.2045433 C34.80813,79.8032812 42.0714,124.375192 36.86067,164.087993 L28.59948,163.067692 C28.59948,163.067692 29.36493,110.344651 22.07331,90.857476 C21.23415,101.285962 20.23623,112.385252 19.37439,118.292849 C17.27082,132.825084 12.72915,164.600962 12.72915,164.600962 L4.32054,164.600962 C4.32054,164.600962 6.02154,134.19488 6.83235,119.905036 C7.69986,104.391959 8.07975,70.3894591 8.1081,67.2045433 Z" id="Path" fill="#25AE60"></path>
                        <path d="M22.113,90.857476 C23.3149342,94.2744458 24.227206,97.7854012 24.84027,101.353606 C25.52067,92.0694351 22.7934,82.2271995 22.7934,82.2271995 L22.113,90.857476 Z" id="Path" fill="#000000" opacity="0.2"></path>
                        <polygon id="Path" fill="#25AE60" points="37.83024 165.998942 27.60723 164.488221 27.91908 161.675349 38.55033 163.062055"></polygon>
                        <polygon id="Path" fill="#FFFFFF" opacity="0.6" points="37.83024 165.998942 27.60723 164.488221 27.91908 161.675349 38.55033 163.062055"></polygon>
                        <polygon id="Path" fill="#25AE60" points="13.73841 164.662969 3.82158 164.662969 3.82158 161.714808 14.11263 161.523149"></polygon>
                        <polygon id="Path" fill="#FFFFFF" opacity="0.6" points="13.73841 164.662969 3.82158 164.662969 3.82158 161.714808 14.11263 161.523149"></polygon>
                        <polygon id="Path" fill="#263238" points="8.06274 71.4210337 8.04006 67.9091707 32.90868 66.3815385 33.08445 69.7862981"></polygon>
                        <rect id="Rectangle" fill="#25AE60" x="13.23378" y="67.0185216" width="1.12266" height="5.14659856"></rect>
                        <polygon id="Rectangle" fill="#25AE60" transform="translate(31.170640, 67.916222) rotate(-4.170000) translate(-31.170640, -67.916222) " points="30.6082352 65.3426061 31.7308607 65.3430796 31.7330445 70.4898374 30.610419 70.4893638"></polygon>
                        <path d="M32.886,66.3815385 L8.04006,68.2079327 C8.04006,66.0433173 7.98336,63.6306731 7.81893,61.0827404 C7.51275,56.3758293 6.92874,51.2235938 6.27669,46.3926683 C4.89321,36.1276563 3.19788,27.3169952 3.19788,27.3169952 C14.76468,24.4139303 30.28347,25.1692909 30.28347,25.1692909 C34.31484,40.1863101 32.886,66.3815385 32.886,66.3815385 Z" id="Path" fill="#25AE60"></path>
                        <path d="M32.886,66.3815385 L8.04006,68.2079327 C8.04006,66.0433173 7.98336,63.6306731 7.81893,61.0827404 C7.51275,56.3758293 6.92874,51.2235938 6.27669,46.3926683 C4.89321,36.1276563 3.19788,27.3169952 3.19788,27.3169952 C14.76468,24.4139303 30.28347,25.1692909 30.28347,25.1692909 C34.31484,40.1863101 32.886,66.3815385 32.886,66.3815385 Z" id="Path" fill="#FFFFFF" opacity="0.6"></path>
                        <path d="M12.02607,25.7780889 C14.29407,27.8017788 19.75428,27.0576923 19.75428,27.0576923 C19.75428,27.0576923 23.15628,26.1219471 22.45887,25.0565505 C20.44035,24.7296034 19.46511,23.7938582 19.05687,22.5931731 C18.8327812,21.8520748 18.7633214,21.0732794 18.85275,20.3045433 C18.8839542,19.8750406 18.9407539,19.4477559 19.02285,19.0249399 L12.21885,14.0305409 C13.13172,17.3281971 14.22036,23.3879928 12.02607,25.7780889 Z" id="Path" fill="#E4897B"></path>
                        <path d="M13.81212,17.2041827 C14.07861,21.2515625 17.42391,22.3676923 19.06254,22.5931731 C18.8384512,21.8520748 18.7689914,21.0732794 18.85842,20.3045433 L13.81212,17.2041827 Z" id="Path" fill="#000000" opacity="0.2"></path>
                        <path d="M25.515,4.41378606 C27.16497,5.96960337 26.4789,10.7103365 23.11659,13.1342548 C19.75428,15.5581731 19.75428,3.83317308 19.75428,3.83317308 C19.75428,3.83317308 24.46605,3.42167067 25.515,4.41378606 Z" id="Path" fill="#263238"></path>
                        <path d="M13.35285,18.1399279 C14.8019274,20.2726481 17.505985,21.1795264 19.9584,20.3552764 C21.5099785,19.8666357 22.8158118,18.8082898 23.60988,17.3958413 C23.7220742,17.2000328 23.824264,16.9987234 23.91606,16.7926803 C25.5717,12.9651442 26.082,6.20072115 22.00527,3.68661058 C19.0908012,1.87073667 15.2478068,2.74330544 13.41522,5.63701923 C12.8946117,6.461947 12.5743089,7.39603662 12.47967,8.36533654 C11.98071,12.8524038 11.47041,15.4792548 13.35285,18.1399279 Z" id="Path" fill="#E4897B"></path>
                        <path d="M19.07955,10.7610697 C18.9945,11.1162019 19.15893,11.4487861 19.40274,11.4882452 C19.64655,11.5277043 19.88469,11.2627644 19.96974,10.9245433 C20.05479,10.5863221 19.88469,10.2368269 19.65222,10.1973678 C19.41975,10.1579087 19.14759,10.3946635 19.07955,10.7610697 Z" id="Path" fill="#263238"></path>
                        <path d="M23.21298,11.4600601 C23.12793,11.8151923 23.29803,12.1534135 23.5305,12.1928726 C23.76297,12.2323317 24.01812,11.9673918 24.0975,11.6291707 C24.17688,11.2909495 24.01245,10.9358173 23.77431,10.8963582 C23.53617,10.856899 23.27535,11.1162019 23.21298,11.4600601 Z" id="Path" fill="#263238"></path>
                        <path d="M21.86919,11.4149639 C22.1148099,12.5926089 22.5231415,13.7308046 23.08257,14.7971755 C22.5119911,15.0739857 21.8471691,15.0843131 21.26817,14.8253606 L21.86919,11.4149639 Z" id="Path" fill="#DE5753"></path>
                        <path d="M18.02493,9.21088942 C18.1033956,9.23371023 18.1881288,9.21686216 18.25173,9.16579327 C18.6444833,8.7762949 19.2004552,8.59623631 19.74861,8.68100962 C19.804257,8.69458844 19.8630525,8.68557157 19.9119969,8.65595259 C19.9609414,8.62633361 19.9960031,8.57855235 20.00943,8.52317308 C20.0346593,8.40845685 19.9647539,8.29428032 19.85067,8.26387019 L19.85067,8.26387019 C19.16321,8.13771428 18.4566297,8.34740694 17.95122,8.82757212 C17.8691373,8.9126305 17.8691373,9.04691277 17.95122,9.13197115 L17.95122,9.13197115 C17.9703437,9.16283059 17.9953897,9.18964629 18.02493,9.21088942 Z" id="Path" fill="#263238"></path>
                        <path d="M20.34963,16.6292067 L20.34963,16.6292067 C19.2607598,16.6116865 18.2499045,16.0639012 17.64504,15.1635817 C17.6286057,15.1375819 17.62355,15.1060423 17.6310412,15.0762517 C17.6385325,15.0464612 17.6579223,15.0209975 17.68473,15.0057452 C17.7366407,14.9744683 17.8041192,14.9893763 17.83782,15.0395673 L17.83782,15.0395673 C18.4164856,15.8580329 19.3494565,16.357319 20.3553,16.3868149 C20.41578,16.3867397 20.465676,16.4338652 20.4687,16.4939183 L20.4687,16.4939183 C20.4658522,16.5518566 20.4192473,16.5981904 20.36097,16.6010216 L20.34963,16.6292067 Z" id="Path" fill="#263238"></path>
                        <path d="M25.2315,10.3439303 C25.2692606,10.3661597 25.3123561,10.3778447 25.35624,10.3777529 C25.4688515,10.3425124 25.5354371,10.2272784 25.50933,10.1128125 L25.50933,10.1128125 C25.3308066,9.43759566 24.8308968,8.89215699 24.17121,8.65282452 C24.0585946,8.6197557 23.9400822,8.68242754 23.90472,8.79375 L23.90472,8.79375 C23.8710941,8.90716415 23.9337201,9.02670672 24.04647,9.06432692 L24.04647,9.06432692 C24.5612444,9.26903329 24.948182,9.70389672 25.08975,10.2368269 C25.11926,10.2911747 25.1709289,10.3302147 25.2315,10.3439303 L25.2315,10.3439303 Z" id="Path" fill="#263238"></path>
                        <path d="M16.73217,3.34838942 L16.73217,5.35516827 C15.9928697,5.60243955 15.5684835,6.37268455 15.75693,7.12519231 C16.19352,8.87266827 14.92911,11.3416827 13.51728,12.1985096 C13.51728,12.1985096 13.56264,11.4713341 12.95028,11.5671635 C12.33792,11.6629928 12.02607,15.4454327 13.00131,17.3789303 C13.00131,17.3789303 11.39103,15.541262 10.85805,11.4713341 C10.35909,7.70580529 10.61991,4.65054087 11.54412,3.33147837 L16.73217,3.34838942 Z" id="Path" fill="#263238"></path>
                        <path d="M9.89415,11.6799038 C10.2181207,12.7737273 10.9641289,13.6957474 11.96937,14.2447476 C13.30749,14.960649 14.31108,13.8445192 14.23737,12.4183534 C14.14665,11.144387 13.35285,9.2052524 11.86731,9.09251202 C10.38177,8.97977163 9.50859,10.3326562 9.89415,11.6799038 Z" id="Path" fill="#E4897B"></path>
                        <path d="M10.63125,6.76442308 C10.63125,6.76442308 9.23076,3.42167067 12.89925,0.969567308 C16.56774,-1.48253606 25.27119,1.37543269 25.88355,3.36530048 C26.49591,5.35516827 19.91304,8.9684976 10.63125,6.76442308 Z" id="Path" fill="#263238"></path>
                        <polygon id="Path" fill="#25AE60" points="12.88224 23.6980288 18.43317 26.7194712 19.19295 22.5931731 23.08257 25.1072837 23.08257 30.3778966 18.96615 27.9370673 16.07445 32.24375 10.36476 26.0092067"></polygon>
                        <path d="M21.7360024,66.6414567 L25.1085813,66.6425399 C25.7489395,66.6434931 26.2680015,67.1625542 26.2689559,67.8029124 L26.2695795,69.7333011 C26.2705335,70.3739511 25.7513516,70.8934685 25.1107013,70.8936755 C25.1104522,70.8936756 25.1102031,70.8936756 25.1099543,70.8929284 L21.7373754,70.8918453 C21.0970172,70.8908921 20.5779551,70.371831 20.5770008,69.7314728 L20.5763772,67.8010841 C20.5754232,67.1604341 21.0946051,66.6409166 21.7352553,66.6407097 C21.7355044,66.6407096 21.7357535,66.6407096 21.7360024,66.6414567 Z" id="Rectangle" fill="#FFFFFF" transform="translate(23.422978, 68.767193) rotate(-3.170000) translate(-23.422978, -68.767193) "></path>
                        <polygon id="Path" fill="#FFFFFF" opacity="0.5" points="12.88224 23.6980288 18.43317 26.7194712 19.19295 22.5931731 23.08257 25.1072837 23.08257 30.3778966 18.96615 27.9370673 16.07445 32.24375 10.36476 26.0092067"></polygon>
                        <path d="M16.73217,60.0117067 C15.0822,62.4807212 9.80343,62.4638101 7.81893,61.0996514 C7.51275,56.3927404 6.92874,51.2405048 6.27669,46.4095793 L16.73217,60.0117067 Z" id="Path" fill="#000000" opacity="0.2"></path>
                        <path d="M8.04006,41.0036779 C8.04006,41.0036779 9.21375,48.6023798 10.36476,50.0849159 C11.51577,51.5674519 35.31276,64.5044111 35.31276,64.5044111 L43.53993,63.912524 L47.32182,68.2248437 C47.32182,68.2248437 36.36171,69.9159495 35.16534,69.5890024 C34.4352777,69.3881008 33.7268894,69.1162119 33.05043,68.7772716 C33.05043,68.7772716 8.10243,59.0083173 6.00453,56.7760577 C3.90663,54.5437981 1.51956,43.083738 1.51956,43.083738 L8.04006,41.0036779 Z" id="Path" fill="#E4897B"></path>
                        <path d="M3.19788,27.3339062 C7.55244,26.4319832 9.80343,44.3971635 9.80343,44.3971635 L0.89586,46.6519712 C0.89586,46.6519712 -2.16027,28.4500361 3.19788,27.3339062 Z" id="Path" fill="#25AE60"></path>
                        <path d="M3.19788,27.3339062 C7.55244,26.4319832 9.80343,44.3971635 9.80343,44.3971635 L0.89586,46.6519712 C0.89586,46.6519712 -2.16027,28.4500361 3.19788,27.3339062 Z" id="Path" fill="#FFFFFF" opacity="0.5"></path>
                        <polygon id="Path" fill="#25AE60" points="0.37422 46.2235577 10.36476 43.8447356 10.36476 45.5527524 0.82215 48.3036178"></polygon>
                    </g>
                </g>
                <g id="freepik--Boxes--inject-2" transform="translate(56.312500, 48.125000)">
                    <path d="M5.67050971,111.212882 L5.67050971,34.2176201 C5.67118171,30.8853124 4.64003657,27.6329699 2.71617415,24.8993286 L0,21.0461954 L48.2560376,21.0461954 L50.9722118,24.8993286 C52.8960742,27.6329699 53.9272193,30.8853124 53.9265477,34.2176201 L53.9265477,110.482697" id="Path" stroke="#263238" stroke-width="6" stroke-linecap="round" stroke-linejoin="round"></path>
                    <ellipse id="Oval" fill="#263238" fill-rule="nonzero" cx="108.221678" cy="123.142991" rx="4.99571905" ry="4.94841157"></ellipse>
                    <path d="M110.722379,123.142991 C110.724667,122.140625 110.11685,121.235693 109.182588,120.850528 C108.248326,120.465363 107.171804,120.675897 106.455434,121.383874 C105.739064,122.091851 105.524074,123.157698 105.9108,124.083985 C106.297525,125.010271 107.209726,125.614395 108.221678,125.614395 C108.884381,125.615881 109.520458,125.356161 109.989593,124.892522 C110.458728,124.428883 110.722379,123.799421 110.722379,123.142991 L110.722379,123.142991 Z" id="Path" fill="#FFFFFF" fill-rule="nonzero" opacity="0.4"></path>
                    <path d="M107.620604,124.243886 L107.620604,124.243886 C106.822723,124.243084 106.109852,123.749921 105.834393,123.008188 L102.891399,115.021081 L109.520225,115.021081 L109.520225,122.362254 C109.520225,123.401451 108.669735,124.243886 107.620604,124.243886 L107.620604,124.243886 Z" id="Path" fill="#263238" fill-rule="nonzero"></path>
                    <path d="M107.620604,124.243886 L107.620604,124.243886 C106.822723,124.243084 106.109852,123.749921 105.834393,123.008188 L102.891399,115.021081 L109.520225,115.021081 L109.520225,122.362254 C109.520225,123.401451 108.669735,124.243886 107.620604,124.243886 L107.620604,124.243886 Z" id="Path" fill="#FFFFFF" fill-rule="nonzero" opacity="0.2"></path>
                    <ellipse id="Oval" fill="#263238" fill-rule="nonzero" cx="52.6506826" cy="123.142991" rx="4.99571905" ry="4.94841157"></ellipse>
                    <path d="M55.1513839,123.142991 C55.1536721,122.140625 54.5458544,121.235693 53.6115928,120.850528 C52.6773312,120.465363 51.600809,120.675897 50.8844391,121.383874 C50.1680691,122.091851 49.9530789,123.157698 50.3398044,124.083985 C50.7265298,125.010271 51.6387306,125.614395 52.6506826,125.614395 C53.3133862,125.615881 53.9494631,125.356161 54.418598,124.892522 C54.887733,124.428883 55.1513839,123.799421 55.1513839,123.142991 L55.1513839,123.142991 Z" id="Path" fill="#FFFFFF" fill-rule="nonzero" opacity="0.4"></path>
                    <path d="M52.0496086,124.243886 L52.0496086,124.243886 C51.2517277,124.243084 50.5388567,123.749921 50.2633981,123.008188 L47.3204035,115.021081 L53.9492294,115.021081 L53.9492294,122.362254 C53.9492294,123.401451 53.0987402,124.243886 52.0496086,124.243886 L52.0496086,124.243886 Z" id="Path" fill="#263238" fill-rule="nonzero"></path>
                    <path d="M52.0496086,124.243886 L52.0496086,124.243886 C51.2517277,124.243084 50.5388567,123.749921 50.2633981,123.008188 L47.3204035,115.021081 L53.9492294,115.021081 L53.9492294,122.362254 C53.9492294,123.401451 53.0987402,124.243886 52.0496086,124.243886 L52.0496086,124.243886 Z" id="Path" fill="#FFFFFF" fill-rule="nonzero" opacity="0.2"></path>
                    <path d="M116.8125,109.263848 L116.8125,113.937036 C116.8125,114.80872 116.099105,115.51536 115.219087,115.51536 L3.54973908,115.51536 C2.66972125,115.51536 1.95632585,114.80872 1.95632585,113.937036 L1.95632585,109.263848 L116.8125,109.263848 Z" id="Path" fill="#263238" fill-rule="nonzero"></path>
                    <path d="M116.8125,109.263848 L116.8125,113.937036 C116.8125,114.80872 116.099105,115.51536 115.219087,115.51536 L3.54973908,115.51536 C2.66972125,115.51536 1.95632585,114.80872 1.95632585,113.937036 L1.95632585,109.263848 L116.8125,109.263848 Z" id="Path" fill="#FFFFFF" fill-rule="nonzero" opacity="0.4"></path>
                    <path d="M77.118932,109.263848 L77.118932,113.937036 C77.118932,114.80872 76.4055366,115.51536 75.5255188,115.51536 L3.54973908,115.51536 C2.66972125,115.51536 1.95632585,114.80872 1.95632585,113.937036 L1.95632585,109.263848 L77.118932,109.263848 Z" id="Path" fill="#FFFFFF" fill-rule="nonzero" opacity="0.2"></path>
                    <ellipse id="Oval" fill="#263238" fill-rule="nonzero" cx="67.9610589" cy="123.142991" rx="4.99571905" ry="4.94841157"></ellipse>
                    <path d="M70.4617601,123.142991 C70.4640483,122.140625 69.8562306,121.235693 68.921969,120.850528 C67.9877074,120.465363 66.9111852,120.675897 66.1948153,121.383874 C65.4784454,122.091851 65.2634552,123.157698 65.6501806,124.083985 C66.036906,125.010271 66.9491068,125.614395 67.9610589,125.614395 C68.6237624,125.615881 69.2598393,125.356161 69.7289743,124.892522 C70.1981092,124.428883 70.4617601,123.799421 70.4617601,123.142991 L70.4617601,123.142991 Z" id="Path" fill="#FFFFFF" fill-rule="nonzero" opacity="0.6"></path>
                    <path d="M67.3599848,124.243886 L67.3599848,124.243886 C66.5621039,124.243084 65.8492329,123.749921 65.5737743,123.008188 L62.6307797,115.021081 L69.2596056,115.021081 L69.2596056,122.362254 C69.2596056,123.401451 68.4091164,124.243886 67.3599848,124.243886 L67.3599848,124.243886 Z" id="Path" fill="#263238" fill-rule="nonzero"></path>
                    <path d="M67.3599848,124.243886 L67.3599848,124.243886 C66.5621039,124.243084 65.8492329,123.749921 65.5737743,123.008188 L62.6307797,115.021081 L69.2596056,115.021081 L69.2596056,122.362254 C69.2596056,123.401451 68.4091164,124.243886 67.3599848,124.243886 L67.3599848,124.243886 Z" id="Path" fill="#FFFFFF" fill-rule="nonzero" opacity="0.4"></path>
                    <ellipse id="Oval" fill="#263238" fill-rule="nonzero" cx="12.3900637" cy="123.142991" rx="4.99571905" ry="4.94841157"></ellipse>
                    <path d="M14.890765,123.142991 C14.8930532,122.140625 14.2852355,121.235693 13.3509739,120.850528 C12.4167122,120.465363 11.3401901,120.675897 10.6238201,121.383874 C9.90745021,122.091851 9.69246001,123.157698 10.0791854,124.083985 C10.4659109,125.010271 11.3781116,125.614395 12.3900637,125.614395 C13.0527672,125.615881 13.6888442,125.356161 14.1579791,124.892522 C14.6271141,124.428883 14.890765,123.799421 14.890765,123.142991 Z" id="Path" fill="#FFFFFF" fill-rule="nonzero" opacity="0.6"></path>
                    <path d="M11.7889897,124.243886 L11.7889897,124.243886 C10.9911088,124.243084 10.2782377,123.749921 10.0027791,123.008188 L7.05978459,115.021081 L13.6886104,115.021081 L13.6886104,122.362254 C13.6886104,123.401451 12.8381213,124.243886 11.7889897,124.243886 L11.7889897,124.243886 Z" id="Path" fill="#263238" fill-rule="nonzero"></path>
                    <path d="M11.7889897,124.243886 L11.7889897,124.243886 C10.9911088,124.243084 10.2782377,123.749921 10.0027791,123.008188 L7.05978459,115.021081 L13.6886104,115.021081 L13.6886104,122.362254 C13.6886104,123.401451 12.8381213,124.243886 11.7889897,124.243886 L11.7889897,124.243886 Z" id="Path" fill="#FFFFFF" fill-rule="nonzero" opacity="0.4"></path>
                    <rect id="Rectangle" fill="#25AE60" fill-rule="nonzero" x="15.786699" y="73.0073253" width="52.877503" height="36.2565229"></rect>
                    <rect id="Rectangle" fill="#FFFFFF" fill-rule="nonzero" opacity="0.4" x="15.786699" y="73.0073253" width="52.877503" height="36.2565229"></rect>
                    <rect id="Rectangle" fill="#FFFFFF" fill-rule="nonzero" opacity="0.2" x="15.786699" y="73.0073253" width="24.5362955" height="36.2565229"></rect>
                    <rect id="Rectangle" fill="#000000" fill-rule="nonzero" opacity="0.2" x="34.4143234" y="101.5969" width="4.11111954" height="5.18431769" rx="0.92"></rect>
                    <rect id="Rectangle" fill="#000000" fill-rule="nonzero" opacity="0.2" x="28.8799059" y="101.5969" width="4.11111954" height="5.18431769" rx="0.92"></rect>
                    <rect id="Rectangle" fill="#000000" fill-rule="nonzero" opacity="0.4" x="54.3064715" y="73.0073253" width="2.98835862" height="3.78011463"></rect>
                    <rect id="Rectangle" fill="#000000" fill-rule="nonzero" opacity="0.2" x="44.8820843" y="88.4872598" width="20.5839502" height="4.74058952"></rect>
                    <rect id="Rectangle" fill="#000000" fill-rule="nonzero" opacity="0.2" x="17.3857828" y="74.8945742" width="7.03710255" height="6.97046397"></rect>
                    <rect id="Rectangle" fill="#25AE60" fill-rule="nonzero" x="21.1850243" y="36.7508024" width="52.877503" height="36.2565229"></rect>
                    <rect id="Rectangle" fill="#000000" fill-rule="nonzero" opacity="0.4" x="21.1850243" y="36.7508024" width="52.877503" height="36.2565229"></rect>
                    <rect id="Rectangle" fill="#FFFFFF" fill-rule="nonzero" opacity="0.2" x="21.1850243" y="36.7508024" width="24.5362955" height="36.2565229"></rect>
                    <rect id="Rectangle" fill="#000000" fill-rule="nonzero" opacity="0.2" x="39.8183192" y="65.3403766" width="4.11111954" height="5.18431769" rx="0.92"></rect>
                    <rect id="Rectangle" fill="#000000" fill-rule="nonzero" opacity="0.2" x="34.2839017" y="65.3403766" width="4.11111954" height="5.18431769" rx="0.92"></rect>
                    <rect id="Rectangle" fill="#000000" fill-rule="nonzero" opacity="0.4" x="59.7047967" y="36.7508024" width="2.98835862" height="3.78011463"></rect>
                    <rect id="Rectangle" fill="#000000" fill-rule="nonzero" opacity="0.2" x="50.2804096" y="52.2307369" width="20.5839502" height="4.74058952"></rect>
                    <rect id="Rectangle" fill="#000000" fill-rule="nonzero" opacity="0.2" x="22.7897785" y="38.6380513" width="7.03710255" height="6.97046397"></rect>
                    <rect id="Rectangle" fill="#25AE60" fill-rule="nonzero" x="53.5522937" y="36.7508024" width="52.877503" height="36.2565229"></rect>
                    <rect id="Rectangle" fill="#FFFFFF" fill-rule="nonzero" opacity="0.4" x="53.5522937" y="36.7508024" width="52.877503" height="36.2565229"></rect>
                    <rect id="Rectangle" fill="#FFFFFF" fill-rule="nonzero" opacity="0.2" x="53.5522937" y="36.7508024" width="24.5362955" height="36.2565229"></rect>
                    <rect id="Rectangle" fill="#000000" fill-rule="nonzero" opacity="0.2" x="72.1855886" y="65.3403766" width="4.11111954" height="5.18431769" rx="0.92"></rect>
                    <rect id="Rectangle" fill="#000000" fill-rule="nonzero" opacity="0.2" x="66.6511711" y="65.3403766" width="4.11111954" height="5.18431769" rx="0.92"></rect>
                    <rect id="Rectangle" fill="#000000" fill-rule="nonzero" opacity="0.4" x="92.0720661" y="36.7508024" width="2.98835862" height="3.78011463"></rect>
                    <rect id="Rectangle" fill="#000000" fill-rule="nonzero" opacity="0.2" x="82.647679" y="52.2307369" width="20.5839502" height="4.74058952"></rect>
                    <rect id="Rectangle" fill="#000000" fill-rule="nonzero" opacity="0.2" x="55.1570479" y="38.6380513" width="7.03710255" height="6.97046397"></rect>
                    <rect id="Rectangle" fill="#25AE60" fill-rule="nonzero" x="35.2648999" y="0.494279476" width="52.877503" height="36.2565229"></rect>
                    <rect id="Rectangle" fill="#FFFFFF" fill-rule="nonzero" opacity="0.2" x="35.2648999" y="0.494279476" width="24.5362955" height="36.2565229"></rect>
                    <rect id="Rectangle" fill="#000000" fill-rule="nonzero" opacity="0.2" x="53.8925243" y="29.0838537" width="4.11111954" height="5.18431769" rx="0.92"></rect>
                    <rect id="Rectangle" fill="#000000" fill-rule="nonzero" opacity="0.2" x="48.3637773" y="29.0838537" width="4.11111954" height="5.18431769" rx="0.92"></rect>
                    <rect id="Rectangle" fill="#000000" fill-rule="nonzero" opacity="0.4" x="73.7846723" y="0.494279476" width="2.98835862" height="3.78011463"></rect>
                    <rect id="Rectangle" fill="#000000" fill-rule="nonzero" opacity="0.2" x="64.3602852" y="15.974214" width="20.5839502" height="4.74058952"></rect>
                    <rect id="Rectangle" fill="#000000" fill-rule="nonzero" opacity="0.2" x="36.8639836" y="2.38152838" width="7.03710255" height="6.97046397"></rect>
                    <rect id="Rectangle" fill="#263238" fill-rule="nonzero" x="49.4355036" y="73.0073253" width="52.877503" height="36.2565229"></rect>
                    <rect id="Rectangle" fill="#FFFFFF" fill-rule="nonzero" opacity="0.2" x="49.4355036" y="73.0073253" width="52.877503" height="36.2565229"></rect>
                    <rect id="Rectangle" fill="#FFFFFF" fill-rule="nonzero" opacity="0.2" x="49.4355036" y="73.0073253" width="24.5362955" height="36.2565229"></rect>
                    <rect id="Rectangle" fill="#000000" fill-rule="nonzero" opacity="0.2" x="68.063128" y="101.5969" width="4.11111954" height="5.18431769" rx="0.92"></rect>
                    <rect id="Rectangle" fill="#000000" fill-rule="nonzero" opacity="0.2" x="62.5287106" y="101.5969" width="4.11111954" height="5.18431769" rx="0.92"></rect>
                    <rect id="Rectangle" fill="#000000" fill-rule="nonzero" opacity="0.4" x="87.9552761" y="73.0073253" width="2.98835862" height="3.78011463"></rect>
                    <rect id="Rectangle" fill="#000000" fill-rule="nonzero" opacity="0.2" x="78.530889" y="88.4872598" width="20.5839502" height="4.74058952"></rect>
                    <rect id="Rectangle" fill="#000000" fill-rule="nonzero" opacity="0.2" x="51.0345874" y="74.8945742" width="7.03710255" height="6.97046397"></rect>
                </g>
            </g>
        </g>
    </g>
</svg>